<?xml version="1.0" encoding="utf-8" standalone="no"?>
<!DOCTYPE svg PUBLIC "-//W3C//DTD SVG 1.1//EN"
  "http://www.w3.org/Graphics/SVG/1.1/DTD/svg11.dtd">
<svg xmlns:xlink="http://www.w3.org/1999/xlink" width="432pt" height="216pt" viewBox="0 0 432 216" xmlns="http://www.w3.org/2000/svg" version="1.1">
 <metadata>
  <rdf:RDF xmlns:dc="http://purl.org/dc/elements/1.1/" xmlns:cc="http://creativecommons.org/ns#" xmlns:rdf="http://www.w3.org/1999/02/22-rdf-syntax-ns#">
   <cc:Work>
    <dc:type rdf:resource="http://purl.org/dc/dcmitype/StillImage"/>
    <dc:date>2026-07-02T11:41:18.051726</dc:date>
    <dc:format>image/svg+xml</dc:format>
    <dc:creator>
     <cc:Agent>
      <dc:title>Matplotlib v3.11.0, https://matplotlib.org/</dc:title>
     </cc:Agent>
    </dc:creator>
   </cc:Work>
  </rdf:RDF>
 </metadata>
 <defs>
  <style type="text/css">*{stroke-linejoin: round; stroke-linecap: butt}</style>
 </defs>
 <g id="figure_1">
  <g id="patch_1">
   <path d="M 0 216 
L 432 216 
L 432 0 
L 0 0 
z
" style="fill: #ffffff"/>
  </g>
  <g id="axes_1">
   <g id="patch_2">
    <path d="M 46.76 171.957188 
L 421.2 171.957188 
L 421.2 27.436719 
L 46.76 27.436719 
z
" style="fill: #ffffff"/>
   </g>
   <g id="FillBetweenPolyCollection_1">
    <defs>
     <path id="m7db53da009" d="M 63.78 -44.042812 
L 63.78 -44.042812 
L 70.726939 -44.042812 
L 70.726939 -44.042812 
L 77.673878 -44.042812 
L 77.673878 -44.042812 
L 84.620816 -44.042812 
L 84.620816 -44.042812 
L 91.567755 -44.042812 
L 91.567755 -44.042812 
L 98.514694 -44.042812 
L 98.514694 -44.042812 
L 105.461633 -44.042812 
L 105.461633 -44.042812 
L 112.408571 -44.042812 
L 112.408571 -44.042812 
L 119.35551 -44.042812 
L 119.35551 -44.042812 
L 126.302449 -44.042812 
L 126.302449 -44.042812 
L 133.249388 -44.042812 
L 133.249388 -44.042812 
L 140.196327 -44.042812 
L 140.196327 -44.042812 
L 147.143265 -44.042812 
L 147.143265 -44.042812 
L 154.090204 -44.042812 
L 154.090204 -44.042812 
L 161.037143 -44.042812 
L 161.037143 -44.042812 
L 167.984082 -44.042812 
L 167.984082 -44.042812 
L 174.93102 -44.042812 
L 174.93102 -44.042812 
L 181.877959 -44.042812 
L 181.877959 -44.042812 
L 188.824898 -44.042812 
L 188.824898 -44.042812 
L 195.771837 -44.042812 
L 195.771837 -44.042812 
L 202.718776 -44.042812 
L 202.718776 -44.042812 
L 209.665714 -44.042812 
L 209.665714 -44.042812 
L 216.612653 -44.042812 
L 216.612653 -44.042812 
L 223.559592 -44.042812 
L 223.559592 -44.042812 
L 230.506531 -44.042812 
L 230.506531 -44.042812 
L 237.453469 -44.042812 
L 237.453469 -44.042812 
L 244.400408 -44.042812 
L 244.400408 -44.042812 
L 251.347347 -44.042812 
L 251.347347 -44.042812 
L 258.294286 -44.042812 
L 258.294286 -44.042812 
L 265.241224 -44.042812 
L 265.241224 -44.042812 
L 272.188163 -44.042812 
L 272.188163 -44.042812 
L 279.135102 -44.042812 
L 279.135102 -44.042812 
L 286.082041 -44.042812 
L 286.082041 -44.042812 
L 293.02898 -44.042812 
L 293.02898 -44.042812 
L 299.975918 -44.042812 
L 299.975918 -44.042812 
L 306.922857 -44.042812 
L 306.922857 -44.042812 
L 313.869796 -44.042812 
L 313.869796 -44.042812 
L 320.816735 -44.042812 
L 320.816735 -44.042812 
L 327.763673 -44.042812 
L 327.763673 -44.042812 
L 334.710612 -44.042812 
L 334.710612 -44.042812 
L 341.657551 -44.042812 
L 341.657551 -44.042812 
L 348.60449 -44.042812 
L 348.60449 -44.042812 
L 355.551429 -44.042812 
L 355.551429 -44.042812 
L 362.498367 -44.042812 
L 362.498367 -44.042812 
L 369.445306 -44.042812 
L 369.445306 -44.042812 
L 376.392245 -44.042812 
L 376.392245 -44.042812 
L 383.339184 -44.042812 
L 383.339184 -44.042812 
L 390.286122 -44.042812 
L 390.286122 -44.042812 
L 397.233061 -44.042812 
L 397.233061 -44.042812 
L 404.18 -44.042812 
L 404.18 -44.042812 
L 404.18 -44.042812 
L 404.18 -44.042812 
L 404.18 -44.042812 
L 397.233061 -44.042812 
L 397.233061 -44.042812 
L 390.286122 -44.042812 
L 390.286122 -44.042812 
L 383.339184 -44.042812 
L 383.339184 -44.042812 
L 376.392245 -44.042812 
L 376.392245 -44.042812 
L 369.445306 -44.042812 
L 369.445306 -44.042812 
L 362.498367 -44.042812 
L 362.498367 -44.042812 
L 355.551429 -44.042812 
L 355.551429 -44.042812 
L 348.60449 -44.042812 
L 348.60449 -44.042812 
L 341.657551 -44.042812 
L 341.657551 -44.042812 
L 334.710612 -44.042812 
L 334.710612 -44.042812 
L 327.763673 -44.042812 
L 327.763673 -44.042812 
L 320.816735 -44.042812 
L 320.816735 -44.042812 
L 313.869796 -44.042812 
L 313.869796 -44.042812 
L 306.922857 -44.042812 
L 306.922857 -44.042812 
L 299.975918 -44.042812 
L 299.975918 -44.042812 
L 293.02898 -44.042812 
L 293.02898 -62.394618 
L 286.082041 -62.394618 
L 286.082041 -44.042812 
L 279.135102 -44.042812 
L 279.135102 -44.042812 
L 272.188163 -44.042812 
L 272.188163 -44.042812 
L 265.241224 -44.042812 
L 265.241224 -44.042812 
L 258.294286 -44.042812 
L 258.294286 -44.042812 
L 251.347347 -44.042812 
L 251.347347 -53.218715 
L 244.400408 -53.218715 
L 244.400408 -44.042812 
L 237.453469 -44.042812 
L 237.453469 -44.042812 
L 230.506531 -44.042812 
L 230.506531 -44.042812 
L 223.559592 -44.042812 
L 223.559592 -44.042812 
L 216.612653 -44.042812 
L 216.612653 -62.394618 
L 209.665714 -62.394618 
L 209.665714 -44.042812 
L 202.718776 -44.042812 
L 202.718776 -53.218715 
L 195.771837 -53.218715 
L 195.771837 -117.450035 
L 188.824898 -117.450035 
L 188.824898 -53.218715 
L 181.877959 -53.218715 
L 181.877959 -71.570521 
L 174.93102 -71.570521 
L 174.93102 -80.746424 
L 167.984082 -80.746424 
L 167.984082 -126.625937 
L 161.037143 -126.625937 
L 161.037143 -108.274132 
L 154.090204 -108.274132 
L 154.090204 -126.625937 
L 147.143265 -126.625937 
L 147.143265 -62.394618 
L 140.196327 -62.394618 
L 140.196327 -71.570521 
L 133.249388 -71.570521 
L 133.249388 -53.218715 
L 126.302449 -53.218715 
L 126.302449 -44.042812 
L 119.35551 -44.042812 
L 119.35551 -44.042812 
L 112.408571 -44.042812 
L 112.408571 -44.042812 
L 105.461633 -44.042812 
L 105.461633 -44.042812 
L 98.514694 -44.042812 
L 98.514694 -44.042812 
L 91.567755 -44.042812 
L 91.567755 -44.042812 
L 84.620816 -44.042812 
L 84.620816 -44.042812 
L 77.673878 -44.042812 
L 77.673878 -44.042812 
L 70.726939 -44.042812 
L 70.726939 -44.042812 
L 63.78 -44.042812 
z
" style="stroke: #1f77b4"/>
    </defs>
    <g clip-path="url(#p6a86c5dfe6)">
     <use xlink:href="#m7db53da009" x="0" y="216" style="fill: #1f77b4; fill-opacity: 0.4; stroke: #1f77b4"/>
    </g>
   </g>
   <g id="FillBetweenPolyCollection_2">
    <defs>
     <path id="mfb21d36839" d="M 63.78 -62.394618 
L 63.78 -44.042812 
L 70.726939 -44.042812 
L 70.726939 -44.042812 
L 77.673878 -44.042812 
L 77.673878 -44.042812 
L 84.620816 -44.042812 
L 84.620816 -44.042812 
L 91.567755 -44.042812 
L 91.567755 -44.042812 
L 98.514694 -44.042812 
L 98.514694 -44.042812 
L 105.461633 -44.042812 
L 105.461633 -44.042812 
L 112.408571 -44.042812 
L 112.408571 -44.042812 
L 119.35551 -44.042812 
L 119.35551 -44.042812 
L 126.302449 -44.042812 
L 126.302449 -44.042812 
L 133.249388 -44.042812 
L 133.249388 -44.042812 
L 140.196327 -44.042812 
L 140.196327 -44.042812 
L 147.143265 -44.042812 
L 147.143265 -44.042812 
L 154.090204 -44.042812 
L 154.090204 -44.042812 
L 161.037143 -44.042812 
L 161.037143 -44.042812 
L 167.984082 -44.042812 
L 167.984082 -44.042812 
L 174.93102 -44.042812 
L 174.93102 -44.042812 
L 181.877959 -44.042812 
L 181.877959 -44.042812 
L 188.824898 -44.042812 
L 188.824898 -44.042812 
L 195.771837 -44.042812 
L 195.771837 -44.042812 
L 202.718776 -44.042812 
L 202.718776 -44.042812 
L 209.665714 -44.042812 
L 209.665714 -44.042812 
L 216.612653 -44.042812 
L 216.612653 -44.042812 
L 223.559592 -44.042812 
L 223.559592 -44.042812 
L 230.506531 -44.042812 
L 230.506531 -44.042812 
L 237.453469 -44.042812 
L 237.453469 -44.042812 
L 244.400408 -44.042812 
L 244.400408 -44.042812 
L 251.347347 -44.042812 
L 251.347347 -44.042812 
L 258.294286 -44.042812 
L 258.294286 -44.042812 
L 265.241224 -44.042812 
L 265.241224 -44.042812 
L 272.188163 -44.042812 
L 272.188163 -44.042812 
L 279.135102 -44.042812 
L 279.135102 -44.042812 
L 286.082041 -44.042812 
L 286.082041 -44.042812 
L 293.02898 -44.042812 
L 293.02898 -44.042812 
L 299.975918 -44.042812 
L 299.975918 -44.042812 
L 306.922857 -44.042812 
L 306.922857 -44.042812 
L 313.869796 -44.042812 
L 313.869796 -44.042812 
L 320.816735 -44.042812 
L 320.816735 -44.042812 
L 327.763673 -44.042812 
L 327.763673 -44.042812 
L 334.710612 -44.042812 
L 334.710612 -44.042812 
L 341.657551 -44.042812 
L 341.657551 -44.042812 
L 348.60449 -44.042812 
L 348.60449 -44.042812 
L 355.551429 -44.042812 
L 355.551429 -44.042812 
L 362.498367 -44.042812 
L 362.498367 -44.042812 
L 369.445306 -44.042812 
L 369.445306 -44.042812 
L 376.392245 -44.042812 
L 376.392245 -44.042812 
L 383.339184 -44.042812 
L 383.339184 -44.042812 
L 390.286122 -44.042812 
L 390.286122 -44.042812 
L 397.233061 -44.042812 
L 397.233061 -44.042812 
L 404.18 -44.042812 
L 404.18 -44.042812 
L 404.18 -53.218715 
L 404.18 -53.218715 
L 404.18 -53.218715 
L 397.233061 -53.218715 
L 397.233061 -44.042812 
L 390.286122 -44.042812 
L 390.286122 -44.042812 
L 383.339184 -44.042812 
L 383.339184 -44.042812 
L 376.392245 -44.042812 
L 376.392245 -44.042812 
L 369.445306 -44.042812 
L 369.445306 -44.042812 
L 362.498367 -44.042812 
L 362.498367 -44.042812 
L 355.551429 -44.042812 
L 355.551429 -44.042812 
L 348.60449 -44.042812 
L 348.60449 -44.042812 
L 341.657551 -44.042812 
L 341.657551 -44.042812 
L 334.710612 -44.042812 
L 334.710612 -44.042812 
L 327.763673 -44.042812 
L 327.763673 -44.042812 
L 320.816735 -44.042812 
L 320.816735 -53.218715 
L 313.869796 -53.218715 
L 313.869796 -44.042812 
L 306.922857 -44.042812 
L 306.922857 -44.042812 
L 299.975918 -44.042812 
L 299.975918 -44.042812 
L 293.02898 -44.042812 
L 293.02898 -44.042812 
L 286.082041 -44.042812 
L 286.082041 -44.042812 
L 279.135102 -44.042812 
L 279.135102 -44.042812 
L 272.188163 -44.042812 
L 272.188163 -44.042812 
L 265.241224 -44.042812 
L 265.241224 -44.042812 
L 258.294286 -44.042812 
L 258.294286 -44.042812 
L 251.347347 -44.042812 
L 251.347347 -44.042812 
L 244.400408 -44.042812 
L 244.400408 -44.042812 
L 237.453469 -44.042812 
L 237.453469 -44.042812 
L 230.506531 -44.042812 
L 230.506531 -44.042812 
L 223.559592 -44.042812 
L 223.559592 -44.042812 
L 216.612653 -44.042812 
L 216.612653 -44.042812 
L 209.665714 -44.042812 
L 209.665714 -44.042812 
L 202.718776 -44.042812 
L 202.718776 -44.042812 
L 195.771837 -44.042812 
L 195.771837 -44.042812 
L 188.824898 -44.042812 
L 188.824898 -44.042812 
L 181.877959 -44.042812 
L 181.877959 -62.394618 
L 174.93102 -62.394618 
L 174.93102 -44.042812 
L 167.984082 -44.042812 
L 167.984082 -44.042812 
L 161.037143 -44.042812 
L 161.037143 -44.042812 
L 154.090204 -44.042812 
L 154.090204 -44.042812 
L 147.143265 -44.042812 
L 147.143265 -71.570521 
L 140.196327 -71.570521 
L 140.196327 -53.218715 
L 133.249388 -53.218715 
L 133.249388 -53.218715 
L 126.302449 -53.218715 
L 126.302449 -53.218715 
L 119.35551 -53.218715 
L 119.35551 -89.922326 
L 112.408571 -89.922326 
L 112.408571 -62.394618 
L 105.461633 -62.394618 
L 105.461633 -117.450035 
L 98.514694 -117.450035 
L 98.514694 -181.681354 
L 91.567755 -181.681354 
L 91.567755 -62.394618 
L 84.620816 -62.394618 
L 84.620816 -44.042812 
L 77.673878 -44.042812 
L 77.673878 -181.681354 
L 70.726939 -181.681354 
L 70.726939 -62.394618 
L 63.78 -62.394618 
z
" style="stroke: #ff7f0e"/>
    </defs>
    <g clip-path="url(#p6a86c5dfe6)">
     <use xlink:href="#mfb21d36839" x="0" y="216" style="fill: #ff7f0e; fill-opacity: 0.4; stroke: #ff7f0e"/>
    </g>
   </g>
   <g id="FillBetweenPolyCollection_3">
    <defs>
     <path id="m6493222dc2" d="M 63.78 -126.625937 
L 63.78 -44.042812 
L 70.726939 -44.042812 
L 70.726939 -44.042812 
L 77.673878 -44.042812 
L 77.673878 -44.042812 
L 84.620816 -44.042812 
L 84.620816 -44.042812 
L 91.567755 -44.042812 
L 91.567755 -44.042812 
L 98.514694 -44.042812 
L 98.514694 -44.042812 
L 105.461633 -44.042812 
L 105.461633 -44.042812 
L 112.408571 -44.042812 
L 112.408571 -44.042812 
L 119.35551 -44.042812 
L 119.35551 -44.042812 
L 126.302449 -44.042812 
L 126.302449 -44.042812 
L 133.249388 -44.042812 
L 133.249388 -44.042812 
L 140.196327 -44.042812 
L 140.196327 -44.042812 
L 147.143265 -44.042812 
L 147.143265 -44.042812 
L 154.090204 -44.042812 
L 154.090204 -44.042812 
L 161.037143 -44.042812 
L 161.037143 -44.042812 
L 167.984082 -44.042812 
L 167.984082 -44.042812 
L 174.93102 -44.042812 
L 174.93102 -44.042812 
L 181.877959 -44.042812 
L 181.877959 -44.042812 
L 188.824898 -44.042812 
L 188.824898 -44.042812 
L 195.771837 -44.042812 
L 195.771837 -44.042812 
L 202.718776 -44.042812 
L 202.718776 -44.042812 
L 209.665714 -44.042812 
L 209.665714 -44.042812 
L 216.612653 -44.042812 
L 216.612653 -44.042812 
L 223.559592 -44.042812 
L 223.559592 -44.042812 
L 230.506531 -44.042812 
L 230.506531 -44.042812 
L 237.453469 -44.042812 
L 237.453469 -44.042812 
L 244.400408 -44.042812 
L 244.400408 -44.042812 
L 251.347347 -44.042812 
L 251.347347 -44.042812 
L 258.294286 -44.042812 
L 258.294286 -44.042812 
L 265.241224 -44.042812 
L 265.241224 -44.042812 
L 272.188163 -44.042812 
L 272.188163 -44.042812 
L 279.135102 -44.042812 
L 279.135102 -44.042812 
L 286.082041 -44.042812 
L 286.082041 -44.042812 
L 293.02898 -44.042812 
L 293.02898 -44.042812 
L 299.975918 -44.042812 
L 299.975918 -44.042812 
L 306.922857 -44.042812 
L 306.922857 -44.042812 
L 313.869796 -44.042812 
L 313.869796 -44.042812 
L 320.816735 -44.042812 
L 320.816735 -44.042812 
L 327.763673 -44.042812 
L 327.763673 -44.042812 
L 334.710612 -44.042812 
L 334.710612 -44.042812 
L 341.657551 -44.042812 
L 341.657551 -44.042812 
L 348.60449 -44.042812 
L 348.60449 -44.042812 
L 355.551429 -44.042812 
L 355.551429 -44.042812 
L 362.498367 -44.042812 
L 362.498367 -44.042812 
L 369.445306 -44.042812 
L 369.445306 -44.042812 
L 376.392245 -44.042812 
L 376.392245 -44.042812 
L 383.339184 -44.042812 
L 383.339184 -44.042812 
L 390.286122 -44.042812 
L 390.286122 -44.042812 
L 397.233061 -44.042812 
L 397.233061 -44.042812 
L 404.18 -44.042812 
L 404.18 -44.042812 
L 404.18 -44.042812 
L 404.18 -44.042812 
L 404.18 -44.042812 
L 397.233061 -44.042812 
L 397.233061 -44.042812 
L 390.286122 -44.042812 
L 390.286122 -44.042812 
L 383.339184 -44.042812 
L 383.339184 -44.042812 
L 376.392245 -44.042812 
L 376.392245 -44.042812 
L 369.445306 -44.042812 
L 369.445306 -44.042812 
L 362.498367 -44.042812 
L 362.498367 -44.042812 
L 355.551429 -44.042812 
L 355.551429 -44.042812 
L 348.60449 -44.042812 
L 348.60449 -44.042812 
L 341.657551 -44.042812 
L 341.657551 -44.042812 
L 334.710612 -44.042812 
L 334.710612 -44.042812 
L 327.763673 -44.042812 
L 327.763673 -44.042812 
L 320.816735 -44.042812 
L 320.816735 -44.042812 
L 313.869796 -44.042812 
L 313.869796 -44.042812 
L 306.922857 -44.042812 
L 306.922857 -44.042812 
L 299.975918 -44.042812 
L 299.975918 -44.042812 
L 293.02898 -44.042812 
L 293.02898 -44.042812 
L 286.082041 -44.042812 
L 286.082041 -44.042812 
L 279.135102 -44.042812 
L 279.135102 -44.042812 
L 272.188163 -44.042812 
L 272.188163 -44.042812 
L 265.241224 -44.042812 
L 265.241224 -44.042812 
L 258.294286 -44.042812 
L 258.294286 -44.042812 
L 251.347347 -44.042812 
L 251.347347 -44.042812 
L 244.400408 -44.042812 
L 244.400408 -44.042812 
L 237.453469 -44.042812 
L 237.453469 -44.042812 
L 230.506531 -44.042812 
L 230.506531 -44.042812 
L 223.559592 -44.042812 
L 223.559592 -44.042812 
L 216.612653 -44.042812 
L 216.612653 -44.042812 
L 209.665714 -44.042812 
L 209.665714 -44.042812 
L 202.718776 -44.042812 
L 202.718776 -44.042812 
L 195.771837 -44.042812 
L 195.771837 -44.042812 
L 188.824898 -44.042812 
L 188.824898 -44.042812 
L 181.877959 -44.042812 
L 181.877959 -44.042812 
L 174.93102 -44.042812 
L 174.93102 -44.042812 
L 167.984082 -44.042812 
L 167.984082 -44.042812 
L 161.037143 -44.042812 
L 161.037143 -44.042812 
L 154.090204 -44.042812 
L 154.090204 -44.042812 
L 147.143265 -44.042812 
L 147.143265 -44.042812 
L 140.196327 -44.042812 
L 140.196327 -53.218715 
L 133.249388 -53.218715 
L 133.249388 -44.042812 
L 126.302449 -44.042812 
L 126.302449 -44.042812 
L 119.35551 -44.042812 
L 119.35551 -44.042812 
L 112.408571 -44.042812 
L 112.408571 -71.570521 
L 105.461633 -71.570521 
L 105.461633 -53.218715 
L 98.514694 -53.218715 
L 98.514694 -53.218715 
L 91.567755 -53.218715 
L 91.567755 -108.274132 
L 84.620816 -108.274132 
L 84.620816 -44.042812 
L 77.673878 -44.042812 
L 77.673878 -44.042812 
L 70.726939 -44.042812 
L 70.726939 -126.625937 
L 63.78 -126.625937 
z
" style="stroke: #2ca02c"/>
    </defs>
    <g clip-path="url(#p6a86c5dfe6)">
     <use xlink:href="#m6493222dc2" x="0" y="216" style="fill: #2ca02c; fill-opacity: 0.4; stroke: #2ca02c"/>
    </g>
   </g>
   <g id="matplotlib.axis_1">
    <g id="xtick_1">
     <g id="line2d_1">
      <path d="M 79.190463 171.957188 
L 79.190463 27.436719 
" clip-path="url(#p6a86c5dfe6)" style="fill: none; stroke: #b0b0b0; stroke-opacity: 0.3; stroke-width: 0.8; stroke-linecap: square"/>
     </g>
     <g id="line2d_2">
      <defs>
       <path id="m895cbc795b" d="M 0 0 
L 0 3.5 
" style="stroke: #000000; stroke-width: 0.8"/>
      </defs>
      <g>
       <use xlink:href="#m895cbc795b" x="79.190463" y="171.957188" style="stroke: #000000; stroke-width: 0.8"/>
      </g>
     </g>
     <g id="text_1">
      <!-- 1.6 -->
      <g transform="translate(71.2389 186.554844) scale(0.1 -0.1)">
       <defs>
        <path id="DejaVuSans-14" d="M 794 531 
L 1825 531 
L 1825 4091 
L 703 3866 
L 703 4441 
L 1819 4666 
L 2450 4666 
L 2450 531 
L 3481 531 
L 3481 0 
L 794 0 
L 794 531 
z
" transform="scale(0.015625)"/>
        <path id="DejaVuSans-11" d="M 684 794 
L 1344 794 
L 1344 0 
L 684 0 
L 684 794 
z
" transform="scale(0.015625)"/>
        <path id="DejaVuSans-19" d="M 2113 2584 
Q 1688 2584 1439 2293 
Q 1191 2003 1191 1497 
Q 1191 994 1439 701 
Q 1688 409 2113 409 
Q 2538 409 2786 701 
Q 3034 994 3034 1497 
Q 3034 2003 2786 2293 
Q 2538 2584 2113 2584 
z
M 3366 4563 
L 3366 3988 
Q 3128 4100 2886 4159 
Q 2644 4219 2406 4219 
Q 1781 4219 1451 3797 
Q 1122 3375 1075 2522 
Q 1259 2794 1537 2939 
Q 1816 3084 2150 3084 
Q 2853 3084 3261 2657 
Q 3669 2231 3669 1497 
Q 3669 778 3244 343 
Q 2819 -91 2113 -91 
Q 1303 -91 875 529 
Q 447 1150 447 2328 
Q 447 3434 972 4092 
Q 1497 4750 2381 4750 
Q 2619 4750 2861 4703 
Q 3103 4656 3366 4563 
z
" transform="scale(0.015625)"/>
       </defs>
       <use xlink:href="#DejaVuSans-14"/>
       <use xlink:href="#DejaVuSans-11" transform="translate(63.625 0)"/>
       <use xlink:href="#DejaVuSans-19" transform="translate(95.40625 0)"/>
      </g>
     </g>
    </g>
    <g id="xtick_2">
     <g id="line2d_3">
      <path d="M 147.681408 171.957188 
L 147.681408 27.436719 
" clip-path="url(#p6a86c5dfe6)" style="fill: none; stroke: #b0b0b0; stroke-opacity: 0.3; stroke-width: 0.8; stroke-linecap: square"/>
     </g>
     <g id="line2d_4">
      <g>
       <use xlink:href="#m895cbc795b" x="147.681408" y="171.957188" style="stroke: #000000; stroke-width: 0.8"/>
      </g>
     </g>
     <g id="text_2">
      <!-- 1.8 -->
      <g transform="translate(139.729846 186.554844) scale(0.1 -0.1)">
       <defs>
        <path id="DejaVuSans-1b" d="M 2034 2216 
Q 1584 2216 1326 1975 
Q 1069 1734 1069 1313 
Q 1069 891 1326 650 
Q 1584 409 2034 409 
Q 2484 409 2743 651 
Q 3003 894 3003 1313 
Q 3003 1734 2745 1975 
Q 2488 2216 2034 2216 
z
M 1403 2484 
Q 997 2584 770 2862 
Q 544 3141 544 3541 
Q 544 4100 942 4425 
Q 1341 4750 2034 4750 
Q 2731 4750 3128 4425 
Q 3525 4100 3525 3541 
Q 3525 3141 3298 2862 
Q 3072 2584 2669 2484 
Q 3125 2378 3379 2068 
Q 3634 1759 3634 1313 
Q 3634 634 3220 271 
Q 2806 -91 2034 -91 
Q 1263 -91 848 271 
Q 434 634 434 1313 
Q 434 1759 690 2068 
Q 947 2378 1403 2484 
z
M 1172 3481 
Q 1172 3119 1398 2916 
Q 1625 2713 2034 2713 
Q 2441 2713 2670 2916 
Q 2900 3119 2900 3481 
Q 2900 3844 2670 4047 
Q 2441 4250 2034 4250 
Q 1625 4250 1398 4047 
Q 1172 3844 1172 3481 
z
" transform="scale(0.015625)"/>
       </defs>
       <use xlink:href="#DejaVuSans-14"/>
       <use xlink:href="#DejaVuSans-11" transform="translate(63.625 0)"/>
       <use xlink:href="#DejaVuSans-1b" transform="translate(95.40625 0)"/>
      </g>
     </g>
    </g>
    <g id="xtick_3">
     <g id="line2d_5">
      <path d="M 216.172354 171.957188 
L 216.172354 27.436719 
" clip-path="url(#p6a86c5dfe6)" style="fill: none; stroke: #b0b0b0; stroke-opacity: 0.3; stroke-width: 0.8; stroke-linecap: square"/>
     </g>
     <g id="line2d_6">
      <g>
       <use xlink:href="#m895cbc795b" x="216.172354" y="171.957188" style="stroke: #000000; stroke-width: 0.8"/>
      </g>
     </g>
     <g id="text_3">
      <!-- 2.0 -->
      <g transform="translate(208.220792 186.554844) scale(0.1 -0.1)">
       <defs>
        <path id="DejaVuSans-15" d="M 1228 531 
L 3431 531 
L 3431 0 
L 469 0 
L 469 531 
Q 828 903 1448 1529 
Q 2069 2156 2228 2338 
Q 2531 2678 2651 2914 
Q 2772 3150 2772 3378 
Q 2772 3750 2511 3984 
Q 2250 4219 1831 4219 
Q 1534 4219 1204 4116 
Q 875 4013 500 3803 
L 500 4441 
Q 881 4594 1212 4672 
Q 1544 4750 1819 4750 
Q 2544 4750 2975 4387 
Q 3406 4025 3406 3419 
Q 3406 3131 3298 2873 
Q 3191 2616 2906 2266 
Q 2828 2175 2409 1742 
Q 1991 1309 1228 531 
z
" transform="scale(0.015625)"/>
        <path id="DejaVuSans-13" d="M 2034 4250 
Q 1547 4250 1301 3770 
Q 1056 3291 1056 2328 
Q 1056 1369 1301 889 
Q 1547 409 2034 409 
Q 2525 409 2770 889 
Q 3016 1369 3016 2328 
Q 3016 3291 2770 3770 
Q 2525 4250 2034 4250 
z
M 2034 4750 
Q 2819 4750 3233 4129 
Q 3647 3509 3647 2328 
Q 3647 1150 3233 529 
Q 2819 -91 2034 -91 
Q 1250 -91 836 529 
Q 422 1150 422 2328 
Q 422 3509 836 4129 
Q 1250 4750 2034 4750 
z
" transform="scale(0.015625)"/>
       </defs>
       <use xlink:href="#DejaVuSans-15"/>
       <use xlink:href="#DejaVuSans-11" transform="translate(63.625 0)"/>
       <use xlink:href="#DejaVuSans-13" transform="translate(95.40625 0)"/>
      </g>
     </g>
    </g>
    <g id="xtick_4">
     <g id="line2d_7">
      <path d="M 284.6633 171.957188 
L 284.6633 27.436719 
" clip-path="url(#p6a86c5dfe6)" style="fill: none; stroke: #b0b0b0; stroke-opacity: 0.3; stroke-width: 0.8; stroke-linecap: square"/>
     </g>
     <g id="line2d_8">
      <g>
       <use xlink:href="#m895cbc795b" x="284.6633" y="171.957188" style="stroke: #000000; stroke-width: 0.8"/>
      </g>
     </g>
     <g id="text_4">
      <!-- 2.2 -->
      <g transform="translate(276.711737 186.554844) scale(0.1 -0.1)">
       <use xlink:href="#DejaVuSans-15"/>
       <use xlink:href="#DejaVuSans-11" transform="translate(63.625 0)"/>
       <use xlink:href="#DejaVuSans-15" transform="translate(95.40625 0)"/>
      </g>
     </g>
    </g>
    <g id="xtick_5">
     <g id="line2d_9">
      <path d="M 353.154245 171.957188 
L 353.154245 27.436719 
" clip-path="url(#p6a86c5dfe6)" style="fill: none; stroke: #b0b0b0; stroke-opacity: 0.3; stroke-width: 0.8; stroke-linecap: square"/>
     </g>
     <g id="line2d_10">
      <g>
       <use xlink:href="#m895cbc795b" x="353.154245" y="171.957188" style="stroke: #000000; stroke-width: 0.8"/>
      </g>
     </g>
     <g id="text_5">
      <!-- 2.4 -->
      <g transform="translate(345.202683 186.554844) scale(0.1 -0.1)">
       <defs>
        <path id="DejaVuSans-17" d="M 2419 4116 
L 825 1625 
L 2419 1625 
L 2419 4116 
z
M 2253 4666 
L 3047 4666 
L 3047 1625 
L 3713 1625 
L 3713 1100 
L 3047 1100 
L 3047 0 
L 2419 0 
L 2419 1100 
L 313 1100 
L 313 1709 
L 2253 4666 
z
" transform="scale(0.015625)"/>
       </defs>
       <use xlink:href="#DejaVuSans-15"/>
       <use xlink:href="#DejaVuSans-11" transform="translate(63.625 0)"/>
       <use xlink:href="#DejaVuSans-17" transform="translate(95.40625 0)"/>
      </g>
     </g>
    </g>
    <g id="text_6">
     <!-- Price ($/L) -->
     <g transform="translate(203.572188 202.075312) scale(0.12 -0.12)">
      <defs>
       <path id="DejaVuSans-33" d="M 1259 4147 
L 1259 2394 
L 2053 2394 
Q 2494 2394 2734 2622 
Q 2975 2850 2975 3272 
Q 2975 3691 2734 3919 
Q 2494 4147 2053 4147 
L 1259 4147 
z
M 628 4666 
L 2053 4666 
Q 2838 4666 3239 4311 
Q 3641 3956 3641 3272 
Q 3641 2581 3239 2228 
Q 2838 1875 2053 1875 
L 1259 1875 
L 1259 0 
L 628 0 
L 628 4666 
z
" transform="scale(0.015625)"/>
       <path id="DejaVuSans-55" d="M 2631 2963 
Q 2534 3019 2420 3045 
Q 2306 3072 2169 3072 
Q 1681 3072 1420 2755 
Q 1159 2438 1159 1844 
L 1159 0 
L 581 0 
L 581 3500 
L 1159 3500 
L 1159 2956 
Q 1341 3275 1631 3429 
Q 1922 3584 2338 3584 
Q 2397 3584 2469 3576 
Q 2541 3569 2628 3553 
L 2631 2963 
z
" transform="scale(0.015625)"/>
       <path id="DejaVuSans-4c" d="M 603 3500 
L 1178 3500 
L 1178 0 
L 603 0 
L 603 3500 
z
M 603 4863 
L 1178 4863 
L 1178 4134 
L 603 4134 
L 603 4863 
z
" transform="scale(0.015625)"/>
       <path id="DejaVuSans-46" d="M 3122 3366 
L 3122 2828 
Q 2878 2963 2633 3030 
Q 2388 3097 2138 3097 
Q 1578 3097 1268 2742 
Q 959 2388 959 1747 
Q 959 1106 1268 751 
Q 1578 397 2138 397 
Q 2388 397 2633 464 
Q 2878 531 3122 666 
L 3122 134 
Q 2881 22 2623 -34 
Q 2366 -91 2075 -91 
Q 1284 -91 818 406 
Q 353 903 353 1747 
Q 353 2603 823 3093 
Q 1294 3584 2113 3584 
Q 2378 3584 2631 3529 
Q 2884 3475 3122 3366 
z
" transform="scale(0.015625)"/>
       <path id="DejaVuSans-48" d="M 3597 1894 
L 3597 1613 
L 953 1613 
Q 991 1019 1311 708 
Q 1631 397 2203 397 
Q 2534 397 2845 478 
Q 3156 559 3463 722 
L 3463 178 
Q 3153 47 2828 -22 
Q 2503 -91 2169 -91 
Q 1331 -91 842 396 
Q 353 884 353 1716 
Q 353 2575 817 3079 
Q 1281 3584 2069 3584 
Q 2775 3584 3186 3129 
Q 3597 2675 3597 1894 
z
M 3022 2063 
Q 3016 2534 2758 2815 
Q 2500 3097 2075 3097 
Q 1594 3097 1305 2825 
Q 1016 2553 972 2059 
L 3022 2063 
z
" transform="scale(0.015625)"/>
       <path id="DejaVuSans-3" transform="scale(0.015625)"/>
       <path id="DejaVuSans-b" d="M 1984 4856 
Q 1566 4138 1362 3434 
Q 1159 2731 1159 2009 
Q 1159 1288 1364 580 
Q 1569 -128 1984 -844 
L 1484 -844 
Q 1016 -109 783 600 
Q 550 1309 550 2009 
Q 550 2706 781 3412 
Q 1013 4119 1484 4856 
L 1984 4856 
z
" transform="scale(0.015625)"/>
       <path id="DejaVuSans-7" d="M 2163 -941 
L 1850 -941 
L 1847 0 
Q 1519 6 1191 76 
Q 863 147 531 288 
L 531 850 
Q 850 650 1176 548 
Q 1503 447 1850 444 
L 1850 1869 
Q 1159 1981 845 2250 
Q 531 2519 531 2988 
Q 531 3497 872 3790 
Q 1213 4084 1850 4128 
L 1850 4863 
L 2163 4863 
L 2163 4138 
Q 2453 4125 2725 4076 
Q 2997 4028 3256 3944 
L 3256 3397 
Q 2997 3528 2723 3600 
Q 2450 3672 2163 3684 
L 2163 2350 
Q 2872 2241 3206 1959 
Q 3541 1678 3541 1191 
Q 3541 663 3186 358 
Q 2831 53 2163 6 
L 2163 -941 
z
M 1850 2406 
L 1850 3688 
Q 1488 3647 1297 3481 
Q 1106 3316 1106 3041 
Q 1106 2772 1282 2622 
Q 1459 2472 1850 2406 
z
M 2163 1806 
L 2163 453 
Q 2559 506 2761 678 
Q 2963 850 2963 1131 
Q 2963 1406 2770 1568 
Q 2578 1731 2163 1806 
z
" transform="scale(0.015625)"/>
       <path id="DejaVuSans-12" d="M 1625 4666 
L 2156 4666 
L 531 -594 
L 0 -594 
L 1625 4666 
z
" transform="scale(0.015625)"/>
       <path id="DejaVuSans-2f" d="M 628 4666 
L 1259 4666 
L 1259 531 
L 3531 531 
L 3531 0 
L 628 0 
L 628 4666 
z
" transform="scale(0.015625)"/>
       <path id="DejaVuSans-c" d="M 513 4856 
L 1013 4856 
Q 1481 4119 1714 3412 
Q 1947 2706 1947 2009 
Q 1947 1309 1714 600 
Q 1481 -109 1013 -844 
L 513 -844 
Q 928 -128 1133 580 
Q 1338 1288 1338 2009 
Q 1338 2731 1133 3434 
Q 928 4138 513 4856 
z
" transform="scale(0.015625)"/>
      </defs>
      <use xlink:href="#DejaVuSans-33"/>
      <use xlink:href="#DejaVuSans-55" transform="translate(58.546875 0)"/>
      <use xlink:href="#DejaVuSans-4c" transform="translate(99.65625 0)"/>
      <use xlink:href="#DejaVuSans-46" transform="translate(127.4375 0)"/>
      <use xlink:href="#DejaVuSans-48" transform="translate(182.421875 0)"/>
      <use xlink:href="#DejaVuSans-3" transform="translate(243.953125 0)"/>
      <use xlink:href="#DejaVuSans-b" transform="translate(275.734375 0)"/>
      <use xlink:href="#DejaVuSans-7" transform="translate(314.75 0)"/>
      <use xlink:href="#DejaVuSans-12" transform="translate(378.375 0)"/>
      <use xlink:href="#DejaVuSans-2f" transform="translate(412.0625 0)"/>
      <use xlink:href="#DejaVuSans-c" transform="translate(467.78125 0)"/>
     </g>
    </g>
   </g>
   <g id="matplotlib.axis_2">
    <g id="ytick_1">
     <g id="line2d_11">
      <path d="M 46.76 171.957188 
L 421.2 171.957188 
" clip-path="url(#p6a86c5dfe6)" style="fill: none; stroke: #b0b0b0; stroke-opacity: 0.3; stroke-width: 0.8; stroke-linecap: square"/>
     </g>
     <g id="line2d_12">
      <defs>
       <path id="m13382e5684" d="M 0 0 
L -3.5 0 
" style="stroke: #000000; stroke-width: 0.8"/>
      </defs>
      <g>
       <use xlink:href="#m13382e5684" x="46.76" y="171.957188" style="stroke: #000000; stroke-width: 0.8"/>
      </g>
     </g>
     <g id="text_7">
      <!-- 0.0 -->
      <g transform="translate(23.856875 175.756016) scale(0.1 -0.1)">
       <use xlink:href="#DejaVuSans-13"/>
       <use xlink:href="#DejaVuSans-11" transform="translate(63.625 0)"/>
       <use xlink:href="#DejaVuSans-13" transform="translate(95.40625 0)"/>
      </g>
     </g>
    </g>
    <g id="ytick_2">
     <g id="line2d_13">
      <path d="M 46.76 149.017431 
L 421.2 149.017431 
" clip-path="url(#p6a86c5dfe6)" style="fill: none; stroke: #b0b0b0; stroke-opacity: 0.3; stroke-width: 0.8; stroke-linecap: square"/>
     </g>
     <g id="line2d_14">
      <g>
       <use xlink:href="#m13382e5684" x="46.76" y="149.017431" style="stroke: #000000; stroke-width: 0.8"/>
      </g>
     </g>
     <g id="text_8">
      <!-- 2.5 -->
      <g transform="translate(23.856875 152.816259) scale(0.1 -0.1)">
       <defs>
        <path id="DejaVuSans-18" d="M 691 4666 
L 3169 4666 
L 3169 4134 
L 1269 4134 
L 1269 2991 
Q 1406 3038 1543 3061 
Q 1681 3084 1819 3084 
Q 2600 3084 3056 2656 
Q 3513 2228 3513 1497 
Q 3513 744 3044 326 
Q 2575 -91 1722 -91 
Q 1428 -91 1123 -41 
Q 819 9 494 109 
L 494 744 
Q 775 591 1075 516 
Q 1375 441 1709 441 
Q 2250 441 2565 725 
Q 2881 1009 2881 1497 
Q 2881 1984 2565 2268 
Q 2250 2553 1709 2553 
Q 1456 2553 1204 2497 
Q 953 2441 691 2322 
L 691 4666 
z
" transform="scale(0.015625)"/>
       </defs>
       <use xlink:href="#DejaVuSans-15"/>
       <use xlink:href="#DejaVuSans-11" transform="translate(63.625 0)"/>
       <use xlink:href="#DejaVuSans-18" transform="translate(95.40625 0)"/>
      </g>
     </g>
    </g>
    <g id="ytick_3">
     <g id="line2d_15">
      <path d="M 46.76 126.077674 
L 421.2 126.077674 
" clip-path="url(#p6a86c5dfe6)" style="fill: none; stroke: #b0b0b0; stroke-opacity: 0.3; stroke-width: 0.8; stroke-linecap: square"/>
     </g>
     <g id="line2d_16">
      <g>
       <use xlink:href="#m13382e5684" x="46.76" y="126.077674" style="stroke: #000000; stroke-width: 0.8"/>
      </g>
     </g>
     <g id="text_9">
      <!-- 5.0 -->
      <g transform="translate(23.856875 129.876502) scale(0.1 -0.1)">
       <use xlink:href="#DejaVuSans-18"/>
       <use xlink:href="#DejaVuSans-11" transform="translate(63.625 0)"/>
       <use xlink:href="#DejaVuSans-13" transform="translate(95.40625 0)"/>
      </g>
     </g>
    </g>
    <g id="ytick_4">
     <g id="line2d_17">
      <path d="M 46.76 103.137917 
L 421.2 103.137917 
" clip-path="url(#p6a86c5dfe6)" style="fill: none; stroke: #b0b0b0; stroke-opacity: 0.3; stroke-width: 0.8; stroke-linecap: square"/>
     </g>
     <g id="line2d_18">
      <g>
       <use xlink:href="#m13382e5684" x="46.76" y="103.137917" style="stroke: #000000; stroke-width: 0.8"/>
      </g>
     </g>
     <g id="text_10">
      <!-- 7.5 -->
      <g transform="translate(23.856875 106.936745) scale(0.1 -0.1)">
       <defs>
        <path id="DejaVuSans-1a" d="M 525 4666 
L 3525 4666 
L 3525 4397 
L 1831 0 
L 1172 0 
L 2766 4134 
L 525 4134 
L 525 4666 
z
" transform="scale(0.015625)"/>
       </defs>
       <use xlink:href="#DejaVuSans-1a"/>
       <use xlink:href="#DejaVuSans-11" transform="translate(63.625 0)"/>
       <use xlink:href="#DejaVuSans-18" transform="translate(95.40625 0)"/>
      </g>
     </g>
    </g>
    <g id="ytick_5">
     <g id="line2d_19">
      <path d="M 46.76 80.19816 
L 421.2 80.19816 
" clip-path="url(#p6a86c5dfe6)" style="fill: none; stroke: #b0b0b0; stroke-opacity: 0.3; stroke-width: 0.8; stroke-linecap: square"/>
     </g>
     <g id="line2d_20">
      <g>
       <use xlink:href="#m13382e5684" x="46.76" y="80.19816" style="stroke: #000000; stroke-width: 0.8"/>
      </g>
     </g>
     <g id="text_11">
      <!-- 10.0 -->
      <g transform="translate(17.494375 83.996988) scale(0.1 -0.1)">
       <use xlink:href="#DejaVuSans-14"/>
       <use xlink:href="#DejaVuSans-13" transform="translate(63.625 0)"/>
       <use xlink:href="#DejaVuSans-11" transform="translate(127.25 0)"/>
       <use xlink:href="#DejaVuSans-13" transform="translate(159.03125 0)"/>
      </g>
     </g>
    </g>
    <g id="ytick_6">
     <g id="line2d_21">
      <path d="M 46.76 57.258403 
L 421.2 57.258403 
" clip-path="url(#p6a86c5dfe6)" style="fill: none; stroke: #b0b0b0; stroke-opacity: 0.3; stroke-width: 0.8; stroke-linecap: square"/>
     </g>
     <g id="line2d_22">
      <g>
       <use xlink:href="#m13382e5684" x="46.76" y="57.258403" style="stroke: #000000; stroke-width: 0.8"/>
      </g>
     </g>
     <g id="text_12">
      <!-- 12.5 -->
      <g transform="translate(17.494375 61.057231) scale(0.1 -0.1)">
       <use xlink:href="#DejaVuSans-14"/>
       <use xlink:href="#DejaVuSans-15" transform="translate(63.625 0)"/>
       <use xlink:href="#DejaVuSans-11" transform="translate(127.25 0)"/>
       <use xlink:href="#DejaVuSans-18" transform="translate(159.03125 0)"/>
      </g>
     </g>
    </g>
    <g id="ytick_7">
     <g id="line2d_23">
      <path d="M 46.76 34.318646 
L 421.2 34.318646 
" clip-path="url(#p6a86c5dfe6)" style="fill: none; stroke: #b0b0b0; stroke-opacity: 0.3; stroke-width: 0.8; stroke-linecap: square"/>
     </g>
     <g id="line2d_24">
      <g>
       <use xlink:href="#m13382e5684" x="46.76" y="34.318646" style="stroke: #000000; stroke-width: 0.8"/>
      </g>
     </g>
     <g id="text_13">
      <!-- 15.0 -->
      <g transform="translate(17.494375 38.117474) scale(0.1 -0.1)">
       <use xlink:href="#DejaVuSans-14"/>
       <use xlink:href="#DejaVuSans-18" transform="translate(63.625 0)"/>
       <use xlink:href="#DejaVuSans-11" transform="translate(127.25 0)"/>
       <use xlink:href="#DejaVuSans-13" transform="translate(159.03125 0)"/>
      </g>
     </g>
    </g>
    <g id="text_14">
     <!-- Frequency -->
     <g transform="translate(10.611563 130.693516) rotate(-90) scale(0.12 -0.12)">
      <defs>
       <path id="DejaVuSans-29" d="M 628 4666 
L 3309 4666 
L 3309 4134 
L 1259 4134 
L 1259 2759 
L 3109 2759 
L 3109 2228 
L 1259 2228 
L 1259 0 
L 628 0 
L 628 4666 
z
" transform="scale(0.015625)"/>
       <path id="DejaVuSans-54" d="M 947 1747 
Q 947 1113 1208 752 
Q 1469 391 1925 391 
Q 2381 391 2643 752 
Q 2906 1113 2906 1747 
Q 2906 2381 2643 2742 
Q 2381 3103 1925 3103 
Q 1469 3103 1208 2742 
Q 947 2381 947 1747 
z
M 2906 525 
Q 2725 213 2448 61 
Q 2172 -91 1784 -91 
Q 1150 -91 751 415 
Q 353 922 353 1747 
Q 353 2572 751 3078 
Q 1150 3584 1784 3584 
Q 2172 3584 2448 3432 
Q 2725 3281 2906 2969 
L 2906 3500 
L 3481 3500 
L 3481 -1331 
L 2906 -1331 
L 2906 525 
z
" transform="scale(0.015625)"/>
       <path id="DejaVuSans-58" d="M 544 1381 
L 544 3500 
L 1119 3500 
L 1119 1403 
Q 1119 906 1312 657 
Q 1506 409 1894 409 
Q 2359 409 2629 706 
Q 2900 1003 2900 1516 
L 2900 3500 
L 3475 3500 
L 3475 0 
L 2900 0 
L 2900 538 
Q 2691 219 2414 64 
Q 2138 -91 1772 -91 
Q 1169 -91 856 284 
Q 544 659 544 1381 
z
M 1991 3584 
L 1991 3584 
z
" transform="scale(0.015625)"/>
       <path id="DejaVuSans-51" d="M 3513 2113 
L 3513 0 
L 2938 0 
L 2938 2094 
Q 2938 2591 2744 2837 
Q 2550 3084 2163 3084 
Q 1697 3084 1428 2787 
Q 1159 2491 1159 1978 
L 1159 0 
L 581 0 
L 581 3500 
L 1159 3500 
L 1159 2956 
Q 1366 3272 1645 3428 
Q 1925 3584 2291 3584 
Q 2894 3584 3203 3211 
Q 3513 2838 3513 2113 
z
" transform="scale(0.015625)"/>
       <path id="DejaVuSans-5c" d="M 2059 -325 
Q 1816 -950 1584 -1140 
Q 1353 -1331 966 -1331 
L 506 -1331 
L 506 -850 
L 844 -850 
Q 1081 -850 1212 -737 
Q 1344 -625 1503 -206 
L 1606 56 
L 191 3500 
L 800 3500 
L 1894 763 
L 2988 3500 
L 3597 3500 
L 2059 -325 
z
" transform="scale(0.015625)"/>
      </defs>
      <use xlink:href="#DejaVuSans-29"/>
      <use xlink:href="#DejaVuSans-55" transform="translate(50.234375 0)"/>
      <use xlink:href="#DejaVuSans-48" transform="translate(89.140625 0)"/>
      <use xlink:href="#DejaVuSans-54" transform="translate(150.671875 0)"/>
      <use xlink:href="#DejaVuSans-58" transform="translate(214.15625 0)"/>
      <use xlink:href="#DejaVuSans-48" transform="translate(277.53125 0)"/>
      <use xlink:href="#DejaVuSans-51" transform="translate(339.0625 0)"/>
      <use xlink:href="#DejaVuSans-46" transform="translate(402.4375 0)"/>
      <use xlink:href="#DejaVuSans-5c" transform="translate(457.421875 0)"/>
     </g>
    </g>
   </g>
   <g id="line2d_25">
    <path d="M 130.216217 154.434543 
L 133.451468 149.933327 
L 137.495531 143.848217 
L 143.15722 135.321948 
L 145.583658 131.99514 
L 148.010096 129.033009 
L 149.627722 127.310171 
L 151.245347 125.81694 
L 152.862972 124.57133 
L 154.480598 123.585395 
L 156.098223 122.864974 
L 157.715848 122.409699 
L 159.333474 122.213242 
L 160.951099 122.263795 
L 162.568724 122.544727 
L 164.18635 123.035402 
L 165.803975 123.71209 
L 168.230413 125.019067 
L 170.656851 126.595474 
L 173.892102 128.9642 
L 187.641917 139.381493 
L 196.538857 145.903327 
L 201.391733 149.759043 
L 214.332736 160.292201 
L 217.567986 162.542853 
L 220.803237 164.494056 
L 223.229675 165.739394 
L 225.656113 166.792159 
L 228.082551 167.65594 
L 231.317802 168.53297 
L 234.553052 169.134804 
L 237.788303 169.515786 
L 241.832366 169.774334 
L 249.111681 169.961979 
L 266.096747 170.173596 
L 270.949623 169.965868 
L 276.611311 169.493125 
L 286.317064 168.618129 
L 290.361127 168.487727 
L 291.16994 168.488556 
L 291.16994 168.488556 
" clip-path="url(#p6a86c5dfe6)" style="fill: none; stroke: #1f77b4; stroke-width: 1.5; stroke-linecap: square"/>
   </g>
   <g id="line2d_26">
    <path d="M 174.276572 171.957188 
L 174.276572 27.436719 
" clip-path="url(#p6a86c5dfe6)" style="fill: none; stroke-dasharray: 5.55,2.4; stroke-dashoffset: 0; stroke: #1f77b4; stroke-width: 1.5"/>
   </g>
   <g id="line2d_27">
    <path d="M 70.629095 136.287147 
L 73.981365 133.126674 
L 77.333635 130.327346 
L 80.685906 127.992803 
L 82.362041 127.027586 
L 84.038176 126.209142 
L 85.714311 125.544538 
L 87.390447 125.039101 
L 89.066582 124.696347 
L 90.742717 124.517925 
L 92.418852 124.503611 
L 94.094987 124.651336 
L 95.771123 124.957244 
L 97.447258 125.415793 
L 99.123393 126.019875 
L 100.799528 126.760972 
L 104.151799 128.614174 
L 107.504069 130.886183 
L 110.856339 133.477936 
L 115.884745 137.742514 
L 125.941556 146.49547 
L 130.969962 150.51217 
L 134.322232 152.956529 
L 137.674503 155.190214 
L 141.026773 157.205744 
L 144.379044 159.00461 
L 147.731314 160.59495 
L 151.083584 161.989525 
L 154.435855 163.204085 
L 159.46426 164.726967 
L 164.492666 165.946546 
L 169.521072 166.924794 
L 176.225612 167.953056 
L 184.606288 168.951877 
L 194.6631 169.912353 
L 206.396046 170.799728 
L 216.452857 171.341934 
L 226.509668 171.676714 
L 239.91875 171.877023 
L 258.356237 171.90549 
L 276.793725 171.726537 
L 295.231212 171.296477 
L 311.992564 170.93052 
L 323.72551 170.912445 
L 337.134592 171.149276 
L 357.248214 171.516727 
L 368.981161 171.483774 
L 384.066378 171.185485 
L 400.82773 170.899113 
L 404.18 170.889739 
L 404.18 170.889739 
" clip-path="url(#p6a86c5dfe6)" style="fill: none; stroke: #ff7f0e; stroke-width: 1.5; stroke-linecap: square"/>
   </g>
   <g id="line2d_28">
    <path d="M 107.36462 171.957188 
L 107.36462 27.436719 
" clip-path="url(#p6a86c5dfe6)" style="fill: none; stroke-dasharray: 5.55,2.4; stroke-dashoffset: 0; stroke: #ff7f0e; stroke-width: 1.5"/>
   </g>
   <g id="line2d_29">
    <path d="M 63.78 150.775992 
L 65.886355 147.943515 
L 67.64165 145.950873 
L 69.045887 144.642936 
L 70.450123 143.601495 
L 71.85436 142.819418 
L 73.258596 142.275704 
L 74.662833 141.940646 
L 76.418128 141.766206 
L 78.173424 141.812698 
L 80.279779 142.113379 
L 82.386133 142.67018 
L 84.141429 143.34448 
L 85.896724 144.225161 
L 88.003079 145.552582 
L 90.460493 147.409745 
L 98.183794 153.564654 
L 100.992267 155.394296 
L 108.364508 160.011371 
L 112.577217 163.089677 
L 116.087809 165.556892 
L 118.194163 166.791002 
L 120.300518 167.753679 
L 122.055814 168.331323 
L 124.162168 168.771994 
L 126.619582 169.009528 
L 130.130173 169.071953 
L 133.640765 169.130204 
L 133.640765 169.130204 
" clip-path="url(#p6a86c5dfe6)" style="fill: none; stroke: #2ca02c; stroke-width: 1.5; stroke-linecap: square"/>
   </g>
   <g id="line2d_30">
    <path d="M 84.981061 171.957188 
L 84.981061 27.436719 
" clip-path="url(#p6a86c5dfe6)" style="fill: none; stroke-dasharray: 5.55,2.4; stroke-dashoffset: 0; stroke: #2ca02c; stroke-width: 1.5"/>
   </g>
   <g id="patch_3">
    <path d="M 46.76 171.957188 
L 46.76 27.436719 
" style="fill: none; stroke: #000000; stroke-width: 0.8; stroke-linejoin: miter; stroke-linecap: square"/>
   </g>
   <g id="patch_4">
    <path d="M 421.2 171.957188 
L 421.2 27.436719 
" style="fill: none; stroke: #000000; stroke-width: 0.8; stroke-linejoin: miter; stroke-linecap: square"/>
   </g>
   <g id="patch_5">
    <path d="M 46.76 171.957188 
L 421.2 171.957188 
" style="fill: none; stroke: #000000; stroke-width: 0.8; stroke-linejoin: miter; stroke-linecap: square"/>
   </g>
   <g id="patch_6">
    <path d="M 46.76 27.436719 
L 421.2 27.436719 
" style="fill: none; stroke: #000000; stroke-width: 0.8; stroke-linejoin: miter; stroke-linecap: square"/>
   </g>
   <g id="text_15">
    <!-- Today's Fuel Price Distributions -->
    <g transform="translate(125.598125 21.436719) scale(0.14 -0.14)">
     <defs>
      <path id="DejaVuSans-37" d="M -19 4666 
L 3928 4666 
L 3928 4134 
L 2272 4134 
L 2272 0 
L 1638 0 
L 1638 4134 
L -19 4134 
L -19 4666 
z
" transform="scale(0.015625)"/>
      <path id="DejaVuSans-52" d="M 1959 3097 
Q 1497 3097 1228 2736 
Q 959 2375 959 1747 
Q 959 1119 1226 758 
Q 1494 397 1959 397 
Q 2419 397 2687 759 
Q 2956 1122 2956 1747 
Q 2956 2369 2687 2733 
Q 2419 3097 1959 3097 
z
M 1959 3584 
Q 2709 3584 3137 3096 
Q 3566 2609 3566 1747 
Q 3566 888 3137 398 
Q 2709 -91 1959 -91 
Q 1206 -91 779 398 
Q 353 888 353 1747 
Q 353 2609 779 3096 
Q 1206 3584 1959 3584 
z
" transform="scale(0.015625)"/>
      <path id="DejaVuSans-47" d="M 2906 2969 
L 2906 4863 
L 3481 4863 
L 3481 0 
L 2906 0 
L 2906 525 
Q 2725 213 2448 61 
Q 2172 -91 1784 -91 
Q 1150 -91 751 415 
Q 353 922 353 1747 
Q 353 2572 751 3078 
Q 1150 3584 1784 3584 
Q 2172 3584 2448 3432 
Q 2725 3281 2906 2969 
z
M 947 1747 
Q 947 1113 1208 752 
Q 1469 391 1925 391 
Q 2381 391 2643 752 
Q 2906 1113 2906 1747 
Q 2906 2381 2643 2742 
Q 2381 3103 1925 3103 
Q 1469 3103 1208 2742 
Q 947 2381 947 1747 
z
" transform="scale(0.015625)"/>
      <path id="DejaVuSans-44" d="M 2194 1759 
Q 1497 1759 1228 1600 
Q 959 1441 959 1056 
Q 959 750 1161 570 
Q 1363 391 1709 391 
Q 2188 391 2477 730 
Q 2766 1069 2766 1631 
L 2766 1759 
L 2194 1759 
z
M 3341 1997 
L 3341 0 
L 2766 0 
L 2766 531 
Q 2569 213 2275 61 
Q 1981 -91 1556 -91 
Q 1019 -91 701 211 
Q 384 513 384 1019 
Q 384 1609 779 1909 
Q 1175 2209 1959 2209 
L 2766 2209 
L 2766 2266 
Q 2766 2663 2505 2880 
Q 2244 3097 1772 3097 
Q 1472 3097 1187 3025 
Q 903 2953 641 2809 
L 641 3341 
Q 956 3463 1253 3523 
Q 1550 3584 1831 3584 
Q 2591 3584 2966 3190 
Q 3341 2797 3341 1997 
z
" transform="scale(0.015625)"/>
      <path id="DejaVuSans-a" d="M 1147 4666 
L 1147 2931 
L 616 2931 
L 616 4666 
L 1147 4666 
z
" transform="scale(0.015625)"/>
      <path id="DejaVuSans-56" d="M 2834 3397 
L 2834 2853 
Q 2591 2978 2328 3040 
Q 2066 3103 1784 3103 
Q 1356 3103 1142 2972 
Q 928 2841 928 2578 
Q 928 2378 1081 2264 
Q 1234 2150 1697 2047 
L 1894 2003 
Q 2506 1872 2764 1633 
Q 3022 1394 3022 966 
Q 3022 478 2636 193 
Q 2250 -91 1575 -91 
Q 1294 -91 989 -36 
Q 684 19 347 128 
L 347 722 
Q 666 556 975 473 
Q 1284 391 1588 391 
Q 1994 391 2212 530 
Q 2431 669 2431 922 
Q 2431 1156 2273 1281 
Q 2116 1406 1581 1522 
L 1381 1569 
Q 847 1681 609 1914 
Q 372 2147 372 2553 
Q 372 3047 722 3315 
Q 1072 3584 1716 3584 
Q 2034 3584 2315 3537 
Q 2597 3491 2834 3397 
z
" transform="scale(0.015625)"/>
      <path id="DejaVuSans-4f" d="M 603 4863 
L 1178 4863 
L 1178 0 
L 603 0 
L 603 4863 
z
" transform="scale(0.015625)"/>
      <path id="DejaVuSans-27" d="M 1259 4147 
L 1259 519 
L 2022 519 
Q 2988 519 3436 956 
Q 3884 1394 3884 2338 
Q 3884 3275 3436 3711 
Q 2988 4147 2022 4147 
L 1259 4147 
z
M 628 4666 
L 1925 4666 
Q 3281 4666 3915 4102 
Q 4550 3538 4550 2338 
Q 4550 1131 3912 565 
Q 3275 0 1925 0 
L 628 0 
L 628 4666 
z
" transform="scale(0.015625)"/>
      <path id="DejaVuSans-57" d="M 1172 4494 
L 1172 3500 
L 2356 3500 
L 2356 3053 
L 1172 3053 
L 1172 1153 
Q 1172 725 1289 603 
Q 1406 481 1766 481 
L 2356 481 
L 2356 0 
L 1766 0 
Q 1100 0 847 248 
Q 594 497 594 1153 
L 594 3053 
L 172 3053 
L 172 3500 
L 594 3500 
L 594 4494 
L 1172 4494 
z
" transform="scale(0.015625)"/>
      <path id="DejaVuSans-45" d="M 3116 1747 
Q 3116 2381 2855 2742 
Q 2594 3103 2138 3103 
Q 1681 3103 1420 2742 
Q 1159 2381 1159 1747 
Q 1159 1113 1420 752 
Q 1681 391 2138 391 
Q 2594 391 2855 752 
Q 3116 1113 3116 1747 
z
M 1159 2969 
Q 1341 3281 1617 3432 
Q 1894 3584 2278 3584 
Q 2916 3584 3314 3078 
Q 3713 2572 3713 1747 
Q 3713 922 3314 415 
Q 2916 -91 2278 -91 
Q 1894 -91 1617 61 
Q 1341 213 1159 525 
L 1159 0 
L 581 0 
L 581 4863 
L 1159 4863 
L 1159 2969 
z
" transform="scale(0.015625)"/>
     </defs>
     <use xlink:href="#DejaVuSans-37"/>
     <use xlink:href="#DejaVuSans-52" transform="translate(44.09375 0)"/>
     <use xlink:href="#DejaVuSans-47" transform="translate(105.28125 0)"/>
     <use xlink:href="#DejaVuSans-44" transform="translate(168.765625 0)"/>
     <use xlink:href="#DejaVuSans-5c" transform="translate(230.046875 0)"/>
     <use xlink:href="#DejaVuSans-a" transform="translate(289.234375 0)"/>
     <use xlink:href="#DejaVuSans-56" transform="translate(316.71875 0)"/>
     <use xlink:href="#DejaVuSans-3" transform="translate(368.8125 0)"/>
     <use xlink:href="#DejaVuSans-29" transform="translate(400.59375 0)"/>
     <use xlink:href="#DejaVuSans-58" transform="translate(452.640625 0)"/>
     <use xlink:href="#DejaVuSans-48" transform="translate(516.015625 0)"/>
     <use xlink:href="#DejaVuSans-4f" transform="translate(577.546875 0)"/>
     <use xlink:href="#DejaVuSans-3" transform="translate(605.328125 0)"/>
     <use xlink:href="#DejaVuSans-33" transform="translate(637.109375 0)"/>
     <use xlink:href="#DejaVuSans-55" transform="translate(695.65625 0)"/>
     <use xlink:href="#DejaVuSans-4c" transform="translate(736.765625 0)"/>
     <use xlink:href="#DejaVuSans-46" transform="translate(764.546875 0)"/>
     <use xlink:href="#DejaVuSans-48" transform="translate(819.53125 0)"/>
     <use xlink:href="#DejaVuSans-3" transform="translate(881.0625 0)"/>
     <use xlink:href="#DejaVuSans-27" transform="translate(912.84375 0)"/>
     <use xlink:href="#DejaVuSans-4c" transform="translate(989.84375 0)"/>
     <use xlink:href="#DejaVuSans-56" transform="translate(1017.625 0)"/>
     <use xlink:href="#DejaVuSans-57" transform="translate(1069.71875 0)"/>
     <use xlink:href="#DejaVuSans-55" transform="translate(1108.921875 0)"/>
     <use xlink:href="#DejaVuSans-4c" transform="translate(1150.03125 0)"/>
     <use xlink:href="#DejaVuSans-45" transform="translate(1177.8125 0)"/>
     <use xlink:href="#DejaVuSans-58" transform="translate(1241.296875 0)"/>
     <use xlink:href="#DejaVuSans-57" transform="translate(1304.671875 0)"/>
     <use xlink:href="#DejaVuSans-4c" transform="translate(1343.875 0)"/>
     <use xlink:href="#DejaVuSans-52" transform="translate(1371.65625 0)"/>
     <use xlink:href="#DejaVuSans-51" transform="translate(1432.84375 0)"/>
     <use xlink:href="#DejaVuSans-56" transform="translate(1496.21875 0)"/>
    </g>
   </g>
   <g id="legend_1">
    <g id="patch_7">
     <path d="M 276.3 95.444531 
L 414.2 95.444531 
Q 416.2 95.444531 416.2 93.444531 
L 416.2 34.436719 
Q 416.2 32.436719 414.2 32.436719 
L 276.3 32.436719 
Q 274.3 32.436719 274.3 34.436719 
L 274.3 93.444531 
Q 274.3 95.444531 276.3 95.444531 
z
" style="fill: #ffffff; opacity: 0.8; stroke: #cccccc; stroke-linejoin: miter"/>
    </g>
    <g id="text_16">
     <!-- Fuel Type -->
     <g transform="translate(321.939063 44.035156) scale(0.1 -0.1)">
      <defs>
       <path id="DejaVuSans-53" d="M 1159 525 
L 1159 -1331 
L 581 -1331 
L 581 3500 
L 1159 3500 
L 1159 2969 
Q 1341 3281 1617 3432 
Q 1894 3584 2278 3584 
Q 2916 3584 3314 3078 
Q 3713 2572 3713 1747 
Q 3713 922 3314 415 
Q 2916 -91 2278 -91 
Q 1894 -91 1617 61 
Q 1341 213 1159 525 
z
M 3116 1747 
Q 3116 2381 2855 2742 
Q 2594 3103 2138 3103 
Q 1681 3103 1420 2742 
Q 1159 2381 1159 1747 
Q 1159 1113 1420 752 
Q 1681 391 2138 391 
Q 2594 391 2855 752 
Q 3116 1113 3116 1747 
z
" transform="scale(0.015625)"/>
      </defs>
      <use xlink:href="#DejaVuSans-29"/>
      <use xlink:href="#DejaVuSans-58" transform="translate(52.046875 0)"/>
      <use xlink:href="#DejaVuSans-48" transform="translate(115.421875 0)"/>
      <use xlink:href="#DejaVuSans-4f" transform="translate(176.953125 0)"/>
      <use xlink:href="#DejaVuSans-3" transform="translate(204.734375 0)"/>
      <use xlink:href="#DejaVuSans-37" transform="translate(236.515625 0)"/>
      <use xlink:href="#DejaVuSans-5c" transform="translate(282.015625 0)"/>
      <use xlink:href="#DejaVuSans-53" transform="translate(341.203125 0)"/>
      <use xlink:href="#DejaVuSans-48" transform="translate(404.6875 0)"/>
     </g>
    </g>
    <g id="patch_8">
     <path d="M 278.3 59.0375 
L 298.3 59.0375 
L 298.3 52.0375 
L 278.3 52.0375 
z
" style="fill: #1f77b4; fill-opacity: 0.4; stroke: #1f77b4; stroke-linejoin: miter"/>
    </g>
    <g id="text_17">
     <!-- Diesel ($\mu=\$1.88$) -->
     <g transform="translate(306.3 59.0375) scale(0.1 -0.1)">
      <defs>
       <path id="DejaVuSans-Oblique-350" d="M -84 -1331 
L 856 3500 
L 1434 3500 
L 1009 1322 
Q 997 1256 987 1175 
Q 978 1094 978 1013 
Q 978 722 1161 565 
Q 1344 409 1684 409 
Q 2147 409 2431 671 
Q 2716 934 2816 1459 
L 3213 3500 
L 3788 3500 
L 3266 809 
Q 3253 750 3248 706 
Q 3244 663 3244 628 
Q 3244 531 3283 486 
Q 3322 441 3406 441 
Q 3438 441 3492 456 
Q 3547 472 3647 513 
L 3559 50 
Q 3422 -19 3297 -55 
Q 3172 -91 3053 -91 
Q 2847 -91 2730 40 
Q 2613 172 2613 403 
Q 2438 153 2195 31 
Q 1953 -91 1625 -91 
Q 1334 -91 1117 43 
Q 900 178 831 397 
L 494 -1331 
L -84 -1331 
z
" transform="scale(0.015625)"/>
       <path id="DejaVuSans-20" d="M 678 2906 
L 4684 2906 
L 4684 2381 
L 678 2381 
L 678 2906 
z
M 678 1631 
L 4684 1631 
L 4684 1100 
L 678 1100 
L 678 1631 
z
" transform="scale(0.015625)"/>
      </defs>
      <use xlink:href="#DejaVuSans-27" transform="translate(0 0.015625)"/>
      <use xlink:href="#DejaVuSans-4c" transform="translate(77.001953 0.015625)"/>
      <use xlink:href="#DejaVuSans-48" transform="translate(104.785156 0.015625)"/>
      <use xlink:href="#DejaVuSans-56" transform="translate(166.308594 0.015625)"/>
      <use xlink:href="#DejaVuSans-48" transform="translate(218.408203 0.015625)"/>
      <use xlink:href="#DejaVuSans-4f" transform="translate(279.931641 0.015625)"/>
      <use xlink:href="#DejaVuSans-3" transform="translate(307.714844 0.015625)"/>
      <use xlink:href="#DejaVuSans-b" transform="translate(339.501953 0.015625)"/>
      <use xlink:href="#DejaVuSans-Oblique-350" transform="translate(378.515625 0.015625)"/>
      <use xlink:href="#DejaVuSans-20" transform="translate(461.621094 0.015625)"/>
      <use xlink:href="#DejaVuSans-7" transform="translate(564.892578 0.015625)"/>
      <use xlink:href="#DejaVuSans-14" transform="translate(628.515625 0.015625)"/>
      <use xlink:href="#DejaVuSans-11" transform="translate(692.138672 0.015625)"/>
      <use xlink:href="#DejaVuSans-1b" transform="translate(723.925781 0.015625)"/>
      <use xlink:href="#DejaVuSans-1b" transform="translate(787.548828 0.015625)"/>
      <use xlink:href="#DejaVuSans-c" transform="translate(851.171875 0.015625)"/>
     </g>
    </g>
    <g id="patch_9">
     <path d="M 278.3 74.039844 
L 298.3 74.039844 
L 298.3 67.039844 
L 278.3 67.039844 
z
" style="fill: #ff7f0e; fill-opacity: 0.4; stroke: #ff7f0e; stroke-linejoin: miter"/>
    </g>
    <g id="text_18">
     <!-- Unleaded ($\mu=\$1.68$) -->
     <g transform="translate(306.3 74.039844) scale(0.1 -0.1)">
      <defs>
       <path id="DejaVuSans-38" d="M 556 4666 
L 1191 4666 
L 1191 1831 
Q 1191 1081 1462 751 
Q 1734 422 2344 422 
Q 2950 422 3222 751 
Q 3494 1081 3494 1831 
L 3494 4666 
L 4128 4666 
L 4128 1753 
Q 4128 841 3676 375 
Q 3225 -91 2344 -91 
Q 1459 -91 1007 375 
Q 556 841 556 1753 
L 556 4666 
z
" transform="scale(0.015625)"/>
      </defs>
      <use xlink:href="#DejaVuSans-38" transform="translate(0 0.015625)"/>
      <use xlink:href="#DejaVuSans-51" transform="translate(73.193359 0.015625)"/>
      <use xlink:href="#DejaVuSans-4f" transform="translate(136.572266 0.015625)"/>
      <use xlink:href="#DejaVuSans-48" transform="translate(164.355469 0.015625)"/>
      <use xlink:href="#DejaVuSans-44" transform="translate(225.878906 0.015625)"/>
      <use xlink:href="#DejaVuSans-47" transform="translate(287.158203 0.015625)"/>
      <use xlink:href="#DejaVuSans-48" transform="translate(350.634766 0.015625)"/>
      <use xlink:href="#DejaVuSans-47" transform="translate(412.158203 0.015625)"/>
      <use xlink:href="#DejaVuSans-3" transform="translate(475.634766 0.015625)"/>
      <use xlink:href="#DejaVuSans-b" transform="translate(507.421875 0.015625)"/>
      <use xlink:href="#DejaVuSans-Oblique-350" transform="translate(546.435547 0.015625)"/>
      <use xlink:href="#DejaVuSans-20" transform="translate(629.541016 0.015625)"/>
      <use xlink:href="#DejaVuSans-7" transform="translate(732.8125 0.015625)"/>
      <use xlink:href="#DejaVuSans-14" transform="translate(796.435547 0.015625)"/>
      <use xlink:href="#DejaVuSans-11" transform="translate(860.058594 0.015625)"/>
      <use xlink:href="#DejaVuSans-19" transform="translate(891.845703 0.015625)"/>
      <use xlink:href="#DejaVuSans-1b" transform="translate(955.46875 0.015625)"/>
      <use xlink:href="#DejaVuSans-c" transform="translate(1019.091797 0.015625)"/>
     </g>
    </g>
    <g id="patch_10">
     <path d="M 278.3 89.042187 
L 298.3 89.042187 
L 298.3 82.042187 
L 278.3 82.042187 
z
" style="fill: #2ca02c; fill-opacity: 0.4; stroke: #2ca02c; stroke-linejoin: miter"/>
    </g>
    <g id="text_19">
     <!-- e10 ($\mu=\$1.62$) -->
     <g transform="translate(306.3 89.042187) scale(0.1 -0.1)">
      <use xlink:href="#DejaVuSans-48" transform="translate(0 0.015625)"/>
      <use xlink:href="#DejaVuSans-14" transform="translate(61.523438 0.015625)"/>
      <use xlink:href="#DejaVuSans-13" transform="translate(125.146484 0.015625)"/>
      <use xlink:href="#DejaVuSans-3" transform="translate(188.769531 0.015625)"/>
      <use xlink:href="#DejaVuSans-b" transform="translate(220.556641 0.015625)"/>
      <use xlink:href="#DejaVuSans-Oblique-350" transform="translate(259.570312 0.015625)"/>
      <use xlink:href="#DejaVuSans-20" transform="translate(342.675781 0.015625)"/>
      <use xlink:href="#DejaVuSans-7" transform="translate(445.947266 0.015625)"/>
      <use xlink:href="#DejaVuSans-14" transform="translate(509.570312 0.015625)"/>
      <use xlink:href="#DejaVuSans-11" transform="translate(573.193359 0.015625)"/>
      <use xlink:href="#DejaVuSans-19" transform="translate(604.980469 0.015625)"/>
      <use xlink:href="#DejaVuSans-15" transform="translate(668.603516 0.015625)"/>
      <use xlink:href="#DejaVuSans-c" transform="translate(732.226562 0.015625)"/>
     </g>
    </g>
   </g>
  </g>
 </g>
 <defs>
  <clipPath id="p6a86c5dfe6">
   <rect x="46.76" y="27.436719" width="374.44" height="144.520469"/>
  </clipPath>
 </defs>
</svg>
