<?xml version="1.0" encoding="utf-8" standalone="no"?>
<!DOCTYPE svg PUBLIC "-//W3C//DTD SVG 1.1//EN"
  "http://www.w3.org/Graphics/SVG/1.1/DTD/svg11.dtd">
<svg xmlns:xlink="http://www.w3.org/1999/xlink" width="432pt" height="216pt" viewBox="0 0 432 216" xmlns="http://www.w3.org/2000/svg" version="1.1">
 <metadata>
  <rdf:RDF xmlns:dc="http://purl.org/dc/elements/1.1/" xmlns:cc="http://creativecommons.org/ns#" xmlns:rdf="http://www.w3.org/1999/02/22-rdf-syntax-ns#">
   <cc:Work>
    <dc:type rdf:resource="http://purl.org/dc/dcmitype/StillImage"/>
    <dc:date>2026-03-24T10:03:49.503194</dc:date>
    <dc:format>image/svg+xml</dc:format>
    <dc:creator>
     <cc:Agent>
      <dc:title>Matplotlib v3.10.8, https://matplotlib.org/</dc:title>
     </cc:Agent>
    </dc:creator>
   </cc:Work>
  </rdf:RDF>
 </metadata>
 <defs>
  <style type="text/css">*{stroke-linejoin: round; stroke-linecap: butt}</style>
 </defs>
 <g id="figure_1">
  <g id="patch_1">
   <path d="M 0 216 
L 432 216 
L 432 0 
L 0 0 
z
" style="fill: #ffffff"/>
  </g>
  <g id="axes_1">
   <g id="patch_2">
    <path d="M 47.45 171.16 
L 421.2 171.16 
L 421.2 27.6 
L 47.45 27.6 
z
" style="fill: #ffffff"/>
   </g>
   <g id="FillBetweenPolyCollection_1">
    <defs>
     <path id="maf6e9be0a7" d="M 64.438636 -44.84 
L 64.438636 -44.84 
L 71.372774 -44.84 
L 71.372774 -44.84 
L 78.306911 -44.84 
L 78.306911 -44.84 
L 85.241048 -44.84 
L 85.241048 -44.84 
L 92.175186 -44.84 
L 92.175186 -44.84 
L 99.109323 -44.84 
L 99.109323 -44.84 
L 106.04346 -44.84 
L 106.04346 -44.84 
L 112.977597 -44.84 
L 112.977597 -44.84 
L 119.911735 -44.84 
L 119.911735 -44.84 
L 126.845872 -44.84 
L 126.845872 -44.84 
L 133.780009 -44.84 
L 133.780009 -44.84 
L 140.714147 -44.84 
L 140.714147 -44.84 
L 147.648284 -44.84 
L 147.648284 -44.84 
L 154.582421 -44.84 
L 154.582421 -44.84 
L 161.516558 -44.84 
L 161.516558 -44.84 
L 168.450696 -44.84 
L 168.450696 -44.84 
L 175.384833 -44.84 
L 175.384833 -44.84 
L 182.31897 -44.84 
L 182.31897 -44.84 
L 189.253108 -44.84 
L 189.253108 -44.84 
L 196.187245 -44.84 
L 196.187245 -44.84 
L 203.121382 -44.84 
L 203.121382 -44.84 
L 210.055519 -44.84 
L 210.055519 -44.84 
L 216.989657 -44.84 
L 216.989657 -44.84 
L 223.923794 -44.84 
L 223.923794 -44.84 
L 230.857931 -44.84 
L 230.857931 -44.84 
L 237.792069 -44.84 
L 237.792069 -44.84 
L 244.726206 -44.84 
L 244.726206 -44.84 
L 251.660343 -44.84 
L 251.660343 -44.84 
L 258.594481 -44.84 
L 258.594481 -44.84 
L 265.528618 -44.84 
L 265.528618 -44.84 
L 272.462755 -44.84 
L 272.462755 -44.84 
L 279.396892 -44.84 
L 279.396892 -44.84 
L 286.33103 -44.84 
L 286.33103 -44.84 
L 293.265167 -44.84 
L 293.265167 -44.84 
L 300.199304 -44.84 
L 300.199304 -44.84 
L 307.133442 -44.84 
L 307.133442 -44.84 
L 314.067579 -44.84 
L 314.067579 -44.84 
L 321.001716 -44.84 
L 321.001716 -44.84 
L 327.935853 -44.84 
L 327.935853 -44.84 
L 334.869991 -44.84 
L 334.869991 -44.84 
L 341.804128 -44.84 
L 341.804128 -44.84 
L 348.738265 -44.84 
L 348.738265 -44.84 
L 355.672403 -44.84 
L 355.672403 -44.84 
L 362.60654 -44.84 
L 362.60654 -44.84 
L 369.540677 -44.84 
L 369.540677 -44.84 
L 376.474814 -44.84 
L 376.474814 -44.84 
L 383.408952 -44.84 
L 383.408952 -44.84 
L 390.343089 -44.84 
L 390.343089 -44.84 
L 397.277226 -44.84 
L 397.277226 -44.84 
L 404.211364 -44.84 
L 404.211364 -44.84 
L 404.211364 -51.118092 
L 404.211364 -51.118092 
L 404.211364 -51.118092 
L 397.277226 -51.118092 
L 397.277226 -139.011378 
L 390.343089 -139.011378 
L 390.343089 -157.845653 
L 383.408952 -157.845653 
L 383.408952 -139.011378 
L 376.474814 -139.011378 
L 376.474814 -63.674276 
L 369.540677 -63.674276 
L 369.540677 -44.84 
L 362.60654 -44.84 
L 362.60654 -44.84 
L 355.672403 -44.84 
L 355.672403 -51.118092 
L 348.738265 -51.118092 
L 348.738265 -44.84 
L 341.804128 -44.84 
L 341.804128 -44.84 
L 334.869991 -44.84 
L 334.869991 -44.84 
L 327.935853 -44.84 
L 327.935853 -44.84 
L 321.001716 -44.84 
L 321.001716 -44.84 
L 314.067579 -44.84 
L 314.067579 -44.84 
L 307.133442 -44.84 
L 307.133442 -44.84 
L 300.199304 -44.84 
L 300.199304 -44.84 
L 293.265167 -44.84 
L 293.265167 -44.84 
L 286.33103 -44.84 
L 286.33103 -44.84 
L 279.396892 -44.84 
L 279.396892 -44.84 
L 272.462755 -44.84 
L 272.462755 -44.84 
L 265.528618 -44.84 
L 265.528618 -44.84 
L 258.594481 -44.84 
L 258.594481 -44.84 
L 251.660343 -44.84 
L 251.660343 -44.84 
L 244.726206 -44.84 
L 244.726206 -44.84 
L 237.792069 -44.84 
L 237.792069 -44.84 
L 230.857931 -44.84 
L 230.857931 -44.84 
L 223.923794 -44.84 
L 223.923794 -44.84 
L 216.989657 -44.84 
L 216.989657 -44.84 
L 210.055519 -44.84 
L 210.055519 -44.84 
L 203.121382 -44.84 
L 203.121382 -44.84 
L 196.187245 -44.84 
L 196.187245 -44.84 
L 189.253108 -44.84 
L 189.253108 -44.84 
L 182.31897 -44.84 
L 182.31897 -44.84 
L 175.384833 -44.84 
L 175.384833 -44.84 
L 168.450696 -44.84 
L 168.450696 -44.84 
L 161.516558 -44.84 
L 161.516558 -44.84 
L 154.582421 -44.84 
L 154.582421 -44.84 
L 147.648284 -44.84 
L 147.648284 -44.84 
L 140.714147 -44.84 
L 140.714147 -44.84 
L 133.780009 -44.84 
L 133.780009 -44.84 
L 126.845872 -44.84 
L 126.845872 -44.84 
L 119.911735 -44.84 
L 119.911735 -44.84 
L 112.977597 -44.84 
L 112.977597 -44.84 
L 106.04346 -44.84 
L 106.04346 -44.84 
L 99.109323 -44.84 
L 99.109323 -44.84 
L 92.175186 -44.84 
L 92.175186 -44.84 
L 85.241048 -44.84 
L 85.241048 -44.84 
L 78.306911 -44.84 
L 78.306911 -44.84 
L 71.372774 -44.84 
L 71.372774 -44.84 
L 64.438636 -44.84 
z
" style="stroke: #1f77b4"/>
    </defs>
    <g clip-path="url(#p222cd71622)">
     <use xlink:href="#maf6e9be0a7" x="0" y="216" style="fill: #1f77b4; fill-opacity: 0.4; stroke: #1f77b4"/>
    </g>
   </g>
   <g id="FillBetweenPolyCollection_2">
    <defs>
     <path id="m5275e4d525" d="M 64.438636 -51.118092 
L 64.438636 -44.84 
L 71.372774 -44.84 
L 71.372774 -44.84 
L 78.306911 -44.84 
L 78.306911 -44.84 
L 85.241048 -44.84 
L 85.241048 -44.84 
L 92.175186 -44.84 
L 92.175186 -44.84 
L 99.109323 -44.84 
L 99.109323 -44.84 
L 106.04346 -44.84 
L 106.04346 -44.84 
L 112.977597 -44.84 
L 112.977597 -44.84 
L 119.911735 -44.84 
L 119.911735 -44.84 
L 126.845872 -44.84 
L 126.845872 -44.84 
L 133.780009 -44.84 
L 133.780009 -44.84 
L 140.714147 -44.84 
L 140.714147 -44.84 
L 147.648284 -44.84 
L 147.648284 -44.84 
L 154.582421 -44.84 
L 154.582421 -44.84 
L 161.516558 -44.84 
L 161.516558 -44.84 
L 168.450696 -44.84 
L 168.450696 -44.84 
L 175.384833 -44.84 
L 175.384833 -44.84 
L 182.31897 -44.84 
L 182.31897 -44.84 
L 189.253108 -44.84 
L 189.253108 -44.84 
L 196.187245 -44.84 
L 196.187245 -44.84 
L 203.121382 -44.84 
L 203.121382 -44.84 
L 210.055519 -44.84 
L 210.055519 -44.84 
L 216.989657 -44.84 
L 216.989657 -44.84 
L 223.923794 -44.84 
L 223.923794 -44.84 
L 230.857931 -44.84 
L 230.857931 -44.84 
L 237.792069 -44.84 
L 237.792069 -44.84 
L 244.726206 -44.84 
L 244.726206 -44.84 
L 251.660343 -44.84 
L 251.660343 -44.84 
L 258.594481 -44.84 
L 258.594481 -44.84 
L 265.528618 -44.84 
L 265.528618 -44.84 
L 272.462755 -44.84 
L 272.462755 -44.84 
L 279.396892 -44.84 
L 279.396892 -44.84 
L 286.33103 -44.84 
L 286.33103 -44.84 
L 293.265167 -44.84 
L 293.265167 -44.84 
L 300.199304 -44.84 
L 300.199304 -44.84 
L 307.133442 -44.84 
L 307.133442 -44.84 
L 314.067579 -44.84 
L 314.067579 -44.84 
L 321.001716 -44.84 
L 321.001716 -44.84 
L 327.935853 -44.84 
L 327.935853 -44.84 
L 334.869991 -44.84 
L 334.869991 -44.84 
L 341.804128 -44.84 
L 341.804128 -44.84 
L 348.738265 -44.84 
L 348.738265 -44.84 
L 355.672403 -44.84 
L 355.672403 -44.84 
L 362.60654 -44.84 
L 362.60654 -44.84 
L 369.540677 -44.84 
L 369.540677 -44.84 
L 376.474814 -44.84 
L 376.474814 -44.84 
L 383.408952 -44.84 
L 383.408952 -44.84 
L 390.343089 -44.84 
L 390.343089 -44.84 
L 397.277226 -44.84 
L 397.277226 -44.84 
L 404.211364 -44.84 
L 404.211364 -44.84 
L 404.211364 -44.84 
L 404.211364 -44.84 
L 404.211364 -44.84 
L 397.277226 -44.84 
L 397.277226 -44.84 
L 390.343089 -44.84 
L 390.343089 -44.84 
L 383.408952 -44.84 
L 383.408952 -44.84 
L 376.474814 -44.84 
L 376.474814 -44.84 
L 369.540677 -44.84 
L 369.540677 -44.84 
L 362.60654 -44.84 
L 362.60654 -44.84 
L 355.672403 -44.84 
L 355.672403 -44.84 
L 348.738265 -44.84 
L 348.738265 -44.84 
L 341.804128 -44.84 
L 341.804128 -44.84 
L 334.869991 -44.84 
L 334.869991 -44.84 
L 327.935853 -44.84 
L 327.935853 -44.84 
L 321.001716 -44.84 
L 321.001716 -44.84 
L 314.067579 -44.84 
L 314.067579 -44.84 
L 307.133442 -44.84 
L 307.133442 -44.84 
L 300.199304 -44.84 
L 300.199304 -44.84 
L 293.265167 -44.84 
L 293.265167 -44.84 
L 286.33103 -44.84 
L 286.33103 -51.118092 
L 279.396892 -51.118092 
L 279.396892 -82.508551 
L 272.462755 -82.508551 
L 272.462755 -145.289469 
L 265.528618 -145.289469 
L 265.528618 -82.508551 
L 258.594481 -82.508551 
L 258.594481 -145.289469 
L 251.660343 -145.289469 
L 251.660343 -76.230459 
L 244.726206 -76.230459 
L 244.726206 -69.952367 
L 237.792069 -69.952367 
L 237.792069 -44.84 
L 230.857931 -44.84 
L 230.857931 -57.396184 
L 223.923794 -57.396184 
L 223.923794 -44.84 
L 216.989657 -44.84 
L 216.989657 -44.84 
L 210.055519 -44.84 
L 210.055519 -44.84 
L 203.121382 -44.84 
L 203.121382 -44.84 
L 196.187245 -44.84 
L 196.187245 -44.84 
L 189.253108 -44.84 
L 189.253108 -44.84 
L 182.31897 -44.84 
L 182.31897 -44.84 
L 175.384833 -44.84 
L 175.384833 -44.84 
L 168.450696 -44.84 
L 168.450696 -44.84 
L 161.516558 -44.84 
L 161.516558 -44.84 
L 154.582421 -44.84 
L 154.582421 -44.84 
L 147.648284 -44.84 
L 147.648284 -44.84 
L 140.714147 -44.84 
L 140.714147 -44.84 
L 133.780009 -44.84 
L 133.780009 -44.84 
L 126.845872 -44.84 
L 126.845872 -44.84 
L 119.911735 -44.84 
L 119.911735 -44.84 
L 112.977597 -44.84 
L 112.977597 -44.84 
L 106.04346 -44.84 
L 106.04346 -44.84 
L 99.109323 -44.84 
L 99.109323 -44.84 
L 92.175186 -44.84 
L 92.175186 -44.84 
L 85.241048 -44.84 
L 85.241048 -44.84 
L 78.306911 -44.84 
L 78.306911 -44.84 
L 71.372774 -44.84 
L 71.372774 -51.118092 
L 64.438636 -51.118092 
z
" style="stroke: #ff7f0e"/>
    </defs>
    <g clip-path="url(#p222cd71622)">
     <use xlink:href="#m5275e4d525" x="0" y="216" style="fill: #ff7f0e; fill-opacity: 0.4; stroke: #ff7f0e"/>
    </g>
   </g>
   <g id="FillBetweenPolyCollection_3">
    <defs>
     <path id="m4b7a336ed5" d="M 64.438636 -51.118092 
L 64.438636 -44.84 
L 71.372774 -44.84 
L 71.372774 -44.84 
L 78.306911 -44.84 
L 78.306911 -44.84 
L 85.241048 -44.84 
L 85.241048 -44.84 
L 92.175186 -44.84 
L 92.175186 -44.84 
L 99.109323 -44.84 
L 99.109323 -44.84 
L 106.04346 -44.84 
L 106.04346 -44.84 
L 112.977597 -44.84 
L 112.977597 -44.84 
L 119.911735 -44.84 
L 119.911735 -44.84 
L 126.845872 -44.84 
L 126.845872 -44.84 
L 133.780009 -44.84 
L 133.780009 -44.84 
L 140.714147 -44.84 
L 140.714147 -44.84 
L 147.648284 -44.84 
L 147.648284 -44.84 
L 154.582421 -44.84 
L 154.582421 -44.84 
L 161.516558 -44.84 
L 161.516558 -44.84 
L 168.450696 -44.84 
L 168.450696 -44.84 
L 175.384833 -44.84 
L 175.384833 -44.84 
L 182.31897 -44.84 
L 182.31897 -44.84 
L 189.253108 -44.84 
L 189.253108 -44.84 
L 196.187245 -44.84 
L 196.187245 -44.84 
L 203.121382 -44.84 
L 203.121382 -44.84 
L 210.055519 -44.84 
L 210.055519 -44.84 
L 216.989657 -44.84 
L 216.989657 -44.84 
L 223.923794 -44.84 
L 223.923794 -44.84 
L 230.857931 -44.84 
L 230.857931 -44.84 
L 237.792069 -44.84 
L 237.792069 -44.84 
L 244.726206 -44.84 
L 244.726206 -44.84 
L 251.660343 -44.84 
L 251.660343 -44.84 
L 258.594481 -44.84 
L 258.594481 -44.84 
L 265.528618 -44.84 
L 265.528618 -44.84 
L 272.462755 -44.84 
L 272.462755 -44.84 
L 279.396892 -44.84 
L 279.396892 -44.84 
L 286.33103 -44.84 
L 286.33103 -44.84 
L 293.265167 -44.84 
L 293.265167 -44.84 
L 300.199304 -44.84 
L 300.199304 -44.84 
L 307.133442 -44.84 
L 307.133442 -44.84 
L 314.067579 -44.84 
L 314.067579 -44.84 
L 321.001716 -44.84 
L 321.001716 -44.84 
L 327.935853 -44.84 
L 327.935853 -44.84 
L 334.869991 -44.84 
L 334.869991 -44.84 
L 341.804128 -44.84 
L 341.804128 -44.84 
L 348.738265 -44.84 
L 348.738265 -44.84 
L 355.672403 -44.84 
L 355.672403 -44.84 
L 362.60654 -44.84 
L 362.60654 -44.84 
L 369.540677 -44.84 
L 369.540677 -44.84 
L 376.474814 -44.84 
L 376.474814 -44.84 
L 383.408952 -44.84 
L 383.408952 -44.84 
L 390.343089 -44.84 
L 390.343089 -44.84 
L 397.277226 -44.84 
L 397.277226 -44.84 
L 404.211364 -44.84 
L 404.211364 -44.84 
L 404.211364 -44.84 
L 404.211364 -44.84 
L 404.211364 -44.84 
L 397.277226 -44.84 
L 397.277226 -44.84 
L 390.343089 -44.84 
L 390.343089 -44.84 
L 383.408952 -44.84 
L 383.408952 -44.84 
L 376.474814 -44.84 
L 376.474814 -44.84 
L 369.540677 -44.84 
L 369.540677 -44.84 
L 362.60654 -44.84 
L 362.60654 -44.84 
L 355.672403 -44.84 
L 355.672403 -44.84 
L 348.738265 -44.84 
L 348.738265 -44.84 
L 341.804128 -44.84 
L 341.804128 -44.84 
L 334.869991 -44.84 
L 334.869991 -44.84 
L 327.935853 -44.84 
L 327.935853 -44.84 
L 321.001716 -44.84 
L 321.001716 -44.84 
L 314.067579 -44.84 
L 314.067579 -44.84 
L 307.133442 -44.84 
L 307.133442 -44.84 
L 300.199304 -44.84 
L 300.199304 -44.84 
L 293.265167 -44.84 
L 293.265167 -44.84 
L 286.33103 -44.84 
L 286.33103 -44.84 
L 279.396892 -44.84 
L 279.396892 -44.84 
L 272.462755 -44.84 
L 272.462755 -44.84 
L 265.528618 -44.84 
L 265.528618 -95.064735 
L 258.594481 -95.064735 
L 258.594481 -69.952367 
L 251.660343 -69.952367 
L 251.660343 -69.952367 
L 244.726206 -69.952367 
L 244.726206 -57.396184 
L 237.792069 -57.396184 
L 237.792069 -57.396184 
L 230.857931 -57.396184 
L 230.857931 -51.118092 
L 223.923794 -51.118092 
L 223.923794 -44.84 
L 216.989657 -44.84 
L 216.989657 -44.84 
L 210.055519 -44.84 
L 210.055519 -44.84 
L 203.121382 -44.84 
L 203.121382 -44.84 
L 196.187245 -44.84 
L 196.187245 -44.84 
L 189.253108 -44.84 
L 189.253108 -44.84 
L 182.31897 -44.84 
L 182.31897 -44.84 
L 175.384833 -44.84 
L 175.384833 -44.84 
L 168.450696 -44.84 
L 168.450696 -44.84 
L 161.516558 -44.84 
L 161.516558 -44.84 
L 154.582421 -44.84 
L 154.582421 -44.84 
L 147.648284 -44.84 
L 147.648284 -44.84 
L 140.714147 -44.84 
L 140.714147 -44.84 
L 133.780009 -44.84 
L 133.780009 -44.84 
L 126.845872 -44.84 
L 126.845872 -44.84 
L 119.911735 -44.84 
L 119.911735 -44.84 
L 112.977597 -44.84 
L 112.977597 -44.84 
L 106.04346 -44.84 
L 106.04346 -44.84 
L 99.109323 -44.84 
L 99.109323 -44.84 
L 92.175186 -44.84 
L 92.175186 -44.84 
L 85.241048 -44.84 
L 85.241048 -44.84 
L 78.306911 -44.84 
L 78.306911 -44.84 
L 71.372774 -44.84 
L 71.372774 -51.118092 
L 64.438636 -51.118092 
z
" style="stroke: #2ca02c"/>
    </defs>
    <g clip-path="url(#p222cd71622)">
     <use xlink:href="#m4b7a336ed5" x="0" y="216" style="fill: #2ca02c; fill-opacity: 0.4; stroke: #2ca02c"/>
    </g>
   </g>
   <g id="matplotlib.axis_1">
    <g id="xtick_1">
     <g id="line2d_1">
      <path d="M 85.447484 171.16 
L 85.447484 27.6 
" clip-path="url(#p222cd71622)" style="fill: none; stroke: #b0b0b0; stroke-opacity: 0.3; stroke-width: 0.8; stroke-linecap: square"/>
     </g>
     <g id="line2d_2">
      <defs>
       <path id="m7d1709322c" d="M 0 0 
L 0 3.5 
" style="stroke: #000000; stroke-width: 0.8"/>
      </defs>
      <g>
       <use xlink:href="#m7d1709322c" x="85.447484" y="171.16" style="stroke: #000000; stroke-width: 0.8"/>
      </g>
     </g>
     <g id="text_1">
      <!-- 1.8 -->
      <g transform="translate(77.495922 185.758437) scale(0.1 -0.1)">
       <defs>
        <path id="DejaVuSans-31" d="M 794 531 
L 1825 531 
L 1825 4091 
L 703 3866 
L 703 4441 
L 1819 4666 
L 2450 4666 
L 2450 531 
L 3481 531 
L 3481 0 
L 794 0 
L 794 531 
z
" transform="scale(0.015625)"/>
        <path id="DejaVuSans-2e" d="M 684 794 
L 1344 794 
L 1344 0 
L 684 0 
L 684 794 
z
" transform="scale(0.015625)"/>
        <path id="DejaVuSans-38" d="M 2034 2216 
Q 1584 2216 1326 1975 
Q 1069 1734 1069 1313 
Q 1069 891 1326 650 
Q 1584 409 2034 409 
Q 2484 409 2743 651 
Q 3003 894 3003 1313 
Q 3003 1734 2745 1975 
Q 2488 2216 2034 2216 
z
M 1403 2484 
Q 997 2584 770 2862 
Q 544 3141 544 3541 
Q 544 4100 942 4425 
Q 1341 4750 2034 4750 
Q 2731 4750 3128 4425 
Q 3525 4100 3525 3541 
Q 3525 3141 3298 2862 
Q 3072 2584 2669 2484 
Q 3125 2378 3379 2068 
Q 3634 1759 3634 1313 
Q 3634 634 3220 271 
Q 2806 -91 2034 -91 
Q 1263 -91 848 271 
Q 434 634 434 1313 
Q 434 1759 690 2068 
Q 947 2378 1403 2484 
z
M 1172 3481 
Q 1172 3119 1398 2916 
Q 1625 2713 2034 2713 
Q 2441 2713 2670 2916 
Q 2900 3119 2900 3481 
Q 2900 3844 2670 4047 
Q 2441 4250 2034 4250 
Q 1625 4250 1398 4047 
Q 1172 3844 1172 3481 
z
" transform="scale(0.015625)"/>
       </defs>
       <use xlink:href="#DejaVuSans-31"/>
       <use xlink:href="#DejaVuSans-2e" transform="translate(63.623047 0)"/>
       <use xlink:href="#DejaVuSans-38" transform="translate(95.410156 0)"/>
      </g>
     </g>
    </g>
    <g id="xtick_2">
     <g id="line2d_3">
      <path d="M 137.321183 171.16 
L 137.321183 27.6 
" clip-path="url(#p222cd71622)" style="fill: none; stroke: #b0b0b0; stroke-opacity: 0.3; stroke-width: 0.8; stroke-linecap: square"/>
     </g>
     <g id="line2d_4">
      <g>
       <use xlink:href="#m7d1709322c" x="137.321183" y="171.16" style="stroke: #000000; stroke-width: 0.8"/>
      </g>
     </g>
     <g id="text_2">
      <!-- 2.0 -->
      <g transform="translate(129.369621 185.758437) scale(0.1 -0.1)">
       <defs>
        <path id="DejaVuSans-32" d="M 1228 531 
L 3431 531 
L 3431 0 
L 469 0 
L 469 531 
Q 828 903 1448 1529 
Q 2069 2156 2228 2338 
Q 2531 2678 2651 2914 
Q 2772 3150 2772 3378 
Q 2772 3750 2511 3984 
Q 2250 4219 1831 4219 
Q 1534 4219 1204 4116 
Q 875 4013 500 3803 
L 500 4441 
Q 881 4594 1212 4672 
Q 1544 4750 1819 4750 
Q 2544 4750 2975 4387 
Q 3406 4025 3406 3419 
Q 3406 3131 3298 2873 
Q 3191 2616 2906 2266 
Q 2828 2175 2409 1742 
Q 1991 1309 1228 531 
z
" transform="scale(0.015625)"/>
        <path id="DejaVuSans-30" d="M 2034 4250 
Q 1547 4250 1301 3770 
Q 1056 3291 1056 2328 
Q 1056 1369 1301 889 
Q 1547 409 2034 409 
Q 2525 409 2770 889 
Q 3016 1369 3016 2328 
Q 3016 3291 2770 3770 
Q 2525 4250 2034 4250 
z
M 2034 4750 
Q 2819 4750 3233 4129 
Q 3647 3509 3647 2328 
Q 3647 1150 3233 529 
Q 2819 -91 2034 -91 
Q 1250 -91 836 529 
Q 422 1150 422 2328 
Q 422 3509 836 4129 
Q 1250 4750 2034 4750 
z
" transform="scale(0.015625)"/>
       </defs>
       <use xlink:href="#DejaVuSans-32"/>
       <use xlink:href="#DejaVuSans-2e" transform="translate(63.623047 0)"/>
       <use xlink:href="#DejaVuSans-30" transform="translate(95.410156 0)"/>
      </g>
     </g>
    </g>
    <g id="xtick_3">
     <g id="line2d_5">
      <path d="M 189.194882 171.16 
L 189.194882 27.6 
" clip-path="url(#p222cd71622)" style="fill: none; stroke: #b0b0b0; stroke-opacity: 0.3; stroke-width: 0.8; stroke-linecap: square"/>
     </g>
     <g id="line2d_6">
      <g>
       <use xlink:href="#m7d1709322c" x="189.194882" y="171.16" style="stroke: #000000; stroke-width: 0.8"/>
      </g>
     </g>
     <g id="text_3">
      <!-- 2.2 -->
      <g transform="translate(181.24332 185.758437) scale(0.1 -0.1)">
       <use xlink:href="#DejaVuSans-32"/>
       <use xlink:href="#DejaVuSans-2e" transform="translate(63.623047 0)"/>
       <use xlink:href="#DejaVuSans-32" transform="translate(95.410156 0)"/>
      </g>
     </g>
    </g>
    <g id="xtick_4">
     <g id="line2d_7">
      <path d="M 241.068581 171.16 
L 241.068581 27.6 
" clip-path="url(#p222cd71622)" style="fill: none; stroke: #b0b0b0; stroke-opacity: 0.3; stroke-width: 0.8; stroke-linecap: square"/>
     </g>
     <g id="line2d_8">
      <g>
       <use xlink:href="#m7d1709322c" x="241.068581" y="171.16" style="stroke: #000000; stroke-width: 0.8"/>
      </g>
     </g>
     <g id="text_4">
      <!-- 2.4 -->
      <g transform="translate(233.117018 185.758437) scale(0.1 -0.1)">
       <defs>
        <path id="DejaVuSans-34" d="M 2419 4116 
L 825 1625 
L 2419 1625 
L 2419 4116 
z
M 2253 4666 
L 3047 4666 
L 3047 1625 
L 3713 1625 
L 3713 1100 
L 3047 1100 
L 3047 0 
L 2419 0 
L 2419 1100 
L 313 1100 
L 313 1709 
L 2253 4666 
z
" transform="scale(0.015625)"/>
       </defs>
       <use xlink:href="#DejaVuSans-32"/>
       <use xlink:href="#DejaVuSans-2e" transform="translate(63.623047 0)"/>
       <use xlink:href="#DejaVuSans-34" transform="translate(95.410156 0)"/>
      </g>
     </g>
    </g>
    <g id="xtick_5">
     <g id="line2d_9">
      <path d="M 292.94228 171.16 
L 292.94228 27.6 
" clip-path="url(#p222cd71622)" style="fill: none; stroke: #b0b0b0; stroke-opacity: 0.3; stroke-width: 0.8; stroke-linecap: square"/>
     </g>
     <g id="line2d_10">
      <g>
       <use xlink:href="#m7d1709322c" x="292.94228" y="171.16" style="stroke: #000000; stroke-width: 0.8"/>
      </g>
     </g>
     <g id="text_5">
      <!-- 2.6 -->
      <g transform="translate(284.990717 185.758437) scale(0.1 -0.1)">
       <defs>
        <path id="DejaVuSans-36" d="M 2113 2584 
Q 1688 2584 1439 2293 
Q 1191 2003 1191 1497 
Q 1191 994 1439 701 
Q 1688 409 2113 409 
Q 2538 409 2786 701 
Q 3034 994 3034 1497 
Q 3034 2003 2786 2293 
Q 2538 2584 2113 2584 
z
M 3366 4563 
L 3366 3988 
Q 3128 4100 2886 4159 
Q 2644 4219 2406 4219 
Q 1781 4219 1451 3797 
Q 1122 3375 1075 2522 
Q 1259 2794 1537 2939 
Q 1816 3084 2150 3084 
Q 2853 3084 3261 2657 
Q 3669 2231 3669 1497 
Q 3669 778 3244 343 
Q 2819 -91 2113 -91 
Q 1303 -91 875 529 
Q 447 1150 447 2328 
Q 447 3434 972 4092 
Q 1497 4750 2381 4750 
Q 2619 4750 2861 4703 
Q 3103 4656 3366 4563 
z
" transform="scale(0.015625)"/>
       </defs>
       <use xlink:href="#DejaVuSans-32"/>
       <use xlink:href="#DejaVuSans-2e" transform="translate(63.623047 0)"/>
       <use xlink:href="#DejaVuSans-36" transform="translate(95.410156 0)"/>
      </g>
     </g>
    </g>
    <g id="xtick_6">
     <g id="line2d_11">
      <path d="M 344.815978 171.16 
L 344.815978 27.6 
" clip-path="url(#p222cd71622)" style="fill: none; stroke: #b0b0b0; stroke-opacity: 0.3; stroke-width: 0.8; stroke-linecap: square"/>
     </g>
     <g id="line2d_12">
      <g>
       <use xlink:href="#m7d1709322c" x="344.815978" y="171.16" style="stroke: #000000; stroke-width: 0.8"/>
      </g>
     </g>
     <g id="text_6">
      <!-- 2.8 -->
      <g transform="translate(336.864416 185.758437) scale(0.1 -0.1)">
       <use xlink:href="#DejaVuSans-32"/>
       <use xlink:href="#DejaVuSans-2e" transform="translate(63.623047 0)"/>
       <use xlink:href="#DejaVuSans-38" transform="translate(95.410156 0)"/>
      </g>
     </g>
    </g>
    <g id="xtick_7">
     <g id="line2d_13">
      <path d="M 396.689677 171.16 
L 396.689677 27.6 
" clip-path="url(#p222cd71622)" style="fill: none; stroke: #b0b0b0; stroke-opacity: 0.3; stroke-width: 0.8; stroke-linecap: square"/>
     </g>
     <g id="line2d_14">
      <g>
       <use xlink:href="#m7d1709322c" x="396.689677" y="171.16" style="stroke: #000000; stroke-width: 0.8"/>
      </g>
     </g>
     <g id="text_7">
      <!-- 3.0 -->
      <g transform="translate(388.738115 185.758437) scale(0.1 -0.1)">
       <defs>
        <path id="DejaVuSans-33" d="M 2597 2516 
Q 3050 2419 3304 2112 
Q 3559 1806 3559 1356 
Q 3559 666 3084 287 
Q 2609 -91 1734 -91 
Q 1441 -91 1130 -33 
Q 819 25 488 141 
L 488 750 
Q 750 597 1062 519 
Q 1375 441 1716 441 
Q 2309 441 2620 675 
Q 2931 909 2931 1356 
Q 2931 1769 2642 2001 
Q 2353 2234 1838 2234 
L 1294 2234 
L 1294 2753 
L 1863 2753 
Q 2328 2753 2575 2939 
Q 2822 3125 2822 3475 
Q 2822 3834 2567 4026 
Q 2313 4219 1838 4219 
Q 1578 4219 1281 4162 
Q 984 4106 628 3988 
L 628 4550 
Q 988 4650 1302 4700 
Q 1616 4750 1894 4750 
Q 2613 4750 3031 4423 
Q 3450 4097 3450 3541 
Q 3450 3153 3228 2886 
Q 3006 2619 2597 2516 
z
" transform="scale(0.015625)"/>
       </defs>
       <use xlink:href="#DejaVuSans-33"/>
       <use xlink:href="#DejaVuSans-2e" transform="translate(63.623047 0)"/>
       <use xlink:href="#DejaVuSans-30" transform="translate(95.410156 0)"/>
      </g>
     </g>
    </g>
    <g id="text_8">
     <!-- Price ($/L) -->
     <g transform="translate(203.917188 200.95625) scale(0.12 -0.12)">
      <defs>
       <path id="DejaVuSans-50" d="M 1259 4147 
L 1259 2394 
L 2053 2394 
Q 2494 2394 2734 2622 
Q 2975 2850 2975 3272 
Q 2975 3691 2734 3919 
Q 2494 4147 2053 4147 
L 1259 4147 
z
M 628 4666 
L 2053 4666 
Q 2838 4666 3239 4311 
Q 3641 3956 3641 3272 
Q 3641 2581 3239 2228 
Q 2838 1875 2053 1875 
L 1259 1875 
L 1259 0 
L 628 0 
L 628 4666 
z
" transform="scale(0.015625)"/>
       <path id="DejaVuSans-72" d="M 2631 2963 
Q 2534 3019 2420 3045 
Q 2306 3072 2169 3072 
Q 1681 3072 1420 2755 
Q 1159 2438 1159 1844 
L 1159 0 
L 581 0 
L 581 3500 
L 1159 3500 
L 1159 2956 
Q 1341 3275 1631 3429 
Q 1922 3584 2338 3584 
Q 2397 3584 2469 3576 
Q 2541 3569 2628 3553 
L 2631 2963 
z
" transform="scale(0.015625)"/>
       <path id="DejaVuSans-69" d="M 603 3500 
L 1178 3500 
L 1178 0 
L 603 0 
L 603 3500 
z
M 603 4863 
L 1178 4863 
L 1178 4134 
L 603 4134 
L 603 4863 
z
" transform="scale(0.015625)"/>
       <path id="DejaVuSans-63" d="M 3122 3366 
L 3122 2828 
Q 2878 2963 2633 3030 
Q 2388 3097 2138 3097 
Q 1578 3097 1268 2742 
Q 959 2388 959 1747 
Q 959 1106 1268 751 
Q 1578 397 2138 397 
Q 2388 397 2633 464 
Q 2878 531 3122 666 
L 3122 134 
Q 2881 22 2623 -34 
Q 2366 -91 2075 -91 
Q 1284 -91 818 406 
Q 353 903 353 1747 
Q 353 2603 823 3093 
Q 1294 3584 2113 3584 
Q 2378 3584 2631 3529 
Q 2884 3475 3122 3366 
z
" transform="scale(0.015625)"/>
       <path id="DejaVuSans-65" d="M 3597 1894 
L 3597 1613 
L 953 1613 
Q 991 1019 1311 708 
Q 1631 397 2203 397 
Q 2534 397 2845 478 
Q 3156 559 3463 722 
L 3463 178 
Q 3153 47 2828 -22 
Q 2503 -91 2169 -91 
Q 1331 -91 842 396 
Q 353 884 353 1716 
Q 353 2575 817 3079 
Q 1281 3584 2069 3584 
Q 2775 3584 3186 3129 
Q 3597 2675 3597 1894 
z
M 3022 2063 
Q 3016 2534 2758 2815 
Q 2500 3097 2075 3097 
Q 1594 3097 1305 2825 
Q 1016 2553 972 2059 
L 3022 2063 
z
" transform="scale(0.015625)"/>
       <path id="DejaVuSans-20" transform="scale(0.015625)"/>
       <path id="DejaVuSans-28" d="M 1984 4856 
Q 1566 4138 1362 3434 
Q 1159 2731 1159 2009 
Q 1159 1288 1364 580 
Q 1569 -128 1984 -844 
L 1484 -844 
Q 1016 -109 783 600 
Q 550 1309 550 2009 
Q 550 2706 781 3412 
Q 1013 4119 1484 4856 
L 1984 4856 
z
" transform="scale(0.015625)"/>
       <path id="DejaVuSans-24" d="M 2163 -941 
L 1850 -941 
L 1847 0 
Q 1519 6 1191 76 
Q 863 147 531 288 
L 531 850 
Q 850 650 1176 548 
Q 1503 447 1850 444 
L 1850 1869 
Q 1159 1981 845 2250 
Q 531 2519 531 2988 
Q 531 3497 872 3790 
Q 1213 4084 1850 4128 
L 1850 4863 
L 2163 4863 
L 2163 4138 
Q 2453 4125 2725 4076 
Q 2997 4028 3256 3944 
L 3256 3397 
Q 2997 3528 2723 3600 
Q 2450 3672 2163 3684 
L 2163 2350 
Q 2872 2241 3206 1959 
Q 3541 1678 3541 1191 
Q 3541 663 3186 358 
Q 2831 53 2163 6 
L 2163 -941 
z
M 1850 2406 
L 1850 3688 
Q 1488 3647 1297 3481 
Q 1106 3316 1106 3041 
Q 1106 2772 1282 2622 
Q 1459 2472 1850 2406 
z
M 2163 1806 
L 2163 453 
Q 2559 506 2761 678 
Q 2963 850 2963 1131 
Q 2963 1406 2770 1568 
Q 2578 1731 2163 1806 
z
" transform="scale(0.015625)"/>
       <path id="DejaVuSans-2f" d="M 1625 4666 
L 2156 4666 
L 531 -594 
L 0 -594 
L 1625 4666 
z
" transform="scale(0.015625)"/>
       <path id="DejaVuSans-4c" d="M 628 4666 
L 1259 4666 
L 1259 531 
L 3531 531 
L 3531 0 
L 628 0 
L 628 4666 
z
" transform="scale(0.015625)"/>
       <path id="DejaVuSans-29" d="M 513 4856 
L 1013 4856 
Q 1481 4119 1714 3412 
Q 1947 2706 1947 2009 
Q 1947 1309 1714 600 
Q 1481 -109 1013 -844 
L 513 -844 
Q 928 -128 1133 580 
Q 1338 1288 1338 2009 
Q 1338 2731 1133 3434 
Q 928 4138 513 4856 
z
" transform="scale(0.015625)"/>
      </defs>
      <use xlink:href="#DejaVuSans-50"/>
      <use xlink:href="#DejaVuSans-72" transform="translate(58.552734 0)"/>
      <use xlink:href="#DejaVuSans-69" transform="translate(99.666016 0)"/>
      <use xlink:href="#DejaVuSans-63" transform="translate(127.449219 0)"/>
      <use xlink:href="#DejaVuSans-65" transform="translate(182.429688 0)"/>
      <use xlink:href="#DejaVuSans-20" transform="translate(243.953125 0)"/>
      <use xlink:href="#DejaVuSans-28" transform="translate(275.740234 0)"/>
      <use xlink:href="#DejaVuSans-24" transform="translate(314.753906 0)"/>
      <use xlink:href="#DejaVuSans-2f" transform="translate(378.376953 0)"/>
      <use xlink:href="#DejaVuSans-4c" transform="translate(412.068359 0)"/>
      <use xlink:href="#DejaVuSans-29" transform="translate(467.78125 0)"/>
     </g>
    </g>
   </g>
   <g id="matplotlib.axis_2">
    <g id="ytick_1">
     <g id="line2d_15">
      <path d="M 47.45 171.16 
L 421.2 171.16 
" clip-path="url(#p222cd71622)" style="fill: none; stroke: #b0b0b0; stroke-opacity: 0.3; stroke-width: 0.8; stroke-linecap: square"/>
     </g>
     <g id="line2d_16">
      <defs>
       <path id="m1423b7f72b" d="M 0 0 
L -3.5 0 
" style="stroke: #000000; stroke-width: 0.8"/>
      </defs>
      <g>
       <use xlink:href="#m1423b7f72b" x="47.45" y="171.16" style="stroke: #000000; stroke-width: 0.8"/>
      </g>
     </g>
     <g id="text_9">
      <!-- 0 -->
      <g transform="translate(34.0875 174.959219) scale(0.1 -0.1)">
       <use xlink:href="#DejaVuSans-30"/>
      </g>
     </g>
    </g>
    <g id="ytick_2">
     <g id="line2d_17">
      <path d="M 47.45 139.769541 
L 421.2 139.769541 
" clip-path="url(#p222cd71622)" style="fill: none; stroke: #b0b0b0; stroke-opacity: 0.3; stroke-width: 0.8; stroke-linecap: square"/>
     </g>
     <g id="line2d_18">
      <g>
       <use xlink:href="#m1423b7f72b" x="47.45" y="139.769541" style="stroke: #000000; stroke-width: 0.8"/>
      </g>
     </g>
     <g id="text_10">
      <!-- 5 -->
      <g transform="translate(34.0875 143.56876) scale(0.1 -0.1)">
       <defs>
        <path id="DejaVuSans-35" d="M 691 4666 
L 3169 4666 
L 3169 4134 
L 1269 4134 
L 1269 2991 
Q 1406 3038 1543 3061 
Q 1681 3084 1819 3084 
Q 2600 3084 3056 2656 
Q 3513 2228 3513 1497 
Q 3513 744 3044 326 
Q 2575 -91 1722 -91 
Q 1428 -91 1123 -41 
Q 819 9 494 109 
L 494 744 
Q 775 591 1075 516 
Q 1375 441 1709 441 
Q 2250 441 2565 725 
Q 2881 1009 2881 1497 
Q 2881 1984 2565 2268 
Q 2250 2553 1709 2553 
Q 1456 2553 1204 2497 
Q 953 2441 691 2322 
L 691 4666 
z
" transform="scale(0.015625)"/>
       </defs>
       <use xlink:href="#DejaVuSans-35"/>
      </g>
     </g>
    </g>
    <g id="ytick_3">
     <g id="line2d_19">
      <path d="M 47.45 108.379082 
L 421.2 108.379082 
" clip-path="url(#p222cd71622)" style="fill: none; stroke: #b0b0b0; stroke-opacity: 0.3; stroke-width: 0.8; stroke-linecap: square"/>
     </g>
     <g id="line2d_20">
      <g>
       <use xlink:href="#m1423b7f72b" x="47.45" y="108.379082" style="stroke: #000000; stroke-width: 0.8"/>
      </g>
     </g>
     <g id="text_11">
      <!-- 10 -->
      <g transform="translate(27.725 112.1783) scale(0.1 -0.1)">
       <use xlink:href="#DejaVuSans-31"/>
       <use xlink:href="#DejaVuSans-30" transform="translate(63.623047 0)"/>
      </g>
     </g>
    </g>
    <g id="ytick_4">
     <g id="line2d_21">
      <path d="M 47.45 76.988622 
L 421.2 76.988622 
" clip-path="url(#p222cd71622)" style="fill: none; stroke: #b0b0b0; stroke-opacity: 0.3; stroke-width: 0.8; stroke-linecap: square"/>
     </g>
     <g id="line2d_22">
      <g>
       <use xlink:href="#m1423b7f72b" x="47.45" y="76.988622" style="stroke: #000000; stroke-width: 0.8"/>
      </g>
     </g>
     <g id="text_12">
      <!-- 15 -->
      <g transform="translate(27.725 80.787841) scale(0.1 -0.1)">
       <use xlink:href="#DejaVuSans-31"/>
       <use xlink:href="#DejaVuSans-35" transform="translate(63.623047 0)"/>
      </g>
     </g>
    </g>
    <g id="ytick_5">
     <g id="line2d_23">
      <path d="M 47.45 45.598163 
L 421.2 45.598163 
" clip-path="url(#p222cd71622)" style="fill: none; stroke: #b0b0b0; stroke-opacity: 0.3; stroke-width: 0.8; stroke-linecap: square"/>
     </g>
     <g id="line2d_24">
      <g>
       <use xlink:href="#m1423b7f72b" x="47.45" y="45.598163" style="stroke: #000000; stroke-width: 0.8"/>
      </g>
     </g>
     <g id="text_13">
      <!-- 20 -->
      <g transform="translate(27.725 49.397382) scale(0.1 -0.1)">
       <use xlink:href="#DejaVuSans-32"/>
       <use xlink:href="#DejaVuSans-30" transform="translate(63.623047 0)"/>
      </g>
     </g>
    </g>
    <g id="text_14">
     <!-- Frequency -->
     <g transform="translate(21.229375 130.375625) rotate(-90) scale(0.12 -0.12)">
      <defs>
       <path id="DejaVuSans-46" d="M 628 4666 
L 3309 4666 
L 3309 4134 
L 1259 4134 
L 1259 2759 
L 3109 2759 
L 3109 2228 
L 1259 2228 
L 1259 0 
L 628 0 
L 628 4666 
z
" transform="scale(0.015625)"/>
       <path id="DejaVuSans-71" d="M 947 1747 
Q 947 1113 1208 752 
Q 1469 391 1925 391 
Q 2381 391 2643 752 
Q 2906 1113 2906 1747 
Q 2906 2381 2643 2742 
Q 2381 3103 1925 3103 
Q 1469 3103 1208 2742 
Q 947 2381 947 1747 
z
M 2906 525 
Q 2725 213 2448 61 
Q 2172 -91 1784 -91 
Q 1150 -91 751 415 
Q 353 922 353 1747 
Q 353 2572 751 3078 
Q 1150 3584 1784 3584 
Q 2172 3584 2448 3432 
Q 2725 3281 2906 2969 
L 2906 3500 
L 3481 3500 
L 3481 -1331 
L 2906 -1331 
L 2906 525 
z
" transform="scale(0.015625)"/>
       <path id="DejaVuSans-75" d="M 544 1381 
L 544 3500 
L 1119 3500 
L 1119 1403 
Q 1119 906 1312 657 
Q 1506 409 1894 409 
Q 2359 409 2629 706 
Q 2900 1003 2900 1516 
L 2900 3500 
L 3475 3500 
L 3475 0 
L 2900 0 
L 2900 538 
Q 2691 219 2414 64 
Q 2138 -91 1772 -91 
Q 1169 -91 856 284 
Q 544 659 544 1381 
z
M 1991 3584 
L 1991 3584 
z
" transform="scale(0.015625)"/>
       <path id="DejaVuSans-6e" d="M 3513 2113 
L 3513 0 
L 2938 0 
L 2938 2094 
Q 2938 2591 2744 2837 
Q 2550 3084 2163 3084 
Q 1697 3084 1428 2787 
Q 1159 2491 1159 1978 
L 1159 0 
L 581 0 
L 581 3500 
L 1159 3500 
L 1159 2956 
Q 1366 3272 1645 3428 
Q 1925 3584 2291 3584 
Q 2894 3584 3203 3211 
Q 3513 2838 3513 2113 
z
" transform="scale(0.015625)"/>
       <path id="DejaVuSans-79" d="M 2059 -325 
Q 1816 -950 1584 -1140 
Q 1353 -1331 966 -1331 
L 506 -1331 
L 506 -850 
L 844 -850 
Q 1081 -850 1212 -737 
Q 1344 -625 1503 -206 
L 1606 56 
L 191 3500 
L 800 3500 
L 1894 763 
L 2988 3500 
L 3597 3500 
L 2059 -325 
z
" transform="scale(0.015625)"/>
      </defs>
      <use xlink:href="#DejaVuSans-46"/>
      <use xlink:href="#DejaVuSans-72" transform="translate(50.269531 0)"/>
      <use xlink:href="#DejaVuSans-65" transform="translate(89.132812 0)"/>
      <use xlink:href="#DejaVuSans-71" transform="translate(150.65625 0)"/>
      <use xlink:href="#DejaVuSans-75" transform="translate(214.132812 0)"/>
      <use xlink:href="#DejaVuSans-65" transform="translate(277.511719 0)"/>
      <use xlink:href="#DejaVuSans-6e" transform="translate(339.035156 0)"/>
      <use xlink:href="#DejaVuSans-63" transform="translate(402.414062 0)"/>
      <use xlink:href="#DejaVuSans-79" transform="translate(457.394531 0)"/>
     </g>
    </g>
   </g>
   <g id="line2d_25">
    <path d="M 352.597033 166.734264 
L 353.375139 166.820019 
L 354.412613 167.181672 
L 355.709455 167.921366 
L 358.562509 169.678117 
L 359.599983 170.068683 
L 360.637457 170.231639 
L 361.674931 170.126398 
L 362.453036 169.847668 
L 363.231142 169.379566 
L 364.268616 168.440064 
L 365.30609 167.137681 
L 366.602932 165.066165 
L 368.67788 161.193479 
L 371.530933 155.541823 
L 372.309039 153.560137 
L 373.087144 151.00093 
L 373.86525 147.546691 
L 374.643355 142.847495 
L 375.421461 136.568045 
L 376.199566 128.451205 
L 377.23704 114.620798 
L 378.533883 93.211699 
L 380.868199 52.998689 
L 381.646305 43.096649 
L 382.165042 38.388127 
L 382.683779 35.456787 
L 382.943147 34.702929 
L 383.202516 34.43619 
L 383.461884 34.658273 
L 383.721253 35.364563 
L 384.23999 38.180072 
L 384.758727 42.723879 
L 385.536832 52.223787 
L 386.833675 72.360065 
L 388.389885 96.365896 
L 389.167991 105.752738 
L 389.946096 112.493185 
L 390.464833 115.399306 
L 390.98357 117.063276 
L 391.242939 117.458764 
L 391.502307 117.586695 
L 391.761676 117.468947 
L 392.021044 117.130376 
L 392.539781 115.90255 
L 393.317887 113.148668 
L 394.614729 108.291311 
L 395.133466 106.960526 
L 395.652203 106.270045 
L 395.911572 106.206862 
L 396.17094 106.347051 
L 396.430309 106.697502 
L 396.949046 108.038234 
L 397.467783 110.21143 
L 398.245888 114.865862 
L 399.283362 122.995456 
L 402.136416 147.02954 
L 403.17389 153.649482 
L 404.211364 158.669771 
L 404.211364 158.669771 
" clip-path="url(#p222cd71622)" style="fill: none; stroke: #1f77b4; stroke-width: 1.5; stroke-linecap: square"/>
   </g>
   <g id="line2d_26">
    <path d="M 385.903863 171.16 
L 385.903863 27.6 
" clip-path="url(#p222cd71622)" style="fill: none; stroke-dasharray: 5.55,2.4; stroke-dashoffset: 0; stroke: #1f77b4; stroke-width: 1.5"/>
   </g>
   <g id="line2d_27">
    <path d="M 69.626006 169.738656 
L 74.904611 169.865287 
L 82.294658 170.329631 
L 91.796147 170.885953 
L 99.186194 171.083825 
L 111.854846 171.156377 
L 193.145364 171.121238 
L 200.535411 170.950005 
L 204.758295 170.680892 
L 208.981179 170.165653 
L 212.148342 169.536417 
L 215.315505 168.624756 
L 217.426947 167.823875 
L 219.538389 166.841515 
L 221.649831 165.653161 
L 223.761273 164.232955 
L 225.872715 162.553808 
L 227.984157 160.588039 
L 230.095599 158.308864 
L 232.207041 155.693011 
L 234.318483 152.724563 
L 236.429925 149.399917 
L 238.541367 145.733428 
L 241.70853 139.683305 
L 251.210019 120.709346 
L 253.321461 117.291231 
L 255.432903 114.539793 
L 256.488624 113.46343 
L 257.544345 112.609209 
L 258.600066 111.991006 
L 259.655787 111.619843 
L 260.711508 111.503602 
L 261.767229 111.646814 
L 262.82295 112.050515 
L 263.878671 112.712185 
L 264.934392 113.625766 
L 265.990113 114.781756 
L 267.045834 116.167383 
L 269.157276 119.561681 
L 271.268718 123.65213 
L 273.38016 128.251841 
L 279.714486 143.094935 
L 279.714486 143.094935 
" clip-path="url(#p222cd71622)" style="fill: none; stroke: #ff7f0e; stroke-width: 1.5; stroke-linecap: square"/>
   </g>
   <g id="line2d_28">
    <path d="M 255.620518 171.16 
L 255.620518 27.6 
" clip-path="url(#p222cd71622)" style="fill: none; stroke-dasharray: 5.55,2.4; stroke-dashoffset: 0; stroke: #ff7f0e; stroke-width: 1.5"/>
   </g>
   <g id="line2d_29">
    <path d="M 64.438636 170.375684 
L 76.325273 170.480926 
L 120.90016 171.129606 
L 158.541175 171.14854 
L 177.361683 171.002236 
L 186.276661 170.719556 
L 193.210532 170.269289 
L 199.15385 169.632491 
L 204.106615 168.869958 
L 209.059381 167.861239 
L 214.012146 166.592429 
L 218.964911 165.078988 
L 224.908229 163.018151 
L 235.804313 159.150204 
L 239.766525 157.96621 
L 243.728737 157.031054 
L 246.700396 156.535901 
L 249.672055 156.243215 
L 252.643714 156.167529 
L 255.615374 156.314132 
L 258.587033 156.678508 
L 261.558692 157.246503 
L 261.558692 157.246503 
" clip-path="url(#p222cd71622)" style="fill: none; stroke: #2ca02c; stroke-width: 1.5; stroke-linecap: square"/>
   </g>
   <g id="line2d_30">
    <path d="M 242.954897 171.16 
L 242.954897 27.6 
" clip-path="url(#p222cd71622)" style="fill: none; stroke-dasharray: 5.55,2.4; stroke-dashoffset: 0; stroke: #2ca02c; stroke-width: 1.5"/>
   </g>
   <g id="patch_3">
    <path d="M 47.45 171.16 
L 47.45 27.6 
" style="fill: none; stroke: #000000; stroke-width: 0.8; stroke-linejoin: miter; stroke-linecap: square"/>
   </g>
   <g id="patch_4">
    <path d="M 421.2 171.16 
L 421.2 27.6 
" style="fill: none; stroke: #000000; stroke-width: 0.8; stroke-linejoin: miter; stroke-linecap: square"/>
   </g>
   <g id="patch_5">
    <path d="M 47.45 171.16 
L 421.2 171.16 
" style="fill: none; stroke: #000000; stroke-width: 0.8; stroke-linejoin: miter; stroke-linecap: square"/>
   </g>
   <g id="patch_6">
    <path d="M 47.45 27.6 
L 421.2 27.6 
" style="fill: none; stroke: #000000; stroke-width: 0.8; stroke-linejoin: miter; stroke-linecap: square"/>
   </g>
   <g id="text_15">
    <!-- Today's Fuel Price Distributions -->
    <g transform="translate(125.946406 21.6) scale(0.14 -0.14)">
     <defs>
      <path id="DejaVuSans-54" d="M -19 4666 
L 3928 4666 
L 3928 4134 
L 2272 4134 
L 2272 0 
L 1638 0 
L 1638 4134 
L -19 4134 
L -19 4666 
z
" transform="scale(0.015625)"/>
      <path id="DejaVuSans-6f" d="M 1959 3097 
Q 1497 3097 1228 2736 
Q 959 2375 959 1747 
Q 959 1119 1226 758 
Q 1494 397 1959 397 
Q 2419 397 2687 759 
Q 2956 1122 2956 1747 
Q 2956 2369 2687 2733 
Q 2419 3097 1959 3097 
z
M 1959 3584 
Q 2709 3584 3137 3096 
Q 3566 2609 3566 1747 
Q 3566 888 3137 398 
Q 2709 -91 1959 -91 
Q 1206 -91 779 398 
Q 353 888 353 1747 
Q 353 2609 779 3096 
Q 1206 3584 1959 3584 
z
" transform="scale(0.015625)"/>
      <path id="DejaVuSans-64" d="M 2906 2969 
L 2906 4863 
L 3481 4863 
L 3481 0 
L 2906 0 
L 2906 525 
Q 2725 213 2448 61 
Q 2172 -91 1784 -91 
Q 1150 -91 751 415 
Q 353 922 353 1747 
Q 353 2572 751 3078 
Q 1150 3584 1784 3584 
Q 2172 3584 2448 3432 
Q 2725 3281 2906 2969 
z
M 947 1747 
Q 947 1113 1208 752 
Q 1469 391 1925 391 
Q 2381 391 2643 752 
Q 2906 1113 2906 1747 
Q 2906 2381 2643 2742 
Q 2381 3103 1925 3103 
Q 1469 3103 1208 2742 
Q 947 2381 947 1747 
z
" transform="scale(0.015625)"/>
      <path id="DejaVuSans-61" d="M 2194 1759 
Q 1497 1759 1228 1600 
Q 959 1441 959 1056 
Q 959 750 1161 570 
Q 1363 391 1709 391 
Q 2188 391 2477 730 
Q 2766 1069 2766 1631 
L 2766 1759 
L 2194 1759 
z
M 3341 1997 
L 3341 0 
L 2766 0 
L 2766 531 
Q 2569 213 2275 61 
Q 1981 -91 1556 -91 
Q 1019 -91 701 211 
Q 384 513 384 1019 
Q 384 1609 779 1909 
Q 1175 2209 1959 2209 
L 2766 2209 
L 2766 2266 
Q 2766 2663 2505 2880 
Q 2244 3097 1772 3097 
Q 1472 3097 1187 3025 
Q 903 2953 641 2809 
L 641 3341 
Q 956 3463 1253 3523 
Q 1550 3584 1831 3584 
Q 2591 3584 2966 3190 
Q 3341 2797 3341 1997 
z
" transform="scale(0.015625)"/>
      <path id="DejaVuSans-27" d="M 1147 4666 
L 1147 2931 
L 616 2931 
L 616 4666 
L 1147 4666 
z
" transform="scale(0.015625)"/>
      <path id="DejaVuSans-73" d="M 2834 3397 
L 2834 2853 
Q 2591 2978 2328 3040 
Q 2066 3103 1784 3103 
Q 1356 3103 1142 2972 
Q 928 2841 928 2578 
Q 928 2378 1081 2264 
Q 1234 2150 1697 2047 
L 1894 2003 
Q 2506 1872 2764 1633 
Q 3022 1394 3022 966 
Q 3022 478 2636 193 
Q 2250 -91 1575 -91 
Q 1294 -91 989 -36 
Q 684 19 347 128 
L 347 722 
Q 666 556 975 473 
Q 1284 391 1588 391 
Q 1994 391 2212 530 
Q 2431 669 2431 922 
Q 2431 1156 2273 1281 
Q 2116 1406 1581 1522 
L 1381 1569 
Q 847 1681 609 1914 
Q 372 2147 372 2553 
Q 372 3047 722 3315 
Q 1072 3584 1716 3584 
Q 2034 3584 2315 3537 
Q 2597 3491 2834 3397 
z
" transform="scale(0.015625)"/>
      <path id="DejaVuSans-6c" d="M 603 4863 
L 1178 4863 
L 1178 0 
L 603 0 
L 603 4863 
z
" transform="scale(0.015625)"/>
      <path id="DejaVuSans-44" d="M 1259 4147 
L 1259 519 
L 2022 519 
Q 2988 519 3436 956 
Q 3884 1394 3884 2338 
Q 3884 3275 3436 3711 
Q 2988 4147 2022 4147 
L 1259 4147 
z
M 628 4666 
L 1925 4666 
Q 3281 4666 3915 4102 
Q 4550 3538 4550 2338 
Q 4550 1131 3912 565 
Q 3275 0 1925 0 
L 628 0 
L 628 4666 
z
" transform="scale(0.015625)"/>
      <path id="DejaVuSans-74" d="M 1172 4494 
L 1172 3500 
L 2356 3500 
L 2356 3053 
L 1172 3053 
L 1172 1153 
Q 1172 725 1289 603 
Q 1406 481 1766 481 
L 2356 481 
L 2356 0 
L 1766 0 
Q 1100 0 847 248 
Q 594 497 594 1153 
L 594 3053 
L 172 3053 
L 172 3500 
L 594 3500 
L 594 4494 
L 1172 4494 
z
" transform="scale(0.015625)"/>
      <path id="DejaVuSans-62" d="M 3116 1747 
Q 3116 2381 2855 2742 
Q 2594 3103 2138 3103 
Q 1681 3103 1420 2742 
Q 1159 2381 1159 1747 
Q 1159 1113 1420 752 
Q 1681 391 2138 391 
Q 2594 391 2855 752 
Q 3116 1113 3116 1747 
z
M 1159 2969 
Q 1341 3281 1617 3432 
Q 1894 3584 2278 3584 
Q 2916 3584 3314 3078 
Q 3713 2572 3713 1747 
Q 3713 922 3314 415 
Q 2916 -91 2278 -91 
Q 1894 -91 1617 61 
Q 1341 213 1159 525 
L 1159 0 
L 581 0 
L 581 4863 
L 1159 4863 
L 1159 2969 
z
" transform="scale(0.015625)"/>
     </defs>
     <use xlink:href="#DejaVuSans-54"/>
     <use xlink:href="#DejaVuSans-6f" transform="translate(44.083984 0)"/>
     <use xlink:href="#DejaVuSans-64" transform="translate(105.265625 0)"/>
     <use xlink:href="#DejaVuSans-61" transform="translate(168.742188 0)"/>
     <use xlink:href="#DejaVuSans-79" transform="translate(230.021484 0)"/>
     <use xlink:href="#DejaVuSans-27" transform="translate(289.201172 0)"/>
     <use xlink:href="#DejaVuSans-73" transform="translate(316.691406 0)"/>
     <use xlink:href="#DejaVuSans-20" transform="translate(368.791016 0)"/>
     <use xlink:href="#DejaVuSans-46" transform="translate(400.578125 0)"/>
     <use xlink:href="#DejaVuSans-75" transform="translate(452.597656 0)"/>
     <use xlink:href="#DejaVuSans-65" transform="translate(515.976562 0)"/>
     <use xlink:href="#DejaVuSans-6c" transform="translate(577.5 0)"/>
     <use xlink:href="#DejaVuSans-20" transform="translate(605.283203 0)"/>
     <use xlink:href="#DejaVuSans-50" transform="translate(637.070312 0)"/>
     <use xlink:href="#DejaVuSans-72" transform="translate(695.623047 0)"/>
     <use xlink:href="#DejaVuSans-69" transform="translate(736.736328 0)"/>
     <use xlink:href="#DejaVuSans-63" transform="translate(764.519531 0)"/>
     <use xlink:href="#DejaVuSans-65" transform="translate(819.5 0)"/>
     <use xlink:href="#DejaVuSans-20" transform="translate(881.023438 0)"/>
     <use xlink:href="#DejaVuSans-44" transform="translate(912.810547 0)"/>
     <use xlink:href="#DejaVuSans-69" transform="translate(989.8125 0)"/>
     <use xlink:href="#DejaVuSans-73" transform="translate(1017.595703 0)"/>
     <use xlink:href="#DejaVuSans-74" transform="translate(1069.695312 0)"/>
     <use xlink:href="#DejaVuSans-72" transform="translate(1108.904297 0)"/>
     <use xlink:href="#DejaVuSans-69" transform="translate(1150.017578 0)"/>
     <use xlink:href="#DejaVuSans-62" transform="translate(1177.800781 0)"/>
     <use xlink:href="#DejaVuSans-75" transform="translate(1241.277344 0)"/>
     <use xlink:href="#DejaVuSans-74" transform="translate(1304.65625 0)"/>
     <use xlink:href="#DejaVuSans-69" transform="translate(1343.865234 0)"/>
     <use xlink:href="#DejaVuSans-6f" transform="translate(1371.648438 0)"/>
     <use xlink:href="#DejaVuSans-6e" transform="translate(1432.830078 0)"/>
     <use xlink:href="#DejaVuSans-73" transform="translate(1496.208984 0)"/>
    </g>
   </g>
   <g id="legend_1">
    <g id="patch_7">
     <path d="M 54.45 94.378125 
L 192.15 94.378125 
Q 194.15 94.378125 194.15 92.378125 
L 194.15 34.6 
Q 194.15 32.6 192.15 32.6 
L 54.45 32.6 
Q 52.45 32.6 52.45 34.6 
L 52.45 92.378125 
Q 52.45 94.378125 54.45 94.378125 
z
" style="fill: #ffffff; opacity: 0.8; stroke: #cccccc; stroke-linejoin: miter"/>
    </g>
    <g id="text_16">
     <!-- Fuel Type -->
     <g transform="translate(99.992969 44.198437) scale(0.1 -0.1)">
      <defs>
       <path id="DejaVuSans-70" d="M 1159 525 
L 1159 -1331 
L 581 -1331 
L 581 3500 
L 1159 3500 
L 1159 2969 
Q 1341 3281 1617 3432 
Q 1894 3584 2278 3584 
Q 2916 3584 3314 3078 
Q 3713 2572 3713 1747 
Q 3713 922 3314 415 
Q 2916 -91 2278 -91 
Q 1894 -91 1617 61 
Q 1341 213 1159 525 
z
M 3116 1747 
Q 3116 2381 2855 2742 
Q 2594 3103 2138 3103 
Q 1681 3103 1420 2742 
Q 1159 2381 1159 1747 
Q 1159 1113 1420 752 
Q 1681 391 2138 391 
Q 2594 391 2855 752 
Q 3116 1113 3116 1747 
z
" transform="scale(0.015625)"/>
      </defs>
      <use xlink:href="#DejaVuSans-46"/>
      <use xlink:href="#DejaVuSans-75" transform="translate(52.019531 0)"/>
      <use xlink:href="#DejaVuSans-65" transform="translate(115.398438 0)"/>
      <use xlink:href="#DejaVuSans-6c" transform="translate(176.921875 0)"/>
      <use xlink:href="#DejaVuSans-20" transform="translate(204.705078 0)"/>
      <use xlink:href="#DejaVuSans-54" transform="translate(236.492188 0)"/>
      <use xlink:href="#DejaVuSans-79" transform="translate(281.951172 0)"/>
      <use xlink:href="#DejaVuSans-70" transform="translate(341.130859 0)"/>
      <use xlink:href="#DejaVuSans-65" transform="translate(404.607422 0)"/>
     </g>
    </g>
    <g id="patch_8">
     <path d="M 56.45 58.878125 
L 76.45 58.878125 
L 76.45 51.878125 
L 56.45 51.878125 
z
" style="fill: #1f77b4; fill-opacity: 0.4; stroke: #1f77b4; stroke-linejoin: miter"/>
    </g>
    <g id="text_17">
     <!-- Diesel ($\mu=\$2.96$) -->
     <g transform="translate(84.45 58.878125) scale(0.1 -0.1)">
      <defs>
       <path id="DejaVuSans-Oblique-3bc" d="M -84 -1331 
L 856 3500 
L 1434 3500 
L 1009 1322 
Q 997 1256 987 1175 
Q 978 1094 978 1013 
Q 978 722 1161 565 
Q 1344 409 1684 409 
Q 2147 409 2431 671 
Q 2716 934 2816 1459 
L 3213 3500 
L 3788 3500 
L 3266 809 
Q 3253 750 3248 706 
Q 3244 663 3244 628 
Q 3244 531 3283 486 
Q 3322 441 3406 441 
Q 3438 441 3492 456 
Q 3547 472 3647 513 
L 3559 50 
Q 3422 -19 3297 -55 
Q 3172 -91 3053 -91 
Q 2847 -91 2730 40 
Q 2613 172 2613 403 
Q 2438 153 2195 31 
Q 1953 -91 1625 -91 
Q 1334 -91 1117 43 
Q 900 178 831 397 
L 494 -1331 
L -84 -1331 
z
" transform="scale(0.015625)"/>
       <path id="DejaVuSans-3d" d="M 678 2906 
L 4684 2906 
L 4684 2381 
L 678 2381 
L 678 2906 
z
M 678 1631 
L 4684 1631 
L 4684 1100 
L 678 1100 
L 678 1631 
z
" transform="scale(0.015625)"/>
       <path id="DejaVuSans-39" d="M 703 97 
L 703 672 
Q 941 559 1184 500 
Q 1428 441 1663 441 
Q 2288 441 2617 861 
Q 2947 1281 2994 2138 
Q 2813 1869 2534 1725 
Q 2256 1581 1919 1581 
Q 1219 1581 811 2004 
Q 403 2428 403 3163 
Q 403 3881 828 4315 
Q 1253 4750 1959 4750 
Q 2769 4750 3195 4129 
Q 3622 3509 3622 2328 
Q 3622 1225 3098 567 
Q 2575 -91 1691 -91 
Q 1453 -91 1209 -44 
Q 966 3 703 97 
z
M 1959 2075 
Q 2384 2075 2632 2365 
Q 2881 2656 2881 3163 
Q 2881 3666 2632 3958 
Q 2384 4250 1959 4250 
Q 1534 4250 1286 3958 
Q 1038 3666 1038 3163 
Q 1038 2656 1286 2365 
Q 1534 2075 1959 2075 
z
" transform="scale(0.015625)"/>
      </defs>
      <use xlink:href="#DejaVuSans-44" transform="translate(0 0.015625)"/>
      <use xlink:href="#DejaVuSans-69" transform="translate(77.001953 0.015625)"/>
      <use xlink:href="#DejaVuSans-65" transform="translate(104.785156 0.015625)"/>
      <use xlink:href="#DejaVuSans-73" transform="translate(166.308594 0.015625)"/>
      <use xlink:href="#DejaVuSans-65" transform="translate(218.408203 0.015625)"/>
      <use xlink:href="#DejaVuSans-6c" transform="translate(279.931641 0.015625)"/>
      <use xlink:href="#DejaVuSans-20" transform="translate(307.714844 0.015625)"/>
      <use xlink:href="#DejaVuSans-28" transform="translate(339.501953 0.015625)"/>
      <use xlink:href="#DejaVuSans-Oblique-3bc" transform="translate(378.515625 0.015625)"/>
      <use xlink:href="#DejaVuSans-3d" transform="translate(461.621094 0.015625)"/>
      <use xlink:href="#DejaVuSans-24" transform="translate(564.892578 0.015625)"/>
      <use xlink:href="#DejaVuSans-32" transform="translate(626.765625 0.015625)"/>
      <use xlink:href="#DejaVuSans-2e" transform="translate(690.388672 0.015625)"/>
      <use xlink:href="#DejaVuSans-39" transform="translate(722.175781 0.015625)"/>
      <use xlink:href="#DejaVuSans-36" transform="translate(785.798828 0.015625)"/>
      <use xlink:href="#DejaVuSans-29" transform="translate(849.421875 0.015625)"/>
     </g>
    </g>
    <g id="patch_9">
     <path d="M 56.45 73.578125 
L 76.45 73.578125 
L 76.45 66.578125 
L 56.45 66.578125 
z
" style="fill: #ff7f0e; fill-opacity: 0.4; stroke: #ff7f0e; stroke-linejoin: miter"/>
    </g>
    <g id="text_18">
     <!-- Unleaded ($\mu=\$2.46$) -->
     <g transform="translate(84.45 73.578125) scale(0.1 -0.1)">
      <defs>
       <path id="DejaVuSans-55" d="M 556 4666 
L 1191 4666 
L 1191 1831 
Q 1191 1081 1462 751 
Q 1734 422 2344 422 
Q 2950 422 3222 751 
Q 3494 1081 3494 1831 
L 3494 4666 
L 4128 4666 
L 4128 1753 
Q 4128 841 3676 375 
Q 3225 -91 2344 -91 
Q 1459 -91 1007 375 
Q 556 841 556 1753 
L 556 4666 
z
" transform="scale(0.015625)"/>
      </defs>
      <use xlink:href="#DejaVuSans-55" transform="translate(0 0.015625)"/>
      <use xlink:href="#DejaVuSans-6e" transform="translate(73.193359 0.015625)"/>
      <use xlink:href="#DejaVuSans-6c" transform="translate(136.572266 0.015625)"/>
      <use xlink:href="#DejaVuSans-65" transform="translate(164.355469 0.015625)"/>
      <use xlink:href="#DejaVuSans-61" transform="translate(225.878906 0.015625)"/>
      <use xlink:href="#DejaVuSans-64" transform="translate(287.158203 0.015625)"/>
      <use xlink:href="#DejaVuSans-65" transform="translate(350.634766 0.015625)"/>
      <use xlink:href="#DejaVuSans-64" transform="translate(412.158203 0.015625)"/>
      <use xlink:href="#DejaVuSans-20" transform="translate(475.634766 0.015625)"/>
      <use xlink:href="#DejaVuSans-28" transform="translate(507.421875 0.015625)"/>
      <use xlink:href="#DejaVuSans-Oblique-3bc" transform="translate(546.435547 0.015625)"/>
      <use xlink:href="#DejaVuSans-3d" transform="translate(629.541016 0.015625)"/>
      <use xlink:href="#DejaVuSans-24" transform="translate(732.8125 0.015625)"/>
      <use xlink:href="#DejaVuSans-32" transform="translate(794.685547 0.015625)"/>
      <use xlink:href="#DejaVuSans-2e" transform="translate(858.308594 0.015625)"/>
      <use xlink:href="#DejaVuSans-34" transform="translate(890.095703 0.015625)"/>
      <use xlink:href="#DejaVuSans-36" transform="translate(953.71875 0.015625)"/>
      <use xlink:href="#DejaVuSans-29" transform="translate(1017.341797 0.015625)"/>
     </g>
    </g>
    <g id="patch_10">
     <path d="M 56.45 88.278125 
L 76.45 88.278125 
L 76.45 81.278125 
L 56.45 81.278125 
z
" style="fill: #2ca02c; fill-opacity: 0.4; stroke: #2ca02c; stroke-linejoin: miter"/>
    </g>
    <g id="text_19">
     <!-- e10 ($\mu=\$2.41$) -->
     <g transform="translate(84.45 88.278125) scale(0.1 -0.1)">
      <use xlink:href="#DejaVuSans-65" transform="translate(0 0.015625)"/>
      <use xlink:href="#DejaVuSans-31" transform="translate(61.523438 0.015625)"/>
      <use xlink:href="#DejaVuSans-30" transform="translate(125.146484 0.015625)"/>
      <use xlink:href="#DejaVuSans-20" transform="translate(188.769531 0.015625)"/>
      <use xlink:href="#DejaVuSans-28" transform="translate(220.556641 0.015625)"/>
      <use xlink:href="#DejaVuSans-Oblique-3bc" transform="translate(259.570312 0.015625)"/>
      <use xlink:href="#DejaVuSans-3d" transform="translate(342.675781 0.015625)"/>
      <use xlink:href="#DejaVuSans-24" transform="translate(445.947266 0.015625)"/>
      <use xlink:href="#DejaVuSans-32" transform="translate(507.820312 0.015625)"/>
      <use xlink:href="#DejaVuSans-2e" transform="translate(571.443359 0.015625)"/>
      <use xlink:href="#DejaVuSans-34" transform="translate(603.230469 0.015625)"/>
      <use xlink:href="#DejaVuSans-31" transform="translate(666.853516 0.015625)"/>
      <use xlink:href="#DejaVuSans-29" transform="translate(730.476562 0.015625)"/>
     </g>
    </g>
   </g>
  </g>
 </g>
 <defs>
  <clipPath id="p222cd71622">
   <rect x="47.45" y="27.6" width="373.75" height="143.56"/>
  </clipPath>
 </defs>
</svg>
