<?xml version="1.0" encoding="utf-8" standalone="no"?>
<!DOCTYPE svg PUBLIC "-//W3C//DTD SVG 1.1//EN"
  "http://www.w3.org/Graphics/SVG/1.1/DTD/svg11.dtd">
<svg xmlns:xlink="http://www.w3.org/1999/xlink" width="432pt" height="216pt" viewBox="0 0 432 216" xmlns="http://www.w3.org/2000/svg" version="1.1">
 <metadata>
  <rdf:RDF xmlns:dc="http://purl.org/dc/elements/1.1/" xmlns:cc="http://creativecommons.org/ns#" xmlns:rdf="http://www.w3.org/1999/02/22-rdf-syntax-ns#">
   <cc:Work>
    <dc:type rdf:resource="http://purl.org/dc/dcmitype/StillImage"/>
    <dc:date>2026-06-15T10:31:09.649604</dc:date>
    <dc:format>image/svg+xml</dc:format>
    <dc:creator>
     <cc:Agent>
      <dc:title>Matplotlib v3.11.0, https://matplotlib.org/</dc:title>
     </cc:Agent>
    </dc:creator>
   </cc:Work>
  </rdf:RDF>
 </metadata>
 <defs>
  <style type="text/css">*{stroke-linejoin: round; stroke-linecap: butt}</style>
 </defs>
 <g id="figure_1">
  <g id="patch_1">
   <path d="M 0 216 
L 432 216 
L 432 0 
L 0 0 
z
" style="fill: #ffffff"/>
  </g>
  <g id="axes_1">
   <g id="patch_2">
    <path d="M 46.76 171.957188 
L 421.2 171.957188 
L 421.2 27.436719 
L 46.76 27.436719 
z
" style="fill: #ffffff"/>
   </g>
   <g id="FillBetweenPolyCollection_1">
    <defs>
     <path id="mfcb3ae72f8" d="M 63.78 -44.042812 
L 63.78 -44.042812 
L 70.726939 -44.042812 
L 70.726939 -44.042812 
L 77.673878 -44.042812 
L 77.673878 -44.042812 
L 84.620816 -44.042812 
L 84.620816 -44.042812 
L 91.567755 -44.042812 
L 91.567755 -44.042812 
L 98.514694 -44.042812 
L 98.514694 -44.042812 
L 105.461633 -44.042812 
L 105.461633 -44.042812 
L 112.408571 -44.042812 
L 112.408571 -44.042812 
L 119.35551 -44.042812 
L 119.35551 -44.042812 
L 126.302449 -44.042812 
L 126.302449 -44.042812 
L 133.249388 -44.042812 
L 133.249388 -44.042812 
L 140.196327 -44.042812 
L 140.196327 -44.042812 
L 147.143265 -44.042812 
L 147.143265 -44.042812 
L 154.090204 -44.042812 
L 154.090204 -44.042812 
L 161.037143 -44.042812 
L 161.037143 -44.042812 
L 167.984082 -44.042812 
L 167.984082 -44.042812 
L 174.93102 -44.042812 
L 174.93102 -44.042812 
L 181.877959 -44.042812 
L 181.877959 -44.042812 
L 188.824898 -44.042812 
L 188.824898 -44.042812 
L 195.771837 -44.042812 
L 195.771837 -44.042812 
L 202.718776 -44.042812 
L 202.718776 -44.042812 
L 209.665714 -44.042812 
L 209.665714 -44.042812 
L 216.612653 -44.042812 
L 216.612653 -44.042812 
L 223.559592 -44.042812 
L 223.559592 -44.042812 
L 230.506531 -44.042812 
L 230.506531 -44.042812 
L 237.453469 -44.042812 
L 237.453469 -44.042812 
L 244.400408 -44.042812 
L 244.400408 -44.042812 
L 251.347347 -44.042812 
L 251.347347 -44.042812 
L 258.294286 -44.042812 
L 258.294286 -44.042812 
L 265.241224 -44.042812 
L 265.241224 -44.042812 
L 272.188163 -44.042812 
L 272.188163 -44.042812 
L 279.135102 -44.042812 
L 279.135102 -44.042812 
L 286.082041 -44.042812 
L 286.082041 -44.042812 
L 293.02898 -44.042812 
L 293.02898 -44.042812 
L 299.975918 -44.042812 
L 299.975918 -44.042812 
L 306.922857 -44.042812 
L 306.922857 -44.042812 
L 313.869796 -44.042812 
L 313.869796 -44.042812 
L 320.816735 -44.042812 
L 320.816735 -44.042812 
L 327.763673 -44.042812 
L 327.763673 -44.042812 
L 334.710612 -44.042812 
L 334.710612 -44.042812 
L 341.657551 -44.042812 
L 341.657551 -44.042812 
L 348.60449 -44.042812 
L 348.60449 -44.042812 
L 355.551429 -44.042812 
L 355.551429 -44.042812 
L 362.498367 -44.042812 
L 362.498367 -44.042812 
L 369.445306 -44.042812 
L 369.445306 -44.042812 
L 376.392245 -44.042812 
L 376.392245 -44.042812 
L 383.339184 -44.042812 
L 383.339184 -44.042812 
L 390.286122 -44.042812 
L 390.286122 -44.042812 
L 397.233061 -44.042812 
L 397.233061 -44.042812 
L 404.18 -44.042812 
L 404.18 -44.042812 
L 404.18 -44.042812 
L 404.18 -44.042812 
L 404.18 -44.042812 
L 397.233061 -44.042812 
L 397.233061 -44.042812 
L 390.286122 -44.042812 
L 390.286122 -44.042812 
L 383.339184 -44.042812 
L 383.339184 -44.042812 
L 376.392245 -44.042812 
L 376.392245 -44.042812 
L 369.445306 -44.042812 
L 369.445306 -44.042812 
L 362.498367 -44.042812 
L 362.498367 -44.042812 
L 355.551429 -44.042812 
L 355.551429 -44.042812 
L 348.60449 -44.042812 
L 348.60449 -44.042812 
L 341.657551 -44.042812 
L 341.657551 -44.042812 
L 334.710612 -44.042812 
L 334.710612 -44.042812 
L 327.763673 -44.042812 
L 327.763673 -44.042812 
L 320.816735 -44.042812 
L 320.816735 -44.042812 
L 313.869796 -44.042812 
L 313.869796 -44.042812 
L 306.922857 -44.042812 
L 306.922857 -44.042812 
L 299.975918 -44.042812 
L 299.975918 -44.042812 
L 293.02898 -44.042812 
L 293.02898 -54.630393 
L 286.082041 -54.630393 
L 286.082041 -44.042812 
L 279.135102 -44.042812 
L 279.135102 -44.042812 
L 272.188163 -44.042812 
L 272.188163 -91.686923 
L 265.241224 -91.686923 
L 265.241224 -49.336603 
L 258.294286 -49.336603 
L 258.294286 -59.924183 
L 251.347347 -59.924183 
L 251.347347 -86.393133 
L 244.400408 -86.393133 
L 244.400408 -107.568293 
L 237.453469 -107.568293 
L 237.453469 -75.805553 
L 230.506531 -75.805553 
L 230.506531 -54.630393 
L 223.559592 -54.630393 
L 223.559592 -44.042812 
L 216.612653 -44.042812 
L 216.612653 -54.630393 
L 209.665714 -54.630393 
L 209.665714 -65.217973 
L 202.718776 -65.217973 
L 202.718776 -49.336603 
L 195.771837 -49.336603 
L 195.771837 -59.924183 
L 188.824898 -59.924183 
L 188.824898 -44.042812 
L 181.877959 -44.042812 
L 181.877959 -44.042812 
L 174.93102 -44.042812 
L 174.93102 -44.042812 
L 167.984082 -44.042812 
L 167.984082 -44.042812 
L 161.037143 -44.042812 
L 161.037143 -44.042812 
L 154.090204 -44.042812 
L 154.090204 -44.042812 
L 147.143265 -44.042812 
L 147.143265 -44.042812 
L 140.196327 -44.042812 
L 140.196327 -44.042812 
L 133.249388 -44.042812 
L 133.249388 -44.042812 
L 126.302449 -44.042812 
L 126.302449 -44.042812 
L 119.35551 -44.042812 
L 119.35551 -44.042812 
L 112.408571 -44.042812 
L 112.408571 -44.042812 
L 105.461633 -44.042812 
L 105.461633 -44.042812 
L 98.514694 -44.042812 
L 98.514694 -44.042812 
L 91.567755 -44.042812 
L 91.567755 -44.042812 
L 84.620816 -44.042812 
L 84.620816 -44.042812 
L 77.673878 -44.042812 
L 77.673878 -44.042812 
L 70.726939 -44.042812 
L 70.726939 -44.042812 
L 63.78 -44.042812 
z
" style="stroke: #1f77b4"/>
    </defs>
    <g clip-path="url(#p981daf1d3b)">
     <use xlink:href="#mfcb3ae72f8" x="0" y="216" style="fill: #1f77b4; fill-opacity: 0.4; stroke: #1f77b4"/>
    </g>
   </g>
   <g id="FillBetweenPolyCollection_2">
    <defs>
     <path id="md0ed14ff72" d="M 63.78 -44.042812 
L 63.78 -44.042812 
L 70.726939 -44.042812 
L 70.726939 -44.042812 
L 77.673878 -44.042812 
L 77.673878 -44.042812 
L 84.620816 -44.042812 
L 84.620816 -44.042812 
L 91.567755 -44.042812 
L 91.567755 -44.042812 
L 98.514694 -44.042812 
L 98.514694 -44.042812 
L 105.461633 -44.042812 
L 105.461633 -44.042812 
L 112.408571 -44.042812 
L 112.408571 -44.042812 
L 119.35551 -44.042812 
L 119.35551 -44.042812 
L 126.302449 -44.042812 
L 126.302449 -44.042812 
L 133.249388 -44.042812 
L 133.249388 -44.042812 
L 140.196327 -44.042812 
L 140.196327 -44.042812 
L 147.143265 -44.042812 
L 147.143265 -44.042812 
L 154.090204 -44.042812 
L 154.090204 -44.042812 
L 161.037143 -44.042812 
L 161.037143 -44.042812 
L 167.984082 -44.042812 
L 167.984082 -44.042812 
L 174.93102 -44.042812 
L 174.93102 -44.042812 
L 181.877959 -44.042812 
L 181.877959 -44.042812 
L 188.824898 -44.042812 
L 188.824898 -44.042812 
L 195.771837 -44.042812 
L 195.771837 -44.042812 
L 202.718776 -44.042812 
L 202.718776 -44.042812 
L 209.665714 -44.042812 
L 209.665714 -44.042812 
L 216.612653 -44.042812 
L 216.612653 -44.042812 
L 223.559592 -44.042812 
L 223.559592 -44.042812 
L 230.506531 -44.042812 
L 230.506531 -44.042812 
L 237.453469 -44.042812 
L 237.453469 -44.042812 
L 244.400408 -44.042812 
L 244.400408 -44.042812 
L 251.347347 -44.042812 
L 251.347347 -44.042812 
L 258.294286 -44.042812 
L 258.294286 -44.042812 
L 265.241224 -44.042812 
L 265.241224 -44.042812 
L 272.188163 -44.042812 
L 272.188163 -44.042812 
L 279.135102 -44.042812 
L 279.135102 -44.042812 
L 286.082041 -44.042812 
L 286.082041 -44.042812 
L 293.02898 -44.042812 
L 293.02898 -44.042812 
L 299.975918 -44.042812 
L 299.975918 -44.042812 
L 306.922857 -44.042812 
L 306.922857 -44.042812 
L 313.869796 -44.042812 
L 313.869796 -44.042812 
L 320.816735 -44.042812 
L 320.816735 -44.042812 
L 327.763673 -44.042812 
L 327.763673 -44.042812 
L 334.710612 -44.042812 
L 334.710612 -44.042812 
L 341.657551 -44.042812 
L 341.657551 -44.042812 
L 348.60449 -44.042812 
L 348.60449 -44.042812 
L 355.551429 -44.042812 
L 355.551429 -44.042812 
L 362.498367 -44.042812 
L 362.498367 -44.042812 
L 369.445306 -44.042812 
L 369.445306 -44.042812 
L 376.392245 -44.042812 
L 376.392245 -44.042812 
L 383.339184 -44.042812 
L 383.339184 -44.042812 
L 390.286122 -44.042812 
L 390.286122 -44.042812 
L 397.233061 -44.042812 
L 397.233061 -44.042812 
L 404.18 -44.042812 
L 404.18 -44.042812 
L 404.18 -49.336603 
L 404.18 -49.336603 
L 404.18 -49.336603 
L 397.233061 -49.336603 
L 397.233061 -44.042812 
L 390.286122 -44.042812 
L 390.286122 -44.042812 
L 383.339184 -44.042812 
L 383.339184 -44.042812 
L 376.392245 -44.042812 
L 376.392245 -44.042812 
L 369.445306 -44.042812 
L 369.445306 -44.042812 
L 362.498367 -44.042812 
L 362.498367 -44.042812 
L 355.551429 -44.042812 
L 355.551429 -44.042812 
L 348.60449 -44.042812 
L 348.60449 -44.042812 
L 341.657551 -44.042812 
L 341.657551 -44.042812 
L 334.710612 -44.042812 
L 334.710612 -44.042812 
L 327.763673 -44.042812 
L 327.763673 -44.042812 
L 320.816735 -44.042812 
L 320.816735 -49.336603 
L 313.869796 -49.336603 
L 313.869796 -44.042812 
L 306.922857 -44.042812 
L 306.922857 -44.042812 
L 299.975918 -44.042812 
L 299.975918 -44.042812 
L 293.02898 -44.042812 
L 293.02898 -44.042812 
L 286.082041 -44.042812 
L 286.082041 -44.042812 
L 279.135102 -44.042812 
L 279.135102 -44.042812 
L 272.188163 -44.042812 
L 272.188163 -44.042812 
L 265.241224 -44.042812 
L 265.241224 -44.042812 
L 258.294286 -44.042812 
L 258.294286 -44.042812 
L 251.347347 -44.042812 
L 251.347347 -44.042812 
L 244.400408 -44.042812 
L 244.400408 -44.042812 
L 237.453469 -44.042812 
L 237.453469 -44.042812 
L 230.506531 -44.042812 
L 230.506531 -44.042812 
L 223.559592 -44.042812 
L 223.559592 -44.042812 
L 216.612653 -44.042812 
L 216.612653 -44.042812 
L 209.665714 -44.042812 
L 209.665714 -44.042812 
L 202.718776 -44.042812 
L 202.718776 -44.042812 
L 195.771837 -44.042812 
L 195.771837 -44.042812 
L 188.824898 -44.042812 
L 188.824898 -44.042812 
L 181.877959 -44.042812 
L 181.877959 -44.042812 
L 174.93102 -44.042812 
L 174.93102 -54.630393 
L 167.984082 -54.630393 
L 167.984082 -44.042812 
L 161.037143 -44.042812 
L 161.037143 -49.336603 
L 154.090204 -49.336603 
L 154.090204 -44.042812 
L 147.143265 -44.042812 
L 147.143265 -49.336603 
L 140.196327 -49.336603 
L 140.196327 -49.336603 
L 133.249388 -49.336603 
L 133.249388 -49.336603 
L 126.302449 -49.336603 
L 126.302449 -49.336603 
L 119.35551 -49.336603 
L 119.35551 -134.037244 
L 112.408571 -134.037244 
L 112.408571 -181.681354 
L 105.461633 -181.681354 
L 105.461633 -59.924183 
L 98.514694 -59.924183 
L 98.514694 -49.336603 
L 91.567755 -49.336603 
L 91.567755 -44.042812 
L 84.620816 -44.042812 
L 84.620816 -59.924183 
L 77.673878 -59.924183 
L 77.673878 -44.042812 
L 70.726939 -44.042812 
L 70.726939 -44.042812 
L 63.78 -44.042812 
z
" style="stroke: #ff7f0e"/>
    </defs>
    <g clip-path="url(#p981daf1d3b)">
     <use xlink:href="#md0ed14ff72" x="0" y="216" style="fill: #ff7f0e; fill-opacity: 0.4; stroke: #ff7f0e"/>
    </g>
   </g>
   <g id="FillBetweenPolyCollection_3">
    <defs>
     <path id="mf85876ba31" d="M 63.78 -49.336603 
L 63.78 -44.042812 
L 70.726939 -44.042812 
L 70.726939 -44.042812 
L 77.673878 -44.042812 
L 77.673878 -44.042812 
L 84.620816 -44.042812 
L 84.620816 -44.042812 
L 91.567755 -44.042812 
L 91.567755 -44.042812 
L 98.514694 -44.042812 
L 98.514694 -44.042812 
L 105.461633 -44.042812 
L 105.461633 -44.042812 
L 112.408571 -44.042812 
L 112.408571 -44.042812 
L 119.35551 -44.042812 
L 119.35551 -44.042812 
L 126.302449 -44.042812 
L 126.302449 -44.042812 
L 133.249388 -44.042812 
L 133.249388 -44.042812 
L 140.196327 -44.042812 
L 140.196327 -44.042812 
L 147.143265 -44.042812 
L 147.143265 -44.042812 
L 154.090204 -44.042812 
L 154.090204 -44.042812 
L 161.037143 -44.042812 
L 161.037143 -44.042812 
L 167.984082 -44.042812 
L 167.984082 -44.042812 
L 174.93102 -44.042812 
L 174.93102 -44.042812 
L 181.877959 -44.042812 
L 181.877959 -44.042812 
L 188.824898 -44.042812 
L 188.824898 -44.042812 
L 195.771837 -44.042812 
L 195.771837 -44.042812 
L 202.718776 -44.042812 
L 202.718776 -44.042812 
L 209.665714 -44.042812 
L 209.665714 -44.042812 
L 216.612653 -44.042812 
L 216.612653 -44.042812 
L 223.559592 -44.042812 
L 223.559592 -44.042812 
L 230.506531 -44.042812 
L 230.506531 -44.042812 
L 237.453469 -44.042812 
L 237.453469 -44.042812 
L 244.400408 -44.042812 
L 244.400408 -44.042812 
L 251.347347 -44.042812 
L 251.347347 -44.042812 
L 258.294286 -44.042812 
L 258.294286 -44.042812 
L 265.241224 -44.042812 
L 265.241224 -44.042812 
L 272.188163 -44.042812 
L 272.188163 -44.042812 
L 279.135102 -44.042812 
L 279.135102 -44.042812 
L 286.082041 -44.042812 
L 286.082041 -44.042812 
L 293.02898 -44.042812 
L 293.02898 -44.042812 
L 299.975918 -44.042812 
L 299.975918 -44.042812 
L 306.922857 -44.042812 
L 306.922857 -44.042812 
L 313.869796 -44.042812 
L 313.869796 -44.042812 
L 320.816735 -44.042812 
L 320.816735 -44.042812 
L 327.763673 -44.042812 
L 327.763673 -44.042812 
L 334.710612 -44.042812 
L 334.710612 -44.042812 
L 341.657551 -44.042812 
L 341.657551 -44.042812 
L 348.60449 -44.042812 
L 348.60449 -44.042812 
L 355.551429 -44.042812 
L 355.551429 -44.042812 
L 362.498367 -44.042812 
L 362.498367 -44.042812 
L 369.445306 -44.042812 
L 369.445306 -44.042812 
L 376.392245 -44.042812 
L 376.392245 -44.042812 
L 383.339184 -44.042812 
L 383.339184 -44.042812 
L 390.286122 -44.042812 
L 390.286122 -44.042812 
L 397.233061 -44.042812 
L 397.233061 -44.042812 
L 404.18 -44.042812 
L 404.18 -44.042812 
L 404.18 -44.042812 
L 404.18 -44.042812 
L 404.18 -44.042812 
L 397.233061 -44.042812 
L 397.233061 -44.042812 
L 390.286122 -44.042812 
L 390.286122 -44.042812 
L 383.339184 -44.042812 
L 383.339184 -44.042812 
L 376.392245 -44.042812 
L 376.392245 -44.042812 
L 369.445306 -44.042812 
L 369.445306 -44.042812 
L 362.498367 -44.042812 
L 362.498367 -44.042812 
L 355.551429 -44.042812 
L 355.551429 -44.042812 
L 348.60449 -44.042812 
L 348.60449 -44.042812 
L 341.657551 -44.042812 
L 341.657551 -44.042812 
L 334.710612 -44.042812 
L 334.710612 -44.042812 
L 327.763673 -44.042812 
L 327.763673 -44.042812 
L 320.816735 -44.042812 
L 320.816735 -44.042812 
L 313.869796 -44.042812 
L 313.869796 -44.042812 
L 306.922857 -44.042812 
L 306.922857 -44.042812 
L 299.975918 -44.042812 
L 299.975918 -44.042812 
L 293.02898 -44.042812 
L 293.02898 -44.042812 
L 286.082041 -44.042812 
L 286.082041 -44.042812 
L 279.135102 -44.042812 
L 279.135102 -44.042812 
L 272.188163 -44.042812 
L 272.188163 -44.042812 
L 265.241224 -44.042812 
L 265.241224 -44.042812 
L 258.294286 -44.042812 
L 258.294286 -44.042812 
L 251.347347 -44.042812 
L 251.347347 -44.042812 
L 244.400408 -44.042812 
L 244.400408 -44.042812 
L 237.453469 -44.042812 
L 237.453469 -44.042812 
L 230.506531 -44.042812 
L 230.506531 -44.042812 
L 223.559592 -44.042812 
L 223.559592 -44.042812 
L 216.612653 -44.042812 
L 216.612653 -44.042812 
L 209.665714 -44.042812 
L 209.665714 -44.042812 
L 202.718776 -44.042812 
L 202.718776 -44.042812 
L 195.771837 -44.042812 
L 195.771837 -44.042812 
L 188.824898 -44.042812 
L 188.824898 -44.042812 
L 181.877959 -44.042812 
L 181.877959 -44.042812 
L 174.93102 -44.042812 
L 174.93102 -44.042812 
L 167.984082 -44.042812 
L 167.984082 -44.042812 
L 161.037143 -44.042812 
L 161.037143 -44.042812 
L 154.090204 -44.042812 
L 154.090204 -49.336603 
L 147.143265 -49.336603 
L 147.143265 -44.042812 
L 140.196327 -44.042812 
L 140.196327 -49.336603 
L 133.249388 -49.336603 
L 133.249388 -49.336603 
L 126.302449 -49.336603 
L 126.302449 -44.042812 
L 119.35551 -44.042812 
L 119.35551 -44.042812 
L 112.408571 -44.042812 
L 112.408571 -70.511763 
L 105.461633 -70.511763 
L 105.461633 -102.274503 
L 98.514694 -102.274503 
L 98.514694 -44.042812 
L 91.567755 -44.042812 
L 91.567755 -49.336603 
L 84.620816 -49.336603 
L 84.620816 -44.042812 
L 77.673878 -44.042812 
L 77.673878 -49.336603 
L 70.726939 -49.336603 
L 70.726939 -49.336603 
L 63.78 -49.336603 
z
" style="stroke: #2ca02c"/>
    </defs>
    <g clip-path="url(#p981daf1d3b)">
     <use xlink:href="#mf85876ba31" x="0" y="216" style="fill: #2ca02c; fill-opacity: 0.4; stroke: #2ca02c"/>
    </g>
   </g>
   <g id="matplotlib.axis_1">
    <g id="xtick_1">
     <g id="line2d_1">
      <path d="M 72.517166 171.957188 
L 72.517166 27.436719 
" clip-path="url(#p981daf1d3b)" style="fill: none; stroke: #b0b0b0; stroke-opacity: 0.3; stroke-width: 0.8; stroke-linecap: square"/>
     </g>
     <g id="line2d_2">
      <defs>
       <path id="me19a5d4b8d" d="M 0 0 
L 0 3.5 
" style="stroke: #000000; stroke-width: 0.8"/>
      </defs>
      <g>
       <use xlink:href="#me19a5d4b8d" x="72.517166" y="171.957188" style="stroke: #000000; stroke-width: 0.8"/>
      </g>
     </g>
     <g id="text_1">
      <!-- 1.6 -->
      <g transform="translate(64.565604 186.554844) scale(0.1 -0.1)">
       <defs>
        <path id="DejaVuSans-14" d="M 794 531 
L 1825 531 
L 1825 4091 
L 703 3866 
L 703 4441 
L 1819 4666 
L 2450 4666 
L 2450 531 
L 3481 531 
L 3481 0 
L 794 0 
L 794 531 
z
" transform="scale(0.015625)"/>
        <path id="DejaVuSans-11" d="M 684 794 
L 1344 794 
L 1344 0 
L 684 0 
L 684 794 
z
" transform="scale(0.015625)"/>
        <path id="DejaVuSans-19" d="M 2113 2584 
Q 1688 2584 1439 2293 
Q 1191 2003 1191 1497 
Q 1191 994 1439 701 
Q 1688 409 2113 409 
Q 2538 409 2786 701 
Q 3034 994 3034 1497 
Q 3034 2003 2786 2293 
Q 2538 2584 2113 2584 
z
M 3366 4563 
L 3366 3988 
Q 3128 4100 2886 4159 
Q 2644 4219 2406 4219 
Q 1781 4219 1451 3797 
Q 1122 3375 1075 2522 
Q 1259 2794 1537 2939 
Q 1816 3084 2150 3084 
Q 2853 3084 3261 2657 
Q 3669 2231 3669 1497 
Q 3669 778 3244 343 
Q 2819 -91 2113 -91 
Q 1303 -91 875 529 
Q 447 1150 447 2328 
Q 447 3434 972 4092 
Q 1497 4750 2381 4750 
Q 2619 4750 2861 4703 
Q 3103 4656 3366 4563 
z
" transform="scale(0.015625)"/>
       </defs>
       <use xlink:href="#DejaVuSans-14"/>
       <use xlink:href="#DejaVuSans-11" transform="translate(63.625 0)"/>
       <use xlink:href="#DejaVuSans-19" transform="translate(95.40625 0)"/>
      </g>
     </g>
    </g>
    <g id="xtick_2">
     <g id="line2d_3">
      <path d="M 142.414497 171.957188 
L 142.414497 27.436719 
" clip-path="url(#p981daf1d3b)" style="fill: none; stroke: #b0b0b0; stroke-opacity: 0.3; stroke-width: 0.8; stroke-linecap: square"/>
     </g>
     <g id="line2d_4">
      <g>
       <use xlink:href="#me19a5d4b8d" x="142.414497" y="171.957188" style="stroke: #000000; stroke-width: 0.8"/>
      </g>
     </g>
     <g id="text_2">
      <!-- 1.8 -->
      <g transform="translate(134.462934 186.554844) scale(0.1 -0.1)">
       <defs>
        <path id="DejaVuSans-1b" d="M 2034 2216 
Q 1584 2216 1326 1975 
Q 1069 1734 1069 1313 
Q 1069 891 1326 650 
Q 1584 409 2034 409 
Q 2484 409 2743 651 
Q 3003 894 3003 1313 
Q 3003 1734 2745 1975 
Q 2488 2216 2034 2216 
z
M 1403 2484 
Q 997 2584 770 2862 
Q 544 3141 544 3541 
Q 544 4100 942 4425 
Q 1341 4750 2034 4750 
Q 2731 4750 3128 4425 
Q 3525 4100 3525 3541 
Q 3525 3141 3298 2862 
Q 3072 2584 2669 2484 
Q 3125 2378 3379 2068 
Q 3634 1759 3634 1313 
Q 3634 634 3220 271 
Q 2806 -91 2034 -91 
Q 1263 -91 848 271 
Q 434 634 434 1313 
Q 434 1759 690 2068 
Q 947 2378 1403 2484 
z
M 1172 3481 
Q 1172 3119 1398 2916 
Q 1625 2713 2034 2713 
Q 2441 2713 2670 2916 
Q 2900 3119 2900 3481 
Q 2900 3844 2670 4047 
Q 2441 4250 2034 4250 
Q 1625 4250 1398 4047 
Q 1172 3844 1172 3481 
z
" transform="scale(0.015625)"/>
       </defs>
       <use xlink:href="#DejaVuSans-14"/>
       <use xlink:href="#DejaVuSans-11" transform="translate(63.625 0)"/>
       <use xlink:href="#DejaVuSans-1b" transform="translate(95.40625 0)"/>
      </g>
     </g>
    </g>
    <g id="xtick_3">
     <g id="line2d_5">
      <path d="M 212.311828 171.957188 
L 212.311828 27.436719 
" clip-path="url(#p981daf1d3b)" style="fill: none; stroke: #b0b0b0; stroke-opacity: 0.3; stroke-width: 0.8; stroke-linecap: square"/>
     </g>
     <g id="line2d_6">
      <g>
       <use xlink:href="#me19a5d4b8d" x="212.311828" y="171.957188" style="stroke: #000000; stroke-width: 0.8"/>
      </g>
     </g>
     <g id="text_3">
      <!-- 2.0 -->
      <g transform="translate(204.360265 186.554844) scale(0.1 -0.1)">
       <defs>
        <path id="DejaVuSans-15" d="M 1228 531 
L 3431 531 
L 3431 0 
L 469 0 
L 469 531 
Q 828 903 1448 1529 
Q 2069 2156 2228 2338 
Q 2531 2678 2651 2914 
Q 2772 3150 2772 3378 
Q 2772 3750 2511 3984 
Q 2250 4219 1831 4219 
Q 1534 4219 1204 4116 
Q 875 4013 500 3803 
L 500 4441 
Q 881 4594 1212 4672 
Q 1544 4750 1819 4750 
Q 2544 4750 2975 4387 
Q 3406 4025 3406 3419 
Q 3406 3131 3298 2873 
Q 3191 2616 2906 2266 
Q 2828 2175 2409 1742 
Q 1991 1309 1228 531 
z
" transform="scale(0.015625)"/>
        <path id="DejaVuSans-13" d="M 2034 4250 
Q 1547 4250 1301 3770 
Q 1056 3291 1056 2328 
Q 1056 1369 1301 889 
Q 1547 409 2034 409 
Q 2525 409 2770 889 
Q 3016 1369 3016 2328 
Q 3016 3291 2770 3770 
Q 2525 4250 2034 4250 
z
M 2034 4750 
Q 2819 4750 3233 4129 
Q 3647 3509 3647 2328 
Q 3647 1150 3233 529 
Q 2819 -91 2034 -91 
Q 1250 -91 836 529 
Q 422 1150 422 2328 
Q 422 3509 836 4129 
Q 1250 4750 2034 4750 
z
" transform="scale(0.015625)"/>
       </defs>
       <use xlink:href="#DejaVuSans-15"/>
       <use xlink:href="#DejaVuSans-11" transform="translate(63.625 0)"/>
       <use xlink:href="#DejaVuSans-13" transform="translate(95.40625 0)"/>
      </g>
     </g>
    </g>
    <g id="xtick_4">
     <g id="line2d_7">
      <path d="M 282.209158 171.957188 
L 282.209158 27.436719 
" clip-path="url(#p981daf1d3b)" style="fill: none; stroke: #b0b0b0; stroke-opacity: 0.3; stroke-width: 0.8; stroke-linecap: square"/>
     </g>
     <g id="line2d_8">
      <g>
       <use xlink:href="#me19a5d4b8d" x="282.209158" y="171.957188" style="stroke: #000000; stroke-width: 0.8"/>
      </g>
     </g>
     <g id="text_4">
      <!-- 2.2 -->
      <g transform="translate(274.257596 186.554844) scale(0.1 -0.1)">
       <use xlink:href="#DejaVuSans-15"/>
       <use xlink:href="#DejaVuSans-11" transform="translate(63.625 0)"/>
       <use xlink:href="#DejaVuSans-15" transform="translate(95.40625 0)"/>
      </g>
     </g>
    </g>
    <g id="xtick_5">
     <g id="line2d_9">
      <path d="M 352.106489 171.957188 
L 352.106489 27.436719 
" clip-path="url(#p981daf1d3b)" style="fill: none; stroke: #b0b0b0; stroke-opacity: 0.3; stroke-width: 0.8; stroke-linecap: square"/>
     </g>
     <g id="line2d_10">
      <g>
       <use xlink:href="#me19a5d4b8d" x="352.106489" y="171.957188" style="stroke: #000000; stroke-width: 0.8"/>
      </g>
     </g>
     <g id="text_5">
      <!-- 2.4 -->
      <g transform="translate(344.154926 186.554844) scale(0.1 -0.1)">
       <defs>
        <path id="DejaVuSans-17" d="M 2419 4116 
L 825 1625 
L 2419 1625 
L 2419 4116 
z
M 2253 4666 
L 3047 4666 
L 3047 1625 
L 3713 1625 
L 3713 1100 
L 3047 1100 
L 3047 0 
L 2419 0 
L 2419 1100 
L 313 1100 
L 313 1709 
L 2253 4666 
z
" transform="scale(0.015625)"/>
       </defs>
       <use xlink:href="#DejaVuSans-15"/>
       <use xlink:href="#DejaVuSans-11" transform="translate(63.625 0)"/>
       <use xlink:href="#DejaVuSans-17" transform="translate(95.40625 0)"/>
      </g>
     </g>
    </g>
    <g id="text_6">
     <!-- Price ($/L) -->
     <g transform="translate(203.572188 202.075312) scale(0.12 -0.12)">
      <defs>
       <path id="DejaVuSans-33" d="M 1259 4147 
L 1259 2394 
L 2053 2394 
Q 2494 2394 2734 2622 
Q 2975 2850 2975 3272 
Q 2975 3691 2734 3919 
Q 2494 4147 2053 4147 
L 1259 4147 
z
M 628 4666 
L 2053 4666 
Q 2838 4666 3239 4311 
Q 3641 3956 3641 3272 
Q 3641 2581 3239 2228 
Q 2838 1875 2053 1875 
L 1259 1875 
L 1259 0 
L 628 0 
L 628 4666 
z
" transform="scale(0.015625)"/>
       <path id="DejaVuSans-55" d="M 2631 2963 
Q 2534 3019 2420 3045 
Q 2306 3072 2169 3072 
Q 1681 3072 1420 2755 
Q 1159 2438 1159 1844 
L 1159 0 
L 581 0 
L 581 3500 
L 1159 3500 
L 1159 2956 
Q 1341 3275 1631 3429 
Q 1922 3584 2338 3584 
Q 2397 3584 2469 3576 
Q 2541 3569 2628 3553 
L 2631 2963 
z
" transform="scale(0.015625)"/>
       <path id="DejaVuSans-4c" d="M 603 3500 
L 1178 3500 
L 1178 0 
L 603 0 
L 603 3500 
z
M 603 4863 
L 1178 4863 
L 1178 4134 
L 603 4134 
L 603 4863 
z
" transform="scale(0.015625)"/>
       <path id="DejaVuSans-46" d="M 3122 3366 
L 3122 2828 
Q 2878 2963 2633 3030 
Q 2388 3097 2138 3097 
Q 1578 3097 1268 2742 
Q 959 2388 959 1747 
Q 959 1106 1268 751 
Q 1578 397 2138 397 
Q 2388 397 2633 464 
Q 2878 531 3122 666 
L 3122 134 
Q 2881 22 2623 -34 
Q 2366 -91 2075 -91 
Q 1284 -91 818 406 
Q 353 903 353 1747 
Q 353 2603 823 3093 
Q 1294 3584 2113 3584 
Q 2378 3584 2631 3529 
Q 2884 3475 3122 3366 
z
" transform="scale(0.015625)"/>
       <path id="DejaVuSans-48" d="M 3597 1894 
L 3597 1613 
L 953 1613 
Q 991 1019 1311 708 
Q 1631 397 2203 397 
Q 2534 397 2845 478 
Q 3156 559 3463 722 
L 3463 178 
Q 3153 47 2828 -22 
Q 2503 -91 2169 -91 
Q 1331 -91 842 396 
Q 353 884 353 1716 
Q 353 2575 817 3079 
Q 1281 3584 2069 3584 
Q 2775 3584 3186 3129 
Q 3597 2675 3597 1894 
z
M 3022 2063 
Q 3016 2534 2758 2815 
Q 2500 3097 2075 3097 
Q 1594 3097 1305 2825 
Q 1016 2553 972 2059 
L 3022 2063 
z
" transform="scale(0.015625)"/>
       <path id="DejaVuSans-3" transform="scale(0.015625)"/>
       <path id="DejaVuSans-b" d="M 1984 4856 
Q 1566 4138 1362 3434 
Q 1159 2731 1159 2009 
Q 1159 1288 1364 580 
Q 1569 -128 1984 -844 
L 1484 -844 
Q 1016 -109 783 600 
Q 550 1309 550 2009 
Q 550 2706 781 3412 
Q 1013 4119 1484 4856 
L 1984 4856 
z
" transform="scale(0.015625)"/>
       <path id="DejaVuSans-7" d="M 2163 -941 
L 1850 -941 
L 1847 0 
Q 1519 6 1191 76 
Q 863 147 531 288 
L 531 850 
Q 850 650 1176 548 
Q 1503 447 1850 444 
L 1850 1869 
Q 1159 1981 845 2250 
Q 531 2519 531 2988 
Q 531 3497 872 3790 
Q 1213 4084 1850 4128 
L 1850 4863 
L 2163 4863 
L 2163 4138 
Q 2453 4125 2725 4076 
Q 2997 4028 3256 3944 
L 3256 3397 
Q 2997 3528 2723 3600 
Q 2450 3672 2163 3684 
L 2163 2350 
Q 2872 2241 3206 1959 
Q 3541 1678 3541 1191 
Q 3541 663 3186 358 
Q 2831 53 2163 6 
L 2163 -941 
z
M 1850 2406 
L 1850 3688 
Q 1488 3647 1297 3481 
Q 1106 3316 1106 3041 
Q 1106 2772 1282 2622 
Q 1459 2472 1850 2406 
z
M 2163 1806 
L 2163 453 
Q 2559 506 2761 678 
Q 2963 850 2963 1131 
Q 2963 1406 2770 1568 
Q 2578 1731 2163 1806 
z
" transform="scale(0.015625)"/>
       <path id="DejaVuSans-12" d="M 1625 4666 
L 2156 4666 
L 531 -594 
L 0 -594 
L 1625 4666 
z
" transform="scale(0.015625)"/>
       <path id="DejaVuSans-2f" d="M 628 4666 
L 1259 4666 
L 1259 531 
L 3531 531 
L 3531 0 
L 628 0 
L 628 4666 
z
" transform="scale(0.015625)"/>
       <path id="DejaVuSans-c" d="M 513 4856 
L 1013 4856 
Q 1481 4119 1714 3412 
Q 1947 2706 1947 2009 
Q 1947 1309 1714 600 
Q 1481 -109 1013 -844 
L 513 -844 
Q 928 -128 1133 580 
Q 1338 1288 1338 2009 
Q 1338 2731 1133 3434 
Q 928 4138 513 4856 
z
" transform="scale(0.015625)"/>
      </defs>
      <use xlink:href="#DejaVuSans-33"/>
      <use xlink:href="#DejaVuSans-55" transform="translate(58.546875 0)"/>
      <use xlink:href="#DejaVuSans-4c" transform="translate(99.65625 0)"/>
      <use xlink:href="#DejaVuSans-46" transform="translate(127.4375 0)"/>
      <use xlink:href="#DejaVuSans-48" transform="translate(182.421875 0)"/>
      <use xlink:href="#DejaVuSans-3" transform="translate(243.953125 0)"/>
      <use xlink:href="#DejaVuSans-b" transform="translate(275.734375 0)"/>
      <use xlink:href="#DejaVuSans-7" transform="translate(314.75 0)"/>
      <use xlink:href="#DejaVuSans-12" transform="translate(378.375 0)"/>
      <use xlink:href="#DejaVuSans-2f" transform="translate(412.0625 0)"/>
      <use xlink:href="#DejaVuSans-c" transform="translate(467.78125 0)"/>
     </g>
    </g>
   </g>
   <g id="matplotlib.axis_2">
    <g id="ytick_1">
     <g id="line2d_11">
      <path d="M 46.76 171.957188 
L 421.2 171.957188 
" clip-path="url(#p981daf1d3b)" style="fill: none; stroke: #b0b0b0; stroke-opacity: 0.3; stroke-width: 0.8; stroke-linecap: square"/>
     </g>
     <g id="line2d_12">
      <defs>
       <path id="m3199eb1d3b" d="M 0 0 
L -3.5 0 
" style="stroke: #000000; stroke-width: 0.8"/>
      </defs>
      <g>
       <use xlink:href="#m3199eb1d3b" x="46.76" y="171.957188" style="stroke: #000000; stroke-width: 0.8"/>
      </g>
     </g>
     <g id="text_7">
      <!-- 0 -->
      <g transform="translate(33.3975 175.756016) scale(0.1 -0.1)">
       <use xlink:href="#DejaVuSans-13"/>
      </g>
     </g>
    </g>
    <g id="ytick_2">
     <g id="line2d_13">
      <path d="M 46.76 145.488237 
L 421.2 145.488237 
" clip-path="url(#p981daf1d3b)" style="fill: none; stroke: #b0b0b0; stroke-opacity: 0.3; stroke-width: 0.8; stroke-linecap: square"/>
     </g>
     <g id="line2d_14">
      <g>
       <use xlink:href="#m3199eb1d3b" x="46.76" y="145.488237" style="stroke: #000000; stroke-width: 0.8"/>
      </g>
     </g>
     <g id="text_8">
      <!-- 5 -->
      <g transform="translate(33.3975 149.287065) scale(0.1 -0.1)">
       <defs>
        <path id="DejaVuSans-18" d="M 691 4666 
L 3169 4666 
L 3169 4134 
L 1269 4134 
L 1269 2991 
Q 1406 3038 1543 3061 
Q 1681 3084 1819 3084 
Q 2600 3084 3056 2656 
Q 3513 2228 3513 1497 
Q 3513 744 3044 326 
Q 2575 -91 1722 -91 
Q 1428 -91 1123 -41 
Q 819 9 494 109 
L 494 744 
Q 775 591 1075 516 
Q 1375 441 1709 441 
Q 2250 441 2565 725 
Q 2881 1009 2881 1497 
Q 2881 1984 2565 2268 
Q 2250 2553 1709 2553 
Q 1456 2553 1204 2497 
Q 953 2441 691 2322 
L 691 4666 
z
" transform="scale(0.015625)"/>
       </defs>
       <use xlink:href="#DejaVuSans-18"/>
      </g>
     </g>
    </g>
    <g id="ytick_3">
     <g id="line2d_15">
      <path d="M 46.76 119.019287 
L 421.2 119.019287 
" clip-path="url(#p981daf1d3b)" style="fill: none; stroke: #b0b0b0; stroke-opacity: 0.3; stroke-width: 0.8; stroke-linecap: square"/>
     </g>
     <g id="line2d_16">
      <g>
       <use xlink:href="#m3199eb1d3b" x="46.76" y="119.019287" style="stroke: #000000; stroke-width: 0.8"/>
      </g>
     </g>
     <g id="text_9">
      <!-- 10 -->
      <g transform="translate(27.035 122.818115) scale(0.1 -0.1)">
       <use xlink:href="#DejaVuSans-14"/>
       <use xlink:href="#DejaVuSans-13" transform="translate(63.625 0)"/>
      </g>
     </g>
    </g>
    <g id="ytick_4">
     <g id="line2d_17">
      <path d="M 46.76 92.550337 
L 421.2 92.550337 
" clip-path="url(#p981daf1d3b)" style="fill: none; stroke: #b0b0b0; stroke-opacity: 0.3; stroke-width: 0.8; stroke-linecap: square"/>
     </g>
     <g id="line2d_18">
      <g>
       <use xlink:href="#m3199eb1d3b" x="46.76" y="92.550337" style="stroke: #000000; stroke-width: 0.8"/>
      </g>
     </g>
     <g id="text_10">
      <!-- 15 -->
      <g transform="translate(27.035 96.349165) scale(0.1 -0.1)">
       <use xlink:href="#DejaVuSans-14"/>
       <use xlink:href="#DejaVuSans-18" transform="translate(63.625 0)"/>
      </g>
     </g>
    </g>
    <g id="ytick_5">
     <g id="line2d_19">
      <path d="M 46.76 66.081386 
L 421.2 66.081386 
" clip-path="url(#p981daf1d3b)" style="fill: none; stroke: #b0b0b0; stroke-opacity: 0.3; stroke-width: 0.8; stroke-linecap: square"/>
     </g>
     <g id="line2d_20">
      <g>
       <use xlink:href="#m3199eb1d3b" x="46.76" y="66.081386" style="stroke: #000000; stroke-width: 0.8"/>
      </g>
     </g>
     <g id="text_11">
      <!-- 20 -->
      <g transform="translate(27.035 69.880214) scale(0.1 -0.1)">
       <use xlink:href="#DejaVuSans-15"/>
       <use xlink:href="#DejaVuSans-13" transform="translate(63.625 0)"/>
      </g>
     </g>
    </g>
    <g id="ytick_6">
     <g id="line2d_21">
      <path d="M 46.76 39.612436 
L 421.2 39.612436 
" clip-path="url(#p981daf1d3b)" style="fill: none; stroke: #b0b0b0; stroke-opacity: 0.3; stroke-width: 0.8; stroke-linecap: square"/>
     </g>
     <g id="line2d_22">
      <g>
       <use xlink:href="#m3199eb1d3b" x="46.76" y="39.612436" style="stroke: #000000; stroke-width: 0.8"/>
      </g>
     </g>
     <g id="text_12">
      <!-- 25 -->
      <g transform="translate(27.035 43.411264) scale(0.1 -0.1)">
       <use xlink:href="#DejaVuSans-15"/>
       <use xlink:href="#DejaVuSans-18" transform="translate(63.625 0)"/>
      </g>
     </g>
    </g>
    <g id="text_13">
     <!-- Frequency -->
     <g transform="translate(20.152188 130.693516) rotate(-90) scale(0.12 -0.12)">
      <defs>
       <path id="DejaVuSans-29" d="M 628 4666 
L 3309 4666 
L 3309 4134 
L 1259 4134 
L 1259 2759 
L 3109 2759 
L 3109 2228 
L 1259 2228 
L 1259 0 
L 628 0 
L 628 4666 
z
" transform="scale(0.015625)"/>
       <path id="DejaVuSans-54" d="M 947 1747 
Q 947 1113 1208 752 
Q 1469 391 1925 391 
Q 2381 391 2643 752 
Q 2906 1113 2906 1747 
Q 2906 2381 2643 2742 
Q 2381 3103 1925 3103 
Q 1469 3103 1208 2742 
Q 947 2381 947 1747 
z
M 2906 525 
Q 2725 213 2448 61 
Q 2172 -91 1784 -91 
Q 1150 -91 751 415 
Q 353 922 353 1747 
Q 353 2572 751 3078 
Q 1150 3584 1784 3584 
Q 2172 3584 2448 3432 
Q 2725 3281 2906 2969 
L 2906 3500 
L 3481 3500 
L 3481 -1331 
L 2906 -1331 
L 2906 525 
z
" transform="scale(0.015625)"/>
       <path id="DejaVuSans-58" d="M 544 1381 
L 544 3500 
L 1119 3500 
L 1119 1403 
Q 1119 906 1312 657 
Q 1506 409 1894 409 
Q 2359 409 2629 706 
Q 2900 1003 2900 1516 
L 2900 3500 
L 3475 3500 
L 3475 0 
L 2900 0 
L 2900 538 
Q 2691 219 2414 64 
Q 2138 -91 1772 -91 
Q 1169 -91 856 284 
Q 544 659 544 1381 
z
M 1991 3584 
L 1991 3584 
z
" transform="scale(0.015625)"/>
       <path id="DejaVuSans-51" d="M 3513 2113 
L 3513 0 
L 2938 0 
L 2938 2094 
Q 2938 2591 2744 2837 
Q 2550 3084 2163 3084 
Q 1697 3084 1428 2787 
Q 1159 2491 1159 1978 
L 1159 0 
L 581 0 
L 581 3500 
L 1159 3500 
L 1159 2956 
Q 1366 3272 1645 3428 
Q 1925 3584 2291 3584 
Q 2894 3584 3203 3211 
Q 3513 2838 3513 2113 
z
" transform="scale(0.015625)"/>
       <path id="DejaVuSans-5c" d="M 2059 -325 
Q 1816 -950 1584 -1140 
Q 1353 -1331 966 -1331 
L 506 -1331 
L 506 -850 
L 844 -850 
Q 1081 -850 1212 -737 
Q 1344 -625 1503 -206 
L 1606 56 
L 191 3500 
L 800 3500 
L 1894 763 
L 2988 3500 
L 3597 3500 
L 2059 -325 
z
" transform="scale(0.015625)"/>
      </defs>
      <use xlink:href="#DejaVuSans-29"/>
      <use xlink:href="#DejaVuSans-55" transform="translate(50.234375 0)"/>
      <use xlink:href="#DejaVuSans-48" transform="translate(89.140625 0)"/>
      <use xlink:href="#DejaVuSans-54" transform="translate(150.671875 0)"/>
      <use xlink:href="#DejaVuSans-58" transform="translate(214.15625 0)"/>
      <use xlink:href="#DejaVuSans-48" transform="translate(277.53125 0)"/>
      <use xlink:href="#DejaVuSans-51" transform="translate(339.0625 0)"/>
      <use xlink:href="#DejaVuSans-46" transform="translate(402.4375 0)"/>
      <use xlink:href="#DejaVuSans-5c" transform="translate(457.421875 0)"/>
     </g>
    </g>
   </g>
   <g id="line2d_23">
    <path d="M 189.595195 164.55275 
L 193.585314 163.105925 
L 196.577903 162.220678 
L 199.570493 161.556682 
L 202.563082 161.125639 
L 206.054436 160.859697 
L 211.540849 160.471232 
L 213.535909 160.125947 
L 215.530968 159.559715 
L 217.526028 158.711232 
L 219.022322 157.863338 
L 221.017382 156.435654 
L 223.012441 154.678577 
L 225.007501 152.635416 
L 228.00009 149.20939 
L 232.488974 144.027505 
L 234.484034 142.046913 
L 235.980328 140.802272 
L 237.476623 139.812474 
L 238.972917 139.110189 
L 240.469212 138.715747 
L 241.965507 138.63571 
L 243.461801 138.862271 
L 244.958096 139.373593 
L 246.45439 140.135131 
L 248.44945 141.460894 
L 250.943274 143.438531 
L 256.429688 147.895451 
L 258.923512 149.574405 
L 261.417337 150.951978 
L 264.409926 152.29483 
L 270.893869 155.028344 
L 273.886458 156.605237 
L 276.879048 158.439005 
L 287.35311 165.126552 
L 288.849405 165.914226 
L 288.849405 165.914226 
" clip-path="url(#p981daf1d3b)" style="fill: none; stroke: #1f77b4; stroke-width: 1.5; stroke-linecap: square"/>
   </g>
   <g id="line2d_24">
    <path d="M 240.831257 171.957188 
L 240.831257 27.436719 
" clip-path="url(#p981daf1d3b)" style="fill: none; stroke-dasharray: 5.55,2.4; stroke-dashoffset: 0; stroke: #1f77b4; stroke-width: 1.5"/>
   </g>
   <g id="line2d_25">
    <path d="M 77.759466 158.934027 
L 81.040074 156.480894 
L 85.960987 152.511157 
L 92.522204 147.133572 
L 95.802812 144.658337 
L 99.083421 142.48874 
L 102.364029 140.741821 
L 104.004333 140.058986 
L 105.644637 139.517286 
L 107.284942 139.124836 
L 108.925246 138.887543 
L 110.56555 138.808941 
L 112.205854 138.890089 
L 113.846158 139.129537 
L 115.486462 139.523357 
L 117.126767 140.065243 
L 118.767071 140.746669 
L 122.047679 142.48431 
L 125.328288 144.63314 
L 128.608896 147.072678 
L 141.73133 157.326732 
L 145.011938 159.535015 
L 148.292546 161.487817 
L 151.573155 163.170279 
L 154.853763 164.587308 
L 158.134371 165.758816 
L 161.41498 166.714581 
L 164.695588 167.489346 
L 169.616501 168.389219 
L 174.537413 169.068535 
L 182.738934 169.919422 
L 192.580759 170.694356 
L 202.422585 171.269379 
L 212.26441 171.639964 
L 223.746539 171.855313 
L 241.789885 171.945519 
L 272.955665 171.869874 
L 292.639315 171.593726 
L 313.96327 171.285623 
L 327.085703 171.350807 
L 364.812699 171.76915 
L 381.215741 171.562907 
L 402.539696 171.281593 
L 404.18 171.279725 
L 404.18 171.279725 
" clip-path="url(#p981daf1d3b)" style="fill: none; stroke: #ff7f0e; stroke-width: 1.5; stroke-linecap: square"/>
   </g>
   <g id="line2d_26">
    <path d="M 121.468992 171.957188 
L 121.468992 27.436719 
" clip-path="url(#p981daf1d3b)" style="fill: none; stroke-dasharray: 5.55,2.4; stroke-dashoffset: 0; stroke: #ff7f0e; stroke-width: 1.5"/>
   </g>
   <g id="line2d_27">
    <path d="M 63.78 169.209915 
L 68.240784 168.808479 
L 74.931961 168.258267 
L 77.162353 167.848354 
L 78.946667 167.342613 
L 80.730981 166.632446 
L 82.515295 165.682876 
L 84.299608 164.472353 
L 86.083922 162.998743 
L 88.314314 160.823916 
L 91.436863 157.368376 
L 95.005491 153.457763 
L 96.789805 151.81613 
L 98.12804 150.826497 
L 99.466275 150.094668 
L 100.804511 149.655412 
L 102.142746 149.530595 
L 103.480981 149.727458 
L 104.819217 150.237974 
L 106.157452 151.039369 
L 107.495687 152.095758 
L 109.280001 153.819608 
L 111.956472 156.815911 
L 115.971178 161.36155 
L 118.20157 163.531663 
L 119.985884 164.980145 
L 121.770197 166.151821 
L 123.554511 167.05533 
L 125.338825 167.718818 
L 127.569217 168.272204 
L 130.245688 168.646428 
L 133.814315 168.873875 
L 148.980982 169.56698 
L 152.54961 169.870394 
L 152.54961 169.870394 
" clip-path="url(#p981daf1d3b)" style="fill: none; stroke: #2ca02c; stroke-width: 1.5; stroke-linecap: square"/>
   </g>
   <g id="line2d_28">
    <path d="M 103.526164 171.957188 
L 103.526164 27.436719 
" clip-path="url(#p981daf1d3b)" style="fill: none; stroke-dasharray: 5.55,2.4; stroke-dashoffset: 0; stroke: #2ca02c; stroke-width: 1.5"/>
   </g>
   <g id="patch_3">
    <path d="M 46.76 171.957188 
L 46.76 27.436719 
" style="fill: none; stroke: #000000; stroke-width: 0.8; stroke-linejoin: miter; stroke-linecap: square"/>
   </g>
   <g id="patch_4">
    <path d="M 421.2 171.957188 
L 421.2 27.436719 
" style="fill: none; stroke: #000000; stroke-width: 0.8; stroke-linejoin: miter; stroke-linecap: square"/>
   </g>
   <g id="patch_5">
    <path d="M 46.76 171.957188 
L 421.2 171.957188 
" style="fill: none; stroke: #000000; stroke-width: 0.8; stroke-linejoin: miter; stroke-linecap: square"/>
   </g>
   <g id="patch_6">
    <path d="M 46.76 27.436719 
L 421.2 27.436719 
" style="fill: none; stroke: #000000; stroke-width: 0.8; stroke-linejoin: miter; stroke-linecap: square"/>
   </g>
   <g id="text_14">
    <!-- Today's Fuel Price Distributions -->
    <g transform="translate(125.598125 21.436719) scale(0.14 -0.14)">
     <defs>
      <path id="DejaVuSans-37" d="M -19 4666 
L 3928 4666 
L 3928 4134 
L 2272 4134 
L 2272 0 
L 1638 0 
L 1638 4134 
L -19 4134 
L -19 4666 
z
" transform="scale(0.015625)"/>
      <path id="DejaVuSans-52" d="M 1959 3097 
Q 1497 3097 1228 2736 
Q 959 2375 959 1747 
Q 959 1119 1226 758 
Q 1494 397 1959 397 
Q 2419 397 2687 759 
Q 2956 1122 2956 1747 
Q 2956 2369 2687 2733 
Q 2419 3097 1959 3097 
z
M 1959 3584 
Q 2709 3584 3137 3096 
Q 3566 2609 3566 1747 
Q 3566 888 3137 398 
Q 2709 -91 1959 -91 
Q 1206 -91 779 398 
Q 353 888 353 1747 
Q 353 2609 779 3096 
Q 1206 3584 1959 3584 
z
" transform="scale(0.015625)"/>
      <path id="DejaVuSans-47" d="M 2906 2969 
L 2906 4863 
L 3481 4863 
L 3481 0 
L 2906 0 
L 2906 525 
Q 2725 213 2448 61 
Q 2172 -91 1784 -91 
Q 1150 -91 751 415 
Q 353 922 353 1747 
Q 353 2572 751 3078 
Q 1150 3584 1784 3584 
Q 2172 3584 2448 3432 
Q 2725 3281 2906 2969 
z
M 947 1747 
Q 947 1113 1208 752 
Q 1469 391 1925 391 
Q 2381 391 2643 752 
Q 2906 1113 2906 1747 
Q 2906 2381 2643 2742 
Q 2381 3103 1925 3103 
Q 1469 3103 1208 2742 
Q 947 2381 947 1747 
z
" transform="scale(0.015625)"/>
      <path id="DejaVuSans-44" d="M 2194 1759 
Q 1497 1759 1228 1600 
Q 959 1441 959 1056 
Q 959 750 1161 570 
Q 1363 391 1709 391 
Q 2188 391 2477 730 
Q 2766 1069 2766 1631 
L 2766 1759 
L 2194 1759 
z
M 3341 1997 
L 3341 0 
L 2766 0 
L 2766 531 
Q 2569 213 2275 61 
Q 1981 -91 1556 -91 
Q 1019 -91 701 211 
Q 384 513 384 1019 
Q 384 1609 779 1909 
Q 1175 2209 1959 2209 
L 2766 2209 
L 2766 2266 
Q 2766 2663 2505 2880 
Q 2244 3097 1772 3097 
Q 1472 3097 1187 3025 
Q 903 2953 641 2809 
L 641 3341 
Q 956 3463 1253 3523 
Q 1550 3584 1831 3584 
Q 2591 3584 2966 3190 
Q 3341 2797 3341 1997 
z
" transform="scale(0.015625)"/>
      <path id="DejaVuSans-a" d="M 1147 4666 
L 1147 2931 
L 616 2931 
L 616 4666 
L 1147 4666 
z
" transform="scale(0.015625)"/>
      <path id="DejaVuSans-56" d="M 2834 3397 
L 2834 2853 
Q 2591 2978 2328 3040 
Q 2066 3103 1784 3103 
Q 1356 3103 1142 2972 
Q 928 2841 928 2578 
Q 928 2378 1081 2264 
Q 1234 2150 1697 2047 
L 1894 2003 
Q 2506 1872 2764 1633 
Q 3022 1394 3022 966 
Q 3022 478 2636 193 
Q 2250 -91 1575 -91 
Q 1294 -91 989 -36 
Q 684 19 347 128 
L 347 722 
Q 666 556 975 473 
Q 1284 391 1588 391 
Q 1994 391 2212 530 
Q 2431 669 2431 922 
Q 2431 1156 2273 1281 
Q 2116 1406 1581 1522 
L 1381 1569 
Q 847 1681 609 1914 
Q 372 2147 372 2553 
Q 372 3047 722 3315 
Q 1072 3584 1716 3584 
Q 2034 3584 2315 3537 
Q 2597 3491 2834 3397 
z
" transform="scale(0.015625)"/>
      <path id="DejaVuSans-4f" d="M 603 4863 
L 1178 4863 
L 1178 0 
L 603 0 
L 603 4863 
z
" transform="scale(0.015625)"/>
      <path id="DejaVuSans-27" d="M 1259 4147 
L 1259 519 
L 2022 519 
Q 2988 519 3436 956 
Q 3884 1394 3884 2338 
Q 3884 3275 3436 3711 
Q 2988 4147 2022 4147 
L 1259 4147 
z
M 628 4666 
L 1925 4666 
Q 3281 4666 3915 4102 
Q 4550 3538 4550 2338 
Q 4550 1131 3912 565 
Q 3275 0 1925 0 
L 628 0 
L 628 4666 
z
" transform="scale(0.015625)"/>
      <path id="DejaVuSans-57" d="M 1172 4494 
L 1172 3500 
L 2356 3500 
L 2356 3053 
L 1172 3053 
L 1172 1153 
Q 1172 725 1289 603 
Q 1406 481 1766 481 
L 2356 481 
L 2356 0 
L 1766 0 
Q 1100 0 847 248 
Q 594 497 594 1153 
L 594 3053 
L 172 3053 
L 172 3500 
L 594 3500 
L 594 4494 
L 1172 4494 
z
" transform="scale(0.015625)"/>
      <path id="DejaVuSans-45" d="M 3116 1747 
Q 3116 2381 2855 2742 
Q 2594 3103 2138 3103 
Q 1681 3103 1420 2742 
Q 1159 2381 1159 1747 
Q 1159 1113 1420 752 
Q 1681 391 2138 391 
Q 2594 391 2855 752 
Q 3116 1113 3116 1747 
z
M 1159 2969 
Q 1341 3281 1617 3432 
Q 1894 3584 2278 3584 
Q 2916 3584 3314 3078 
Q 3713 2572 3713 1747 
Q 3713 922 3314 415 
Q 2916 -91 2278 -91 
Q 1894 -91 1617 61 
Q 1341 213 1159 525 
L 1159 0 
L 581 0 
L 581 4863 
L 1159 4863 
L 1159 2969 
z
" transform="scale(0.015625)"/>
     </defs>
     <use xlink:href="#DejaVuSans-37"/>
     <use xlink:href="#DejaVuSans-52" transform="translate(44.09375 0)"/>
     <use xlink:href="#DejaVuSans-47" transform="translate(105.28125 0)"/>
     <use xlink:href="#DejaVuSans-44" transform="translate(168.765625 0)"/>
     <use xlink:href="#DejaVuSans-5c" transform="translate(230.046875 0)"/>
     <use xlink:href="#DejaVuSans-a" transform="translate(289.234375 0)"/>
     <use xlink:href="#DejaVuSans-56" transform="translate(316.71875 0)"/>
     <use xlink:href="#DejaVuSans-3" transform="translate(368.8125 0)"/>
     <use xlink:href="#DejaVuSans-29" transform="translate(400.59375 0)"/>
     <use xlink:href="#DejaVuSans-58" transform="translate(452.640625 0)"/>
     <use xlink:href="#DejaVuSans-48" transform="translate(516.015625 0)"/>
     <use xlink:href="#DejaVuSans-4f" transform="translate(577.546875 0)"/>
     <use xlink:href="#DejaVuSans-3" transform="translate(605.328125 0)"/>
     <use xlink:href="#DejaVuSans-33" transform="translate(637.109375 0)"/>
     <use xlink:href="#DejaVuSans-55" transform="translate(695.65625 0)"/>
     <use xlink:href="#DejaVuSans-4c" transform="translate(736.765625 0)"/>
     <use xlink:href="#DejaVuSans-46" transform="translate(764.546875 0)"/>
     <use xlink:href="#DejaVuSans-48" transform="translate(819.53125 0)"/>
     <use xlink:href="#DejaVuSans-3" transform="translate(881.0625 0)"/>
     <use xlink:href="#DejaVuSans-27" transform="translate(912.84375 0)"/>
     <use xlink:href="#DejaVuSans-4c" transform="translate(989.84375 0)"/>
     <use xlink:href="#DejaVuSans-56" transform="translate(1017.625 0)"/>
     <use xlink:href="#DejaVuSans-57" transform="translate(1069.71875 0)"/>
     <use xlink:href="#DejaVuSans-55" transform="translate(1108.921875 0)"/>
     <use xlink:href="#DejaVuSans-4c" transform="translate(1150.03125 0)"/>
     <use xlink:href="#DejaVuSans-45" transform="translate(1177.8125 0)"/>
     <use xlink:href="#DejaVuSans-58" transform="translate(1241.296875 0)"/>
     <use xlink:href="#DejaVuSans-57" transform="translate(1304.671875 0)"/>
     <use xlink:href="#DejaVuSans-4c" transform="translate(1343.875 0)"/>
     <use xlink:href="#DejaVuSans-52" transform="translate(1371.65625 0)"/>
     <use xlink:href="#DejaVuSans-51" transform="translate(1432.84375 0)"/>
     <use xlink:href="#DejaVuSans-56" transform="translate(1496.21875 0)"/>
    </g>
   </g>
   <g id="legend_1">
    <g id="patch_7">
     <path d="M 276.3 95.444531 
L 414.2 95.444531 
Q 416.2 95.444531 416.2 93.444531 
L 416.2 34.436719 
Q 416.2 32.436719 414.2 32.436719 
L 276.3 32.436719 
Q 274.3 32.436719 274.3 34.436719 
L 274.3 93.444531 
Q 274.3 95.444531 276.3 95.444531 
z
" style="fill: #ffffff; opacity: 0.8; stroke: #cccccc; stroke-linejoin: miter"/>
    </g>
    <g id="text_15">
     <!-- Fuel Type -->
     <g transform="translate(321.939063 44.035156) scale(0.1 -0.1)">
      <defs>
       <path id="DejaVuSans-53" d="M 1159 525 
L 1159 -1331 
L 581 -1331 
L 581 3500 
L 1159 3500 
L 1159 2969 
Q 1341 3281 1617 3432 
Q 1894 3584 2278 3584 
Q 2916 3584 3314 3078 
Q 3713 2572 3713 1747 
Q 3713 922 3314 415 
Q 2916 -91 2278 -91 
Q 1894 -91 1617 61 
Q 1341 213 1159 525 
z
M 3116 1747 
Q 3116 2381 2855 2742 
Q 2594 3103 2138 3103 
Q 1681 3103 1420 2742 
Q 1159 2381 1159 1747 
Q 1159 1113 1420 752 
Q 1681 391 2138 391 
Q 2594 391 2855 752 
Q 3116 1113 3116 1747 
z
" transform="scale(0.015625)"/>
      </defs>
      <use xlink:href="#DejaVuSans-29"/>
      <use xlink:href="#DejaVuSans-58" transform="translate(52.046875 0)"/>
      <use xlink:href="#DejaVuSans-48" transform="translate(115.421875 0)"/>
      <use xlink:href="#DejaVuSans-4f" transform="translate(176.953125 0)"/>
      <use xlink:href="#DejaVuSans-3" transform="translate(204.734375 0)"/>
      <use xlink:href="#DejaVuSans-37" transform="translate(236.515625 0)"/>
      <use xlink:href="#DejaVuSans-5c" transform="translate(282.015625 0)"/>
      <use xlink:href="#DejaVuSans-53" transform="translate(341.203125 0)"/>
      <use xlink:href="#DejaVuSans-48" transform="translate(404.6875 0)"/>
     </g>
    </g>
    <g id="patch_8">
     <path d="M 278.3 59.0375 
L 298.3 59.0375 
L 298.3 52.0375 
L 278.3 52.0375 
z
" style="fill: #1f77b4; fill-opacity: 0.4; stroke: #1f77b4; stroke-linejoin: miter"/>
    </g>
    <g id="text_16">
     <!-- Diesel ($\mu=\$2.08$) -->
     <g transform="translate(306.3 59.0375) scale(0.1 -0.1)">
      <defs>
       <path id="DejaVuSans-Oblique-350" d="M -84 -1331 
L 856 3500 
L 1434 3500 
L 1009 1322 
Q 997 1256 987 1175 
Q 978 1094 978 1013 
Q 978 722 1161 565 
Q 1344 409 1684 409 
Q 2147 409 2431 671 
Q 2716 934 2816 1459 
L 3213 3500 
L 3788 3500 
L 3266 809 
Q 3253 750 3248 706 
Q 3244 663 3244 628 
Q 3244 531 3283 486 
Q 3322 441 3406 441 
Q 3438 441 3492 456 
Q 3547 472 3647 513 
L 3559 50 
Q 3422 -19 3297 -55 
Q 3172 -91 3053 -91 
Q 2847 -91 2730 40 
Q 2613 172 2613 403 
Q 2438 153 2195 31 
Q 1953 -91 1625 -91 
Q 1334 -91 1117 43 
Q 900 178 831 397 
L 494 -1331 
L -84 -1331 
z
" transform="scale(0.015625)"/>
       <path id="DejaVuSans-20" d="M 678 2906 
L 4684 2906 
L 4684 2381 
L 678 2381 
L 678 2906 
z
M 678 1631 
L 4684 1631 
L 4684 1100 
L 678 1100 
L 678 1631 
z
" transform="scale(0.015625)"/>
      </defs>
      <use xlink:href="#DejaVuSans-27" transform="translate(0 0.015625)"/>
      <use xlink:href="#DejaVuSans-4c" transform="translate(77.001953 0.015625)"/>
      <use xlink:href="#DejaVuSans-48" transform="translate(104.785156 0.015625)"/>
      <use xlink:href="#DejaVuSans-56" transform="translate(166.308594 0.015625)"/>
      <use xlink:href="#DejaVuSans-48" transform="translate(218.408203 0.015625)"/>
      <use xlink:href="#DejaVuSans-4f" transform="translate(279.931641 0.015625)"/>
      <use xlink:href="#DejaVuSans-3" transform="translate(307.714844 0.015625)"/>
      <use xlink:href="#DejaVuSans-b" transform="translate(339.501953 0.015625)"/>
      <use xlink:href="#DejaVuSans-Oblique-350" transform="translate(378.515625 0.015625)"/>
      <use xlink:href="#DejaVuSans-20" transform="translate(461.621094 0.015625)"/>
      <use xlink:href="#DejaVuSans-7" transform="translate(564.892578 0.015625)"/>
      <use xlink:href="#DejaVuSans-15" transform="translate(628.515625 0.015625)"/>
      <use xlink:href="#DejaVuSans-11" transform="translate(692.138672 0.015625)"/>
      <use xlink:href="#DejaVuSans-13" transform="translate(723.925781 0.015625)"/>
      <use xlink:href="#DejaVuSans-1b" transform="translate(787.548828 0.015625)"/>
      <use xlink:href="#DejaVuSans-c" transform="translate(851.171875 0.015625)"/>
     </g>
    </g>
    <g id="patch_9">
     <path d="M 278.3 74.039844 
L 298.3 74.039844 
L 298.3 67.039844 
L 278.3 67.039844 
z
" style="fill: #ff7f0e; fill-opacity: 0.4; stroke: #ff7f0e; stroke-linejoin: miter"/>
    </g>
    <g id="text_17">
     <!-- Unleaded ($\mu=\$1.74$) -->
     <g transform="translate(306.3 74.039844) scale(0.1 -0.1)">
      <defs>
       <path id="DejaVuSans-38" d="M 556 4666 
L 1191 4666 
L 1191 1831 
Q 1191 1081 1462 751 
Q 1734 422 2344 422 
Q 2950 422 3222 751 
Q 3494 1081 3494 1831 
L 3494 4666 
L 4128 4666 
L 4128 1753 
Q 4128 841 3676 375 
Q 3225 -91 2344 -91 
Q 1459 -91 1007 375 
Q 556 841 556 1753 
L 556 4666 
z
" transform="scale(0.015625)"/>
       <path id="DejaVuSans-1a" d="M 525 4666 
L 3525 4666 
L 3525 4397 
L 1831 0 
L 1172 0 
L 2766 4134 
L 525 4134 
L 525 4666 
z
" transform="scale(0.015625)"/>
      </defs>
      <use xlink:href="#DejaVuSans-38" transform="translate(0 0.015625)"/>
      <use xlink:href="#DejaVuSans-51" transform="translate(73.193359 0.015625)"/>
      <use xlink:href="#DejaVuSans-4f" transform="translate(136.572266 0.015625)"/>
      <use xlink:href="#DejaVuSans-48" transform="translate(164.355469 0.015625)"/>
      <use xlink:href="#DejaVuSans-44" transform="translate(225.878906 0.015625)"/>
      <use xlink:href="#DejaVuSans-47" transform="translate(287.158203 0.015625)"/>
      <use xlink:href="#DejaVuSans-48" transform="translate(350.634766 0.015625)"/>
      <use xlink:href="#DejaVuSans-47" transform="translate(412.158203 0.015625)"/>
      <use xlink:href="#DejaVuSans-3" transform="translate(475.634766 0.015625)"/>
      <use xlink:href="#DejaVuSans-b" transform="translate(507.421875 0.015625)"/>
      <use xlink:href="#DejaVuSans-Oblique-350" transform="translate(546.435547 0.015625)"/>
      <use xlink:href="#DejaVuSans-20" transform="translate(629.541016 0.015625)"/>
      <use xlink:href="#DejaVuSans-7" transform="translate(732.8125 0.015625)"/>
      <use xlink:href="#DejaVuSans-14" transform="translate(796.435547 0.015625)"/>
      <use xlink:href="#DejaVuSans-11" transform="translate(860.058594 0.015625)"/>
      <use xlink:href="#DejaVuSans-1a" transform="translate(891.845703 0.015625)"/>
      <use xlink:href="#DejaVuSans-17" transform="translate(955.46875 0.015625)"/>
      <use xlink:href="#DejaVuSans-c" transform="translate(1019.091797 0.015625)"/>
     </g>
    </g>
    <g id="patch_10">
     <path d="M 278.3 89.042187 
L 298.3 89.042187 
L 298.3 82.042187 
L 278.3 82.042187 
z
" style="fill: #2ca02c; fill-opacity: 0.4; stroke: #2ca02c; stroke-linejoin: miter"/>
    </g>
    <g id="text_18">
     <!-- e10 ($\mu=\$1.69$) -->
     <g transform="translate(306.3 89.042187) scale(0.1 -0.1)">
      <defs>
       <path id="DejaVuSans-1c" d="M 703 97 
L 703 672 
Q 941 559 1184 500 
Q 1428 441 1663 441 
Q 2288 441 2617 861 
Q 2947 1281 2994 2138 
Q 2813 1869 2534 1725 
Q 2256 1581 1919 1581 
Q 1219 1581 811 2004 
Q 403 2428 403 3163 
Q 403 3881 828 4315 
Q 1253 4750 1959 4750 
Q 2769 4750 3195 4129 
Q 3622 3509 3622 2328 
Q 3622 1225 3098 567 
Q 2575 -91 1691 -91 
Q 1453 -91 1209 -44 
Q 966 3 703 97 
z
M 1959 2075 
Q 2384 2075 2632 2365 
Q 2881 2656 2881 3163 
Q 2881 3666 2632 3958 
Q 2384 4250 1959 4250 
Q 1534 4250 1286 3958 
Q 1038 3666 1038 3163 
Q 1038 2656 1286 2365 
Q 1534 2075 1959 2075 
z
" transform="scale(0.015625)"/>
      </defs>
      <use xlink:href="#DejaVuSans-48" transform="translate(0 0.015625)"/>
      <use xlink:href="#DejaVuSans-14" transform="translate(61.523438 0.015625)"/>
      <use xlink:href="#DejaVuSans-13" transform="translate(125.146484 0.015625)"/>
      <use xlink:href="#DejaVuSans-3" transform="translate(188.769531 0.015625)"/>
      <use xlink:href="#DejaVuSans-b" transform="translate(220.556641 0.015625)"/>
      <use xlink:href="#DejaVuSans-Oblique-350" transform="translate(259.570312 0.015625)"/>
      <use xlink:href="#DejaVuSans-20" transform="translate(342.675781 0.015625)"/>
      <use xlink:href="#DejaVuSans-7" transform="translate(445.947266 0.015625)"/>
      <use xlink:href="#DejaVuSans-14" transform="translate(509.570312 0.015625)"/>
      <use xlink:href="#DejaVuSans-11" transform="translate(573.193359 0.015625)"/>
      <use xlink:href="#DejaVuSans-19" transform="translate(604.980469 0.015625)"/>
      <use xlink:href="#DejaVuSans-1c" transform="translate(668.603516 0.015625)"/>
      <use xlink:href="#DejaVuSans-c" transform="translate(732.226562 0.015625)"/>
     </g>
    </g>
   </g>
  </g>
 </g>
 <defs>
  <clipPath id="p981daf1d3b">
   <rect x="46.76" y="27.436719" width="374.44" height="144.520469"/>
  </clipPath>
 </defs>
</svg>
