<?xml version="1.0" encoding="utf-8" standalone="no"?>
<!DOCTYPE svg PUBLIC "-//W3C//DTD SVG 1.1//EN"
  "http://www.w3.org/Graphics/SVG/1.1/DTD/svg11.dtd">
<svg xmlns:xlink="http://www.w3.org/1999/xlink" width="432pt" height="216pt" viewBox="0 0 432 216" xmlns="http://www.w3.org/2000/svg" version="1.1">
 <metadata>
  <rdf:RDF xmlns:dc="http://purl.org/dc/elements/1.1/" xmlns:cc="http://creativecommons.org/ns#" xmlns:rdf="http://www.w3.org/1999/02/22-rdf-syntax-ns#">
   <cc:Work>
    <dc:type rdf:resource="http://purl.org/dc/dcmitype/StillImage"/>
    <dc:date>2026-03-29T09:49:49.417276</dc:date>
    <dc:format>image/svg+xml</dc:format>
    <dc:creator>
     <cc:Agent>
      <dc:title>Matplotlib v3.10.8, https://matplotlib.org/</dc:title>
     </cc:Agent>
    </dc:creator>
   </cc:Work>
  </rdf:RDF>
 </metadata>
 <defs>
  <style type="text/css">*{stroke-linejoin: round; stroke-linecap: butt}</style>
 </defs>
 <g id="figure_1">
  <g id="patch_1">
   <path d="M 0 216 
L 432 216 
L 432 0 
L 0 0 
z
" style="fill: #ffffff"/>
  </g>
  <g id="axes_1">
   <g id="patch_2">
    <path d="M 47.45 171.16 
L 421.2 171.16 
L 421.2 27.6 
L 47.45 27.6 
z
" style="fill: #ffffff"/>
   </g>
   <g id="FillBetweenPolyCollection_1">
    <defs>
     <path id="mc054b5f34d" d="M 64.438636 -44.84 
L 64.438636 -44.84 
L 71.372774 -44.84 
L 71.372774 -44.84 
L 78.306911 -44.84 
L 78.306911 -44.84 
L 85.241048 -44.84 
L 85.241048 -44.84 
L 92.175186 -44.84 
L 92.175186 -44.84 
L 99.109323 -44.84 
L 99.109323 -44.84 
L 106.04346 -44.84 
L 106.04346 -44.84 
L 112.977597 -44.84 
L 112.977597 -44.84 
L 119.911735 -44.84 
L 119.911735 -44.84 
L 126.845872 -44.84 
L 126.845872 -44.84 
L 133.780009 -44.84 
L 133.780009 -44.84 
L 140.714147 -44.84 
L 140.714147 -44.84 
L 147.648284 -44.84 
L 147.648284 -44.84 
L 154.582421 -44.84 
L 154.582421 -44.84 
L 161.516558 -44.84 
L 161.516558 -44.84 
L 168.450696 -44.84 
L 168.450696 -44.84 
L 175.384833 -44.84 
L 175.384833 -44.84 
L 182.31897 -44.84 
L 182.31897 -44.84 
L 189.253108 -44.84 
L 189.253108 -44.84 
L 196.187245 -44.84 
L 196.187245 -44.84 
L 203.121382 -44.84 
L 203.121382 -44.84 
L 210.055519 -44.84 
L 210.055519 -44.84 
L 216.989657 -44.84 
L 216.989657 -44.84 
L 223.923794 -44.84 
L 223.923794 -44.84 
L 230.857931 -44.84 
L 230.857931 -44.84 
L 237.792069 -44.84 
L 237.792069 -44.84 
L 244.726206 -44.84 
L 244.726206 -44.84 
L 251.660343 -44.84 
L 251.660343 -44.84 
L 258.594481 -44.84 
L 258.594481 -44.84 
L 265.528618 -44.84 
L 265.528618 -44.84 
L 272.462755 -44.84 
L 272.462755 -44.84 
L 279.396892 -44.84 
L 279.396892 -44.84 
L 286.33103 -44.84 
L 286.33103 -44.84 
L 293.265167 -44.84 
L 293.265167 -44.84 
L 300.199304 -44.84 
L 300.199304 -44.84 
L 307.133442 -44.84 
L 307.133442 -44.84 
L 314.067579 -44.84 
L 314.067579 -44.84 
L 321.001716 -44.84 
L 321.001716 -44.84 
L 327.935853 -44.84 
L 327.935853 -44.84 
L 334.869991 -44.84 
L 334.869991 -44.84 
L 341.804128 -44.84 
L 341.804128 -44.84 
L 348.738265 -44.84 
L 348.738265 -44.84 
L 355.672403 -44.84 
L 355.672403 -44.84 
L 362.60654 -44.84 
L 362.60654 -44.84 
L 369.540677 -44.84 
L 369.540677 -44.84 
L 376.474814 -44.84 
L 376.474814 -44.84 
L 383.408952 -44.84 
L 383.408952 -44.84 
L 390.343089 -44.84 
L 390.343089 -44.84 
L 397.277226 -44.84 
L 397.277226 -44.84 
L 404.211364 -44.84 
L 404.211364 -44.84 
L 404.211364 -51.054719 
L 404.211364 -51.054719 
L 404.211364 -51.054719 
L 397.277226 -51.054719 
L 397.277226 -44.84 
L 390.343089 -44.84 
L 390.343089 -44.84 
L 383.408952 -44.84 
L 383.408952 -44.84 
L 376.474814 -44.84 
L 376.474814 -44.84 
L 369.540677 -44.84 
L 369.540677 -57.269437 
L 362.60654 -57.269437 
L 362.60654 -100.772468 
L 355.672403 -100.772468 
L 355.672403 -100.772468 
L 348.738265 -100.772468 
L 348.738265 -181.56381 
L 341.804128 -181.56381 
L 341.804128 -75.913593 
L 334.869991 -75.913593 
L 334.869991 -51.054719 
L 327.935853 -51.054719 
L 327.935853 -63.484156 
L 321.001716 -63.484156 
L 321.001716 -44.84 
L 314.067579 -44.84 
L 314.067579 -51.054719 
L 307.133442 -51.054719 
L 307.133442 -44.84 
L 300.199304 -44.84 
L 300.199304 -44.84 
L 293.265167 -44.84 
L 293.265167 -44.84 
L 286.33103 -44.84 
L 286.33103 -44.84 
L 279.396892 -44.84 
L 279.396892 -44.84 
L 272.462755 -44.84 
L 272.462755 -44.84 
L 265.528618 -44.84 
L 265.528618 -44.84 
L 258.594481 -44.84 
L 258.594481 -44.84 
L 251.660343 -44.84 
L 251.660343 -44.84 
L 244.726206 -44.84 
L 244.726206 -44.84 
L 237.792069 -44.84 
L 237.792069 -44.84 
L 230.857931 -44.84 
L 230.857931 -44.84 
L 223.923794 -44.84 
L 223.923794 -44.84 
L 216.989657 -44.84 
L 216.989657 -44.84 
L 210.055519 -44.84 
L 210.055519 -44.84 
L 203.121382 -44.84 
L 203.121382 -44.84 
L 196.187245 -44.84 
L 196.187245 -44.84 
L 189.253108 -44.84 
L 189.253108 -44.84 
L 182.31897 -44.84 
L 182.31897 -44.84 
L 175.384833 -44.84 
L 175.384833 -44.84 
L 168.450696 -44.84 
L 168.450696 -44.84 
L 161.516558 -44.84 
L 161.516558 -44.84 
L 154.582421 -44.84 
L 154.582421 -44.84 
L 147.648284 -44.84 
L 147.648284 -44.84 
L 140.714147 -44.84 
L 140.714147 -44.84 
L 133.780009 -44.84 
L 133.780009 -44.84 
L 126.845872 -44.84 
L 126.845872 -44.84 
L 119.911735 -44.84 
L 119.911735 -44.84 
L 112.977597 -44.84 
L 112.977597 -44.84 
L 106.04346 -44.84 
L 106.04346 -44.84 
L 99.109323 -44.84 
L 99.109323 -44.84 
L 92.175186 -44.84 
L 92.175186 -44.84 
L 85.241048 -44.84 
L 85.241048 -44.84 
L 78.306911 -44.84 
L 78.306911 -44.84 
L 71.372774 -44.84 
L 71.372774 -44.84 
L 64.438636 -44.84 
z
" style="stroke: #1f77b4"/>
    </defs>
    <g clip-path="url(#pb0593b2719)">
     <use xlink:href="#mc054b5f34d" x="0" y="216" style="fill: #1f77b4; fill-opacity: 0.4; stroke: #1f77b4"/>
    </g>
   </g>
   <g id="FillBetweenPolyCollection_2">
    <defs>
     <path id="m1ccead28ec" d="M 64.438636 -51.054719 
L 64.438636 -44.84 
L 71.372774 -44.84 
L 71.372774 -44.84 
L 78.306911 -44.84 
L 78.306911 -44.84 
L 85.241048 -44.84 
L 85.241048 -44.84 
L 92.175186 -44.84 
L 92.175186 -44.84 
L 99.109323 -44.84 
L 99.109323 -44.84 
L 106.04346 -44.84 
L 106.04346 -44.84 
L 112.977597 -44.84 
L 112.977597 -44.84 
L 119.911735 -44.84 
L 119.911735 -44.84 
L 126.845872 -44.84 
L 126.845872 -44.84 
L 133.780009 -44.84 
L 133.780009 -44.84 
L 140.714147 -44.84 
L 140.714147 -44.84 
L 147.648284 -44.84 
L 147.648284 -44.84 
L 154.582421 -44.84 
L 154.582421 -44.84 
L 161.516558 -44.84 
L 161.516558 -44.84 
L 168.450696 -44.84 
L 168.450696 -44.84 
L 175.384833 -44.84 
L 175.384833 -44.84 
L 182.31897 -44.84 
L 182.31897 -44.84 
L 189.253108 -44.84 
L 189.253108 -44.84 
L 196.187245 -44.84 
L 196.187245 -44.84 
L 203.121382 -44.84 
L 203.121382 -44.84 
L 210.055519 -44.84 
L 210.055519 -44.84 
L 216.989657 -44.84 
L 216.989657 -44.84 
L 223.923794 -44.84 
L 223.923794 -44.84 
L 230.857931 -44.84 
L 230.857931 -44.84 
L 237.792069 -44.84 
L 237.792069 -44.84 
L 244.726206 -44.84 
L 244.726206 -44.84 
L 251.660343 -44.84 
L 251.660343 -44.84 
L 258.594481 -44.84 
L 258.594481 -44.84 
L 265.528618 -44.84 
L 265.528618 -44.84 
L 272.462755 -44.84 
L 272.462755 -44.84 
L 279.396892 -44.84 
L 279.396892 -44.84 
L 286.33103 -44.84 
L 286.33103 -44.84 
L 293.265167 -44.84 
L 293.265167 -44.84 
L 300.199304 -44.84 
L 300.199304 -44.84 
L 307.133442 -44.84 
L 307.133442 -44.84 
L 314.067579 -44.84 
L 314.067579 -44.84 
L 321.001716 -44.84 
L 321.001716 -44.84 
L 327.935853 -44.84 
L 327.935853 -44.84 
L 334.869991 -44.84 
L 334.869991 -44.84 
L 341.804128 -44.84 
L 341.804128 -44.84 
L 348.738265 -44.84 
L 348.738265 -44.84 
L 355.672403 -44.84 
L 355.672403 -44.84 
L 362.60654 -44.84 
L 362.60654 -44.84 
L 369.540677 -44.84 
L 369.540677 -44.84 
L 376.474814 -44.84 
L 376.474814 -44.84 
L 383.408952 -44.84 
L 383.408952 -44.84 
L 390.343089 -44.84 
L 390.343089 -44.84 
L 397.277226 -44.84 
L 397.277226 -44.84 
L 404.211364 -44.84 
L 404.211364 -44.84 
L 404.211364 -44.84 
L 404.211364 -44.84 
L 404.211364 -44.84 
L 397.277226 -44.84 
L 397.277226 -44.84 
L 390.343089 -44.84 
L 390.343089 -44.84 
L 383.408952 -44.84 
L 383.408952 -44.84 
L 376.474814 -44.84 
L 376.474814 -44.84 
L 369.540677 -44.84 
L 369.540677 -44.84 
L 362.60654 -44.84 
L 362.60654 -44.84 
L 355.672403 -44.84 
L 355.672403 -44.84 
L 348.738265 -44.84 
L 348.738265 -44.84 
L 341.804128 -44.84 
L 341.804128 -44.84 
L 334.869991 -44.84 
L 334.869991 -44.84 
L 327.935853 -44.84 
L 327.935853 -44.84 
L 321.001716 -44.84 
L 321.001716 -44.84 
L 314.067579 -44.84 
L 314.067579 -44.84 
L 307.133442 -44.84 
L 307.133442 -44.84 
L 300.199304 -44.84 
L 300.199304 -44.84 
L 293.265167 -44.84 
L 293.265167 -44.84 
L 286.33103 -44.84 
L 286.33103 -44.84 
L 279.396892 -44.84 
L 279.396892 -44.84 
L 272.462755 -44.84 
L 272.462755 -44.84 
L 265.528618 -44.84 
L 265.528618 -69.698874 
L 258.594481 -69.698874 
L 258.594481 -44.84 
L 251.660343 -44.84 
L 251.660343 -44.84 
L 244.726206 -44.84 
L 244.726206 -138.060779 
L 237.792069 -138.060779 
L 237.792069 -100.772468 
L 230.857931 -100.772468 
L 230.857931 -144.275498 
L 223.923794 -144.275498 
L 223.923794 -100.772468 
L 216.989657 -100.772468 
L 216.989657 -69.698874 
L 210.055519 -69.698874 
L 210.055519 -44.84 
L 203.121382 -44.84 
L 203.121382 -44.84 
L 196.187245 -44.84 
L 196.187245 -44.84 
L 189.253108 -44.84 
L 189.253108 -44.84 
L 182.31897 -44.84 
L 182.31897 -44.84 
L 175.384833 -44.84 
L 175.384833 -44.84 
L 168.450696 -44.84 
L 168.450696 -44.84 
L 161.516558 -44.84 
L 161.516558 -44.84 
L 154.582421 -44.84 
L 154.582421 -44.84 
L 147.648284 -44.84 
L 147.648284 -44.84 
L 140.714147 -44.84 
L 140.714147 -44.84 
L 133.780009 -44.84 
L 133.780009 -44.84 
L 126.845872 -44.84 
L 126.845872 -44.84 
L 119.911735 -44.84 
L 119.911735 -44.84 
L 112.977597 -44.84 
L 112.977597 -44.84 
L 106.04346 -44.84 
L 106.04346 -44.84 
L 99.109323 -44.84 
L 99.109323 -44.84 
L 92.175186 -44.84 
L 92.175186 -44.84 
L 85.241048 -44.84 
L 85.241048 -44.84 
L 78.306911 -44.84 
L 78.306911 -44.84 
L 71.372774 -44.84 
L 71.372774 -51.054719 
L 64.438636 -51.054719 
z
" style="stroke: #ff7f0e"/>
    </defs>
    <g clip-path="url(#pb0593b2719)">
     <use xlink:href="#m1ccead28ec" x="0" y="216" style="fill: #ff7f0e; fill-opacity: 0.4; stroke: #ff7f0e"/>
    </g>
   </g>
   <g id="FillBetweenPolyCollection_3">
    <defs>
     <path id="m1bc9998dc5" d="M 64.438636 -51.054719 
L 64.438636 -44.84 
L 71.372774 -44.84 
L 71.372774 -44.84 
L 78.306911 -44.84 
L 78.306911 -44.84 
L 85.241048 -44.84 
L 85.241048 -44.84 
L 92.175186 -44.84 
L 92.175186 -44.84 
L 99.109323 -44.84 
L 99.109323 -44.84 
L 106.04346 -44.84 
L 106.04346 -44.84 
L 112.977597 -44.84 
L 112.977597 -44.84 
L 119.911735 -44.84 
L 119.911735 -44.84 
L 126.845872 -44.84 
L 126.845872 -44.84 
L 133.780009 -44.84 
L 133.780009 -44.84 
L 140.714147 -44.84 
L 140.714147 -44.84 
L 147.648284 -44.84 
L 147.648284 -44.84 
L 154.582421 -44.84 
L 154.582421 -44.84 
L 161.516558 -44.84 
L 161.516558 -44.84 
L 168.450696 -44.84 
L 168.450696 -44.84 
L 175.384833 -44.84 
L 175.384833 -44.84 
L 182.31897 -44.84 
L 182.31897 -44.84 
L 189.253108 -44.84 
L 189.253108 -44.84 
L 196.187245 -44.84 
L 196.187245 -44.84 
L 203.121382 -44.84 
L 203.121382 -44.84 
L 210.055519 -44.84 
L 210.055519 -44.84 
L 216.989657 -44.84 
L 216.989657 -44.84 
L 223.923794 -44.84 
L 223.923794 -44.84 
L 230.857931 -44.84 
L 230.857931 -44.84 
L 237.792069 -44.84 
L 237.792069 -44.84 
L 244.726206 -44.84 
L 244.726206 -44.84 
L 251.660343 -44.84 
L 251.660343 -44.84 
L 258.594481 -44.84 
L 258.594481 -44.84 
L 265.528618 -44.84 
L 265.528618 -44.84 
L 272.462755 -44.84 
L 272.462755 -44.84 
L 279.396892 -44.84 
L 279.396892 -44.84 
L 286.33103 -44.84 
L 286.33103 -44.84 
L 293.265167 -44.84 
L 293.265167 -44.84 
L 300.199304 -44.84 
L 300.199304 -44.84 
L 307.133442 -44.84 
L 307.133442 -44.84 
L 314.067579 -44.84 
L 314.067579 -44.84 
L 321.001716 -44.84 
L 321.001716 -44.84 
L 327.935853 -44.84 
L 327.935853 -44.84 
L 334.869991 -44.84 
L 334.869991 -44.84 
L 341.804128 -44.84 
L 341.804128 -44.84 
L 348.738265 -44.84 
L 348.738265 -44.84 
L 355.672403 -44.84 
L 355.672403 -44.84 
L 362.60654 -44.84 
L 362.60654 -44.84 
L 369.540677 -44.84 
L 369.540677 -44.84 
L 376.474814 -44.84 
L 376.474814 -44.84 
L 383.408952 -44.84 
L 383.408952 -44.84 
L 390.343089 -44.84 
L 390.343089 -44.84 
L 397.277226 -44.84 
L 397.277226 -44.84 
L 404.211364 -44.84 
L 404.211364 -44.84 
L 404.211364 -44.84 
L 404.211364 -44.84 
L 404.211364 -44.84 
L 397.277226 -44.84 
L 397.277226 -44.84 
L 390.343089 -44.84 
L 390.343089 -44.84 
L 383.408952 -44.84 
L 383.408952 -44.84 
L 376.474814 -44.84 
L 376.474814 -44.84 
L 369.540677 -44.84 
L 369.540677 -44.84 
L 362.60654 -44.84 
L 362.60654 -44.84 
L 355.672403 -44.84 
L 355.672403 -44.84 
L 348.738265 -44.84 
L 348.738265 -44.84 
L 341.804128 -44.84 
L 341.804128 -44.84 
L 334.869991 -44.84 
L 334.869991 -44.84 
L 327.935853 -44.84 
L 327.935853 -44.84 
L 321.001716 -44.84 
L 321.001716 -44.84 
L 314.067579 -44.84 
L 314.067579 -44.84 
L 307.133442 -44.84 
L 307.133442 -44.84 
L 300.199304 -44.84 
L 300.199304 -44.84 
L 293.265167 -44.84 
L 293.265167 -44.84 
L 286.33103 -44.84 
L 286.33103 -44.84 
L 279.396892 -44.84 
L 279.396892 -44.84 
L 272.462755 -44.84 
L 272.462755 -44.84 
L 265.528618 -44.84 
L 265.528618 -44.84 
L 258.594481 -44.84 
L 258.594481 -44.84 
L 251.660343 -44.84 
L 251.660343 -44.84 
L 244.726206 -44.84 
L 244.726206 -44.84 
L 237.792069 -44.84 
L 237.792069 -75.913593 
L 230.857931 -75.913593 
L 230.857931 -113.201905 
L 223.923794 -113.201905 
L 223.923794 -57.269437 
L 216.989657 -57.269437 
L 216.989657 -44.84 
L 210.055519 -44.84 
L 210.055519 -63.484156 
L 203.121382 -63.484156 
L 203.121382 -44.84 
L 196.187245 -44.84 
L 196.187245 -44.84 
L 189.253108 -44.84 
L 189.253108 -44.84 
L 182.31897 -44.84 
L 182.31897 -44.84 
L 175.384833 -44.84 
L 175.384833 -44.84 
L 168.450696 -44.84 
L 168.450696 -44.84 
L 161.516558 -44.84 
L 161.516558 -44.84 
L 154.582421 -44.84 
L 154.582421 -44.84 
L 147.648284 -44.84 
L 147.648284 -44.84 
L 140.714147 -44.84 
L 140.714147 -44.84 
L 133.780009 -44.84 
L 133.780009 -44.84 
L 126.845872 -44.84 
L 126.845872 -44.84 
L 119.911735 -44.84 
L 119.911735 -44.84 
L 112.977597 -44.84 
L 112.977597 -44.84 
L 106.04346 -44.84 
L 106.04346 -44.84 
L 99.109323 -44.84 
L 99.109323 -44.84 
L 92.175186 -44.84 
L 92.175186 -44.84 
L 85.241048 -44.84 
L 85.241048 -44.84 
L 78.306911 -44.84 
L 78.306911 -44.84 
L 71.372774 -44.84 
L 71.372774 -51.054719 
L 64.438636 -51.054719 
z
" style="stroke: #2ca02c"/>
    </defs>
    <g clip-path="url(#pb0593b2719)">
     <use xlink:href="#m1bc9998dc5" x="0" y="216" style="fill: #2ca02c; fill-opacity: 0.4; stroke: #2ca02c"/>
    </g>
   </g>
   <g id="matplotlib.axis_1">
    <g id="xtick_1">
     <g id="line2d_1">
      <path d="M 70.352704 171.16 
L 70.352704 27.6 
" clip-path="url(#pb0593b2719)" style="fill: none; stroke: #b0b0b0; stroke-opacity: 0.3; stroke-width: 0.8; stroke-linecap: square"/>
     </g>
     <g id="line2d_2">
      <defs>
       <path id="md151f57e42" d="M 0 0 
L 0 3.5 
" style="stroke: #000000; stroke-width: 0.8"/>
      </defs>
      <g>
       <use xlink:href="#md151f57e42" x="70.352704" y="171.16" style="stroke: #000000; stroke-width: 0.8"/>
      </g>
     </g>
     <g id="text_1">
      <!-- 1.75 -->
      <g transform="translate(59.219892 185.758437) scale(0.1 -0.1)">
       <defs>
        <path id="DejaVuSans-31" d="M 794 531 
L 1825 531 
L 1825 4091 
L 703 3866 
L 703 4441 
L 1819 4666 
L 2450 4666 
L 2450 531 
L 3481 531 
L 3481 0 
L 794 0 
L 794 531 
z
" transform="scale(0.015625)"/>
        <path id="DejaVuSans-2e" d="M 684 794 
L 1344 794 
L 1344 0 
L 684 0 
L 684 794 
z
" transform="scale(0.015625)"/>
        <path id="DejaVuSans-37" d="M 525 4666 
L 3525 4666 
L 3525 4397 
L 1831 0 
L 1172 0 
L 2766 4134 
L 525 4134 
L 525 4666 
z
" transform="scale(0.015625)"/>
        <path id="DejaVuSans-35" d="M 691 4666 
L 3169 4666 
L 3169 4134 
L 1269 4134 
L 1269 2991 
Q 1406 3038 1543 3061 
Q 1681 3084 1819 3084 
Q 2600 3084 3056 2656 
Q 3513 2228 3513 1497 
Q 3513 744 3044 326 
Q 2575 -91 1722 -91 
Q 1428 -91 1123 -41 
Q 819 9 494 109 
L 494 744 
Q 775 591 1075 516 
Q 1375 441 1709 441 
Q 2250 441 2565 725 
Q 2881 1009 2881 1497 
Q 2881 1984 2565 2268 
Q 2250 2553 1709 2553 
Q 1456 2553 1204 2497 
Q 953 2441 691 2322 
L 691 4666 
z
" transform="scale(0.015625)"/>
       </defs>
       <use xlink:href="#DejaVuSans-31"/>
       <use xlink:href="#DejaVuSans-2e" transform="translate(63.623047 0)"/>
       <use xlink:href="#DejaVuSans-37" transform="translate(95.410156 0)"/>
       <use xlink:href="#DejaVuSans-35" transform="translate(159.033203 0)"/>
      </g>
     </g>
    </g>
    <g id="xtick_2">
     <g id="line2d_3">
      <path d="M 118.046798 171.16 
L 118.046798 27.6 
" clip-path="url(#pb0593b2719)" style="fill: none; stroke: #b0b0b0; stroke-opacity: 0.3; stroke-width: 0.8; stroke-linecap: square"/>
     </g>
     <g id="line2d_4">
      <g>
       <use xlink:href="#md151f57e42" x="118.046798" y="171.16" style="stroke: #000000; stroke-width: 0.8"/>
      </g>
     </g>
     <g id="text_2">
      <!-- 2.00 -->
      <g transform="translate(106.913986 185.758437) scale(0.1 -0.1)">
       <defs>
        <path id="DejaVuSans-32" d="M 1228 531 
L 3431 531 
L 3431 0 
L 469 0 
L 469 531 
Q 828 903 1448 1529 
Q 2069 2156 2228 2338 
Q 2531 2678 2651 2914 
Q 2772 3150 2772 3378 
Q 2772 3750 2511 3984 
Q 2250 4219 1831 4219 
Q 1534 4219 1204 4116 
Q 875 4013 500 3803 
L 500 4441 
Q 881 4594 1212 4672 
Q 1544 4750 1819 4750 
Q 2544 4750 2975 4387 
Q 3406 4025 3406 3419 
Q 3406 3131 3298 2873 
Q 3191 2616 2906 2266 
Q 2828 2175 2409 1742 
Q 1991 1309 1228 531 
z
" transform="scale(0.015625)"/>
        <path id="DejaVuSans-30" d="M 2034 4250 
Q 1547 4250 1301 3770 
Q 1056 3291 1056 2328 
Q 1056 1369 1301 889 
Q 1547 409 2034 409 
Q 2525 409 2770 889 
Q 3016 1369 3016 2328 
Q 3016 3291 2770 3770 
Q 2525 4250 2034 4250 
z
M 2034 4750 
Q 2819 4750 3233 4129 
Q 3647 3509 3647 2328 
Q 3647 1150 3233 529 
Q 2819 -91 2034 -91 
Q 1250 -91 836 529 
Q 422 1150 422 2328 
Q 422 3509 836 4129 
Q 1250 4750 2034 4750 
z
" transform="scale(0.015625)"/>
       </defs>
       <use xlink:href="#DejaVuSans-32"/>
       <use xlink:href="#DejaVuSans-2e" transform="translate(63.623047 0)"/>
       <use xlink:href="#DejaVuSans-30" transform="translate(95.410156 0)"/>
       <use xlink:href="#DejaVuSans-30" transform="translate(159.033203 0)"/>
      </g>
     </g>
    </g>
    <g id="xtick_3">
     <g id="line2d_5">
      <path d="M 165.740893 171.16 
L 165.740893 27.6 
" clip-path="url(#pb0593b2719)" style="fill: none; stroke: #b0b0b0; stroke-opacity: 0.3; stroke-width: 0.8; stroke-linecap: square"/>
     </g>
     <g id="line2d_6">
      <g>
       <use xlink:href="#md151f57e42" x="165.740893" y="171.16" style="stroke: #000000; stroke-width: 0.8"/>
      </g>
     </g>
     <g id="text_3">
      <!-- 2.25 -->
      <g transform="translate(154.60808 185.758437) scale(0.1 -0.1)">
       <use xlink:href="#DejaVuSans-32"/>
       <use xlink:href="#DejaVuSans-2e" transform="translate(63.623047 0)"/>
       <use xlink:href="#DejaVuSans-32" transform="translate(95.410156 0)"/>
       <use xlink:href="#DejaVuSans-35" transform="translate(159.033203 0)"/>
      </g>
     </g>
    </g>
    <g id="xtick_4">
     <g id="line2d_7">
      <path d="M 213.434987 171.16 
L 213.434987 27.6 
" clip-path="url(#pb0593b2719)" style="fill: none; stroke: #b0b0b0; stroke-opacity: 0.3; stroke-width: 0.8; stroke-linecap: square"/>
     </g>
     <g id="line2d_8">
      <g>
       <use xlink:href="#md151f57e42" x="213.434987" y="171.16" style="stroke: #000000; stroke-width: 0.8"/>
      </g>
     </g>
     <g id="text_4">
      <!-- 2.50 -->
      <g transform="translate(202.302174 185.758437) scale(0.1 -0.1)">
       <use xlink:href="#DejaVuSans-32"/>
       <use xlink:href="#DejaVuSans-2e" transform="translate(63.623047 0)"/>
       <use xlink:href="#DejaVuSans-35" transform="translate(95.410156 0)"/>
       <use xlink:href="#DejaVuSans-30" transform="translate(159.033203 0)"/>
      </g>
     </g>
    </g>
    <g id="xtick_5">
     <g id="line2d_9">
      <path d="M 261.129081 171.16 
L 261.129081 27.6 
" clip-path="url(#pb0593b2719)" style="fill: none; stroke: #b0b0b0; stroke-opacity: 0.3; stroke-width: 0.8; stroke-linecap: square"/>
     </g>
     <g id="line2d_10">
      <g>
       <use xlink:href="#md151f57e42" x="261.129081" y="171.16" style="stroke: #000000; stroke-width: 0.8"/>
      </g>
     </g>
     <g id="text_5">
      <!-- 2.75 -->
      <g transform="translate(249.996268 185.758437) scale(0.1 -0.1)">
       <use xlink:href="#DejaVuSans-32"/>
       <use xlink:href="#DejaVuSans-2e" transform="translate(63.623047 0)"/>
       <use xlink:href="#DejaVuSans-37" transform="translate(95.410156 0)"/>
       <use xlink:href="#DejaVuSans-35" transform="translate(159.033203 0)"/>
      </g>
     </g>
    </g>
    <g id="xtick_6">
     <g id="line2d_11">
      <path d="M 308.823175 171.16 
L 308.823175 27.6 
" clip-path="url(#pb0593b2719)" style="fill: none; stroke: #b0b0b0; stroke-opacity: 0.3; stroke-width: 0.8; stroke-linecap: square"/>
     </g>
     <g id="line2d_12">
      <g>
       <use xlink:href="#md151f57e42" x="308.823175" y="171.16" style="stroke: #000000; stroke-width: 0.8"/>
      </g>
     </g>
     <g id="text_6">
      <!-- 3.00 -->
      <g transform="translate(297.690363 185.758437) scale(0.1 -0.1)">
       <defs>
        <path id="DejaVuSans-33" d="M 2597 2516 
Q 3050 2419 3304 2112 
Q 3559 1806 3559 1356 
Q 3559 666 3084 287 
Q 2609 -91 1734 -91 
Q 1441 -91 1130 -33 
Q 819 25 488 141 
L 488 750 
Q 750 597 1062 519 
Q 1375 441 1716 441 
Q 2309 441 2620 675 
Q 2931 909 2931 1356 
Q 2931 1769 2642 2001 
Q 2353 2234 1838 2234 
L 1294 2234 
L 1294 2753 
L 1863 2753 
Q 2328 2753 2575 2939 
Q 2822 3125 2822 3475 
Q 2822 3834 2567 4026 
Q 2313 4219 1838 4219 
Q 1578 4219 1281 4162 
Q 984 4106 628 3988 
L 628 4550 
Q 988 4650 1302 4700 
Q 1616 4750 1894 4750 
Q 2613 4750 3031 4423 
Q 3450 4097 3450 3541 
Q 3450 3153 3228 2886 
Q 3006 2619 2597 2516 
z
" transform="scale(0.015625)"/>
       </defs>
       <use xlink:href="#DejaVuSans-33"/>
       <use xlink:href="#DejaVuSans-2e" transform="translate(63.623047 0)"/>
       <use xlink:href="#DejaVuSans-30" transform="translate(95.410156 0)"/>
       <use xlink:href="#DejaVuSans-30" transform="translate(159.033203 0)"/>
      </g>
     </g>
    </g>
    <g id="xtick_7">
     <g id="line2d_13">
      <path d="M 356.517269 171.16 
L 356.517269 27.6 
" clip-path="url(#pb0593b2719)" style="fill: none; stroke: #b0b0b0; stroke-opacity: 0.3; stroke-width: 0.8; stroke-linecap: square"/>
     </g>
     <g id="line2d_14">
      <g>
       <use xlink:href="#md151f57e42" x="356.517269" y="171.16" style="stroke: #000000; stroke-width: 0.8"/>
      </g>
     </g>
     <g id="text_7">
      <!-- 3.25 -->
      <g transform="translate(345.384457 185.758437) scale(0.1 -0.1)">
       <use xlink:href="#DejaVuSans-33"/>
       <use xlink:href="#DejaVuSans-2e" transform="translate(63.623047 0)"/>
       <use xlink:href="#DejaVuSans-32" transform="translate(95.410156 0)"/>
       <use xlink:href="#DejaVuSans-35" transform="translate(159.033203 0)"/>
      </g>
     </g>
    </g>
    <g id="xtick_8">
     <g id="line2d_15">
      <path d="M 404.211364 171.16 
L 404.211364 27.6 
" clip-path="url(#pb0593b2719)" style="fill: none; stroke: #b0b0b0; stroke-opacity: 0.3; stroke-width: 0.8; stroke-linecap: square"/>
     </g>
     <g id="line2d_16">
      <g>
       <use xlink:href="#md151f57e42" x="404.211364" y="171.16" style="stroke: #000000; stroke-width: 0.8"/>
      </g>
     </g>
     <g id="text_8">
      <!-- 3.50 -->
      <g transform="translate(393.078551 185.758437) scale(0.1 -0.1)">
       <use xlink:href="#DejaVuSans-33"/>
       <use xlink:href="#DejaVuSans-2e" transform="translate(63.623047 0)"/>
       <use xlink:href="#DejaVuSans-35" transform="translate(95.410156 0)"/>
       <use xlink:href="#DejaVuSans-30" transform="translate(159.033203 0)"/>
      </g>
     </g>
    </g>
    <g id="text_9">
     <!-- Price ($/L) -->
     <g transform="translate(203.917188 200.95625) scale(0.12 -0.12)">
      <defs>
       <path id="DejaVuSans-50" d="M 1259 4147 
L 1259 2394 
L 2053 2394 
Q 2494 2394 2734 2622 
Q 2975 2850 2975 3272 
Q 2975 3691 2734 3919 
Q 2494 4147 2053 4147 
L 1259 4147 
z
M 628 4666 
L 2053 4666 
Q 2838 4666 3239 4311 
Q 3641 3956 3641 3272 
Q 3641 2581 3239 2228 
Q 2838 1875 2053 1875 
L 1259 1875 
L 1259 0 
L 628 0 
L 628 4666 
z
" transform="scale(0.015625)"/>
       <path id="DejaVuSans-72" d="M 2631 2963 
Q 2534 3019 2420 3045 
Q 2306 3072 2169 3072 
Q 1681 3072 1420 2755 
Q 1159 2438 1159 1844 
L 1159 0 
L 581 0 
L 581 3500 
L 1159 3500 
L 1159 2956 
Q 1341 3275 1631 3429 
Q 1922 3584 2338 3584 
Q 2397 3584 2469 3576 
Q 2541 3569 2628 3553 
L 2631 2963 
z
" transform="scale(0.015625)"/>
       <path id="DejaVuSans-69" d="M 603 3500 
L 1178 3500 
L 1178 0 
L 603 0 
L 603 3500 
z
M 603 4863 
L 1178 4863 
L 1178 4134 
L 603 4134 
L 603 4863 
z
" transform="scale(0.015625)"/>
       <path id="DejaVuSans-63" d="M 3122 3366 
L 3122 2828 
Q 2878 2963 2633 3030 
Q 2388 3097 2138 3097 
Q 1578 3097 1268 2742 
Q 959 2388 959 1747 
Q 959 1106 1268 751 
Q 1578 397 2138 397 
Q 2388 397 2633 464 
Q 2878 531 3122 666 
L 3122 134 
Q 2881 22 2623 -34 
Q 2366 -91 2075 -91 
Q 1284 -91 818 406 
Q 353 903 353 1747 
Q 353 2603 823 3093 
Q 1294 3584 2113 3584 
Q 2378 3584 2631 3529 
Q 2884 3475 3122 3366 
z
" transform="scale(0.015625)"/>
       <path id="DejaVuSans-65" d="M 3597 1894 
L 3597 1613 
L 953 1613 
Q 991 1019 1311 708 
Q 1631 397 2203 397 
Q 2534 397 2845 478 
Q 3156 559 3463 722 
L 3463 178 
Q 3153 47 2828 -22 
Q 2503 -91 2169 -91 
Q 1331 -91 842 396 
Q 353 884 353 1716 
Q 353 2575 817 3079 
Q 1281 3584 2069 3584 
Q 2775 3584 3186 3129 
Q 3597 2675 3597 1894 
z
M 3022 2063 
Q 3016 2534 2758 2815 
Q 2500 3097 2075 3097 
Q 1594 3097 1305 2825 
Q 1016 2553 972 2059 
L 3022 2063 
z
" transform="scale(0.015625)"/>
       <path id="DejaVuSans-20" transform="scale(0.015625)"/>
       <path id="DejaVuSans-28" d="M 1984 4856 
Q 1566 4138 1362 3434 
Q 1159 2731 1159 2009 
Q 1159 1288 1364 580 
Q 1569 -128 1984 -844 
L 1484 -844 
Q 1016 -109 783 600 
Q 550 1309 550 2009 
Q 550 2706 781 3412 
Q 1013 4119 1484 4856 
L 1984 4856 
z
" transform="scale(0.015625)"/>
       <path id="DejaVuSans-24" d="M 2163 -941 
L 1850 -941 
L 1847 0 
Q 1519 6 1191 76 
Q 863 147 531 288 
L 531 850 
Q 850 650 1176 548 
Q 1503 447 1850 444 
L 1850 1869 
Q 1159 1981 845 2250 
Q 531 2519 531 2988 
Q 531 3497 872 3790 
Q 1213 4084 1850 4128 
L 1850 4863 
L 2163 4863 
L 2163 4138 
Q 2453 4125 2725 4076 
Q 2997 4028 3256 3944 
L 3256 3397 
Q 2997 3528 2723 3600 
Q 2450 3672 2163 3684 
L 2163 2350 
Q 2872 2241 3206 1959 
Q 3541 1678 3541 1191 
Q 3541 663 3186 358 
Q 2831 53 2163 6 
L 2163 -941 
z
M 1850 2406 
L 1850 3688 
Q 1488 3647 1297 3481 
Q 1106 3316 1106 3041 
Q 1106 2772 1282 2622 
Q 1459 2472 1850 2406 
z
M 2163 1806 
L 2163 453 
Q 2559 506 2761 678 
Q 2963 850 2963 1131 
Q 2963 1406 2770 1568 
Q 2578 1731 2163 1806 
z
" transform="scale(0.015625)"/>
       <path id="DejaVuSans-2f" d="M 1625 4666 
L 2156 4666 
L 531 -594 
L 0 -594 
L 1625 4666 
z
" transform="scale(0.015625)"/>
       <path id="DejaVuSans-4c" d="M 628 4666 
L 1259 4666 
L 1259 531 
L 3531 531 
L 3531 0 
L 628 0 
L 628 4666 
z
" transform="scale(0.015625)"/>
       <path id="DejaVuSans-29" d="M 513 4856 
L 1013 4856 
Q 1481 4119 1714 3412 
Q 1947 2706 1947 2009 
Q 1947 1309 1714 600 
Q 1481 -109 1013 -844 
L 513 -844 
Q 928 -128 1133 580 
Q 1338 1288 1338 2009 
Q 1338 2731 1133 3434 
Q 928 4138 513 4856 
z
" transform="scale(0.015625)"/>
      </defs>
      <use xlink:href="#DejaVuSans-50"/>
      <use xlink:href="#DejaVuSans-72" transform="translate(58.552734 0)"/>
      <use xlink:href="#DejaVuSans-69" transform="translate(99.666016 0)"/>
      <use xlink:href="#DejaVuSans-63" transform="translate(127.449219 0)"/>
      <use xlink:href="#DejaVuSans-65" transform="translate(182.429688 0)"/>
      <use xlink:href="#DejaVuSans-20" transform="translate(243.953125 0)"/>
      <use xlink:href="#DejaVuSans-28" transform="translate(275.740234 0)"/>
      <use xlink:href="#DejaVuSans-24" transform="translate(314.753906 0)"/>
      <use xlink:href="#DejaVuSans-2f" transform="translate(378.376953 0)"/>
      <use xlink:href="#DejaVuSans-4c" transform="translate(412.068359 0)"/>
      <use xlink:href="#DejaVuSans-29" transform="translate(467.78125 0)"/>
     </g>
    </g>
   </g>
   <g id="matplotlib.axis_2">
    <g id="ytick_1">
     <g id="line2d_17">
      <path d="M 47.45 171.16 
L 421.2 171.16 
" clip-path="url(#pb0593b2719)" style="fill: none; stroke: #b0b0b0; stroke-opacity: 0.3; stroke-width: 0.8; stroke-linecap: square"/>
     </g>
     <g id="line2d_18">
      <defs>
       <path id="m5f669718aa" d="M 0 0 
L -3.5 0 
" style="stroke: #000000; stroke-width: 0.8"/>
      </defs>
      <g>
       <use xlink:href="#m5f669718aa" x="47.45" y="171.16" style="stroke: #000000; stroke-width: 0.8"/>
      </g>
     </g>
     <g id="text_10">
      <!-- 0 -->
      <g transform="translate(34.0875 174.959219) scale(0.1 -0.1)">
       <use xlink:href="#DejaVuSans-30"/>
      </g>
     </g>
    </g>
    <g id="ytick_2">
     <g id="line2d_19">
      <path d="M 47.45 140.086407 
L 421.2 140.086407 
" clip-path="url(#pb0593b2719)" style="fill: none; stroke: #b0b0b0; stroke-opacity: 0.3; stroke-width: 0.8; stroke-linecap: square"/>
     </g>
     <g id="line2d_20">
      <g>
       <use xlink:href="#m5f669718aa" x="47.45" y="140.086407" style="stroke: #000000; stroke-width: 0.8"/>
      </g>
     </g>
     <g id="text_11">
      <!-- 5 -->
      <g transform="translate(34.0875 143.885626) scale(0.1 -0.1)">
       <use xlink:href="#DejaVuSans-35"/>
      </g>
     </g>
    </g>
    <g id="ytick_3">
     <g id="line2d_21">
      <path d="M 47.45 109.012814 
L 421.2 109.012814 
" clip-path="url(#pb0593b2719)" style="fill: none; stroke: #b0b0b0; stroke-opacity: 0.3; stroke-width: 0.8; stroke-linecap: square"/>
     </g>
     <g id="line2d_22">
      <g>
       <use xlink:href="#m5f669718aa" x="47.45" y="109.012814" style="stroke: #000000; stroke-width: 0.8"/>
      </g>
     </g>
     <g id="text_12">
      <!-- 10 -->
      <g transform="translate(27.725 112.812033) scale(0.1 -0.1)">
       <use xlink:href="#DejaVuSans-31"/>
       <use xlink:href="#DejaVuSans-30" transform="translate(63.623047 0)"/>
      </g>
     </g>
    </g>
    <g id="ytick_4">
     <g id="line2d_23">
      <path d="M 47.45 77.939221 
L 421.2 77.939221 
" clip-path="url(#pb0593b2719)" style="fill: none; stroke: #b0b0b0; stroke-opacity: 0.3; stroke-width: 0.8; stroke-linecap: square"/>
     </g>
     <g id="line2d_24">
      <g>
       <use xlink:href="#m5f669718aa" x="47.45" y="77.939221" style="stroke: #000000; stroke-width: 0.8"/>
      </g>
     </g>
     <g id="text_13">
      <!-- 15 -->
      <g transform="translate(27.725 81.73844) scale(0.1 -0.1)">
       <use xlink:href="#DejaVuSans-31"/>
       <use xlink:href="#DejaVuSans-35" transform="translate(63.623047 0)"/>
      </g>
     </g>
    </g>
    <g id="ytick_5">
     <g id="line2d_25">
      <path d="M 47.45 46.865628 
L 421.2 46.865628 
" clip-path="url(#pb0593b2719)" style="fill: none; stroke: #b0b0b0; stroke-opacity: 0.3; stroke-width: 0.8; stroke-linecap: square"/>
     </g>
     <g id="line2d_26">
      <g>
       <use xlink:href="#m5f669718aa" x="47.45" y="46.865628" style="stroke: #000000; stroke-width: 0.8"/>
      </g>
     </g>
     <g id="text_14">
      <!-- 20 -->
      <g transform="translate(27.725 50.664846) scale(0.1 -0.1)">
       <use xlink:href="#DejaVuSans-32"/>
       <use xlink:href="#DejaVuSans-30" transform="translate(63.623047 0)"/>
      </g>
     </g>
    </g>
    <g id="text_15">
     <!-- Frequency -->
     <g transform="translate(21.229375 130.375625) rotate(-90) scale(0.12 -0.12)">
      <defs>
       <path id="DejaVuSans-46" d="M 628 4666 
L 3309 4666 
L 3309 4134 
L 1259 4134 
L 1259 2759 
L 3109 2759 
L 3109 2228 
L 1259 2228 
L 1259 0 
L 628 0 
L 628 4666 
z
" transform="scale(0.015625)"/>
       <path id="DejaVuSans-71" d="M 947 1747 
Q 947 1113 1208 752 
Q 1469 391 1925 391 
Q 2381 391 2643 752 
Q 2906 1113 2906 1747 
Q 2906 2381 2643 2742 
Q 2381 3103 1925 3103 
Q 1469 3103 1208 2742 
Q 947 2381 947 1747 
z
M 2906 525 
Q 2725 213 2448 61 
Q 2172 -91 1784 -91 
Q 1150 -91 751 415 
Q 353 922 353 1747 
Q 353 2572 751 3078 
Q 1150 3584 1784 3584 
Q 2172 3584 2448 3432 
Q 2725 3281 2906 2969 
L 2906 3500 
L 3481 3500 
L 3481 -1331 
L 2906 -1331 
L 2906 525 
z
" transform="scale(0.015625)"/>
       <path id="DejaVuSans-75" d="M 544 1381 
L 544 3500 
L 1119 3500 
L 1119 1403 
Q 1119 906 1312 657 
Q 1506 409 1894 409 
Q 2359 409 2629 706 
Q 2900 1003 2900 1516 
L 2900 3500 
L 3475 3500 
L 3475 0 
L 2900 0 
L 2900 538 
Q 2691 219 2414 64 
Q 2138 -91 1772 -91 
Q 1169 -91 856 284 
Q 544 659 544 1381 
z
M 1991 3584 
L 1991 3584 
z
" transform="scale(0.015625)"/>
       <path id="DejaVuSans-6e" d="M 3513 2113 
L 3513 0 
L 2938 0 
L 2938 2094 
Q 2938 2591 2744 2837 
Q 2550 3084 2163 3084 
Q 1697 3084 1428 2787 
Q 1159 2491 1159 1978 
L 1159 0 
L 581 0 
L 581 3500 
L 1159 3500 
L 1159 2956 
Q 1366 3272 1645 3428 
Q 1925 3584 2291 3584 
Q 2894 3584 3203 3211 
Q 3513 2838 3513 2113 
z
" transform="scale(0.015625)"/>
       <path id="DejaVuSans-79" d="M 2059 -325 
Q 1816 -950 1584 -1140 
Q 1353 -1331 966 -1331 
L 506 -1331 
L 506 -850 
L 844 -850 
Q 1081 -850 1212 -737 
Q 1344 -625 1503 -206 
L 1606 56 
L 191 3500 
L 800 3500 
L 1894 763 
L 2988 3500 
L 3597 3500 
L 2059 -325 
z
" transform="scale(0.015625)"/>
      </defs>
      <use xlink:href="#DejaVuSans-46"/>
      <use xlink:href="#DejaVuSans-72" transform="translate(50.269531 0)"/>
      <use xlink:href="#DejaVuSans-65" transform="translate(89.132812 0)"/>
      <use xlink:href="#DejaVuSans-71" transform="translate(150.65625 0)"/>
      <use xlink:href="#DejaVuSans-75" transform="translate(214.132812 0)"/>
      <use xlink:href="#DejaVuSans-65" transform="translate(277.511719 0)"/>
      <use xlink:href="#DejaVuSans-6e" transform="translate(339.035156 0)"/>
      <use xlink:href="#DejaVuSans-63" transform="translate(402.414062 0)"/>
      <use xlink:href="#DejaVuSans-79" transform="translate(457.394531 0)"/>
     </g>
    </g>
   </g>
   <g id="line2d_27">
    <path d="M 308.632399 168.14082 
L 310.553584 168.18909 
L 314.876251 168.44023 
L 316.31714 168.201641 
L 317.277732 167.867878 
L 318.238325 167.374378 
L 319.679214 166.323917 
L 321.120103 164.924895 
L 323.041288 162.636081 
L 325.923066 158.710133 
L 328.804844 154.455177 
L 330.245733 152.048645 
L 331.686621 149.238149 
L 333.12751 145.801282 
L 334.568399 141.503092 
L 336.009288 136.141718 
L 337.450177 129.613272 
L 338.891066 121.989206 
L 341.772844 104.955177 
L 343.694029 94.425718 
L 344.654622 90.100791 
L 345.615214 86.659309 
L 346.575807 84.2235 
L 347.056103 83.401921 
L 347.5364 82.846008 
L 348.016696 82.551758 
L 348.496992 82.511635 
L 348.977288 82.715146 
L 349.457585 83.149515 
L 349.937881 83.800387 
L 350.898474 85.690481 
L 351.859066 88.264275 
L 352.819659 91.412787 
L 354.260548 97.02549 
L 355.701437 103.517096 
L 357.622622 113.220522 
L 362.905881 140.996422 
L 364.34677 147.329212 
L 365.787659 152.727854 
L 367.228548 157.178802 
L 368.669437 160.758038 
L 370.110326 163.583957 
L 371.551215 165.779636 
L 372.992104 167.453772 
L 374.432993 168.697831 
L 375.873882 169.591042 
L 377.314771 170.205475 
L 378.755659 170.607569 
L 380.676845 170.914151 
L 383.558622 171.094503 
L 387.881289 171.097535 
L 391.243363 170.912479 
L 393.644845 170.591166 
L 396.046326 170.055563 
L 402.770475 168.296031 
L 404.211364 168.206955 
L 404.211364 168.206955 
" clip-path="url(#pb0593b2719)" style="fill: none; stroke: #1f77b4; stroke-width: 1.5; stroke-linecap: square"/>
   </g>
   <g id="line2d_28">
    <path d="M 348.209498 171.16 
L 348.209498 27.6 
" clip-path="url(#pb0593b2719)" style="fill: none; stroke-dasharray: 5.55,2.4; stroke-dashoffset: 0; stroke: #1f77b4; stroke-width: 1.5"/>
   </g>
   <g id="line2d_29">
    <path d="M 68.254164 169.579238 
L 72.203906 169.680121 
L 78.128519 170.113197 
L 87.015439 170.802998 
L 92.940052 171.039744 
L 101.826972 171.146523 
L 138.362086 171.16 
L 179.834378 171.071601 
L 184.771555 170.825363 
L 187.733862 170.47885 
L 190.696168 169.859285 
L 192.671039 169.225611 
L 194.64591 168.358742 
L 196.620781 167.206355 
L 198.595652 165.716109 
L 200.570523 163.839151 
L 202.545394 161.533712 
L 204.520265 158.768468 
L 206.495137 155.525591 
L 208.470008 151.803665 
L 210.444879 147.620872 
L 212.41975 143.01886 
L 215.382056 135.491351 
L 222.294105 117.382269 
L 224.268976 112.954869 
L 226.243847 109.29419 
L 227.231282 107.824623 
L 228.218718 106.630586 
L 229.206153 105.734397 
L 230.193589 105.154302 
L 231.181024 104.903812 
L 232.16846 104.991148 
L 233.155896 105.418838 
L 234.143331 106.18347 
L 235.130767 107.275638 
L 236.118202 108.680063 
L 237.105638 110.37591 
L 239.080509 114.533826 
L 241.05538 119.493903 
L 244.017686 127.780134 
L 247.967428 138.82858 
L 249.942299 143.790814 
L 251.91717 148.162179 
L 253.892041 151.874463 
L 255.866912 154.930066 
L 257.841783 157.388294 
L 259.816655 159.34635 
L 261.791526 160.918544 
L 263.766397 162.21717 
L 264.753832 162.794695 
L 264.753832 162.794695 
" clip-path="url(#pb0593b2719)" style="fill: none; stroke: #ff7f0e; stroke-width: 1.5; stroke-linecap: square"/>
   </g>
   <g id="line2d_30">
    <path d="M 229.60164 171.16 
L 229.60164 27.6 
" clip-path="url(#pb0593b2719)" style="fill: none; stroke-dasharray: 5.55,2.4; stroke-dashoffset: 0; stroke: #ff7f0e; stroke-width: 1.5"/>
   </g>
   <g id="line2d_31">
    <path d="M 64.438636 170.253976 
L 73.824067 170.358294 
L 114.778674 171.133134 
L 146.347851 171.140191 
L 159.999386 170.992277 
L 167.678375 170.697391 
L 173.650922 170.229055 
L 177.917027 169.695814 
L 182.183132 168.943176 
L 186.449237 167.927393 
L 189.862121 166.904454 
L 193.275005 165.689579 
L 197.54111 163.919384 
L 202.660435 161.514862 
L 212.045866 157.030697 
L 215.45875 155.678292 
L 218.018413 154.859494 
L 220.578076 154.249418 
L 223.137739 153.877294 
L 225.697402 153.762652 
L 228.257065 153.913632 
L 230.816728 154.326134 
L 233.376391 154.983897 
L 234.229612 155.253212 
L 234.229612 155.253212 
" clip-path="url(#pb0593b2719)" style="fill: none; stroke: #2ca02c; stroke-width: 1.5; stroke-linecap: square"/>
   </g>
   <g id="line2d_32">
    <path d="M 217.423947 171.16 
L 217.423947 27.6 
" clip-path="url(#pb0593b2719)" style="fill: none; stroke-dasharray: 5.55,2.4; stroke-dashoffset: 0; stroke: #2ca02c; stroke-width: 1.5"/>
   </g>
   <g id="patch_3">
    <path d="M 47.45 171.16 
L 47.45 27.6 
" style="fill: none; stroke: #000000; stroke-width: 0.8; stroke-linejoin: miter; stroke-linecap: square"/>
   </g>
   <g id="patch_4">
    <path d="M 421.2 171.16 
L 421.2 27.6 
" style="fill: none; stroke: #000000; stroke-width: 0.8; stroke-linejoin: miter; stroke-linecap: square"/>
   </g>
   <g id="patch_5">
    <path d="M 47.45 171.16 
L 421.2 171.16 
" style="fill: none; stroke: #000000; stroke-width: 0.8; stroke-linejoin: miter; stroke-linecap: square"/>
   </g>
   <g id="patch_6">
    <path d="M 47.45 27.6 
L 421.2 27.6 
" style="fill: none; stroke: #000000; stroke-width: 0.8; stroke-linejoin: miter; stroke-linecap: square"/>
   </g>
   <g id="text_16">
    <!-- Today's Fuel Price Distributions -->
    <g transform="translate(125.946406 21.6) scale(0.14 -0.14)">
     <defs>
      <path id="DejaVuSans-54" d="M -19 4666 
L 3928 4666 
L 3928 4134 
L 2272 4134 
L 2272 0 
L 1638 0 
L 1638 4134 
L -19 4134 
L -19 4666 
z
" transform="scale(0.015625)"/>
      <path id="DejaVuSans-6f" d="M 1959 3097 
Q 1497 3097 1228 2736 
Q 959 2375 959 1747 
Q 959 1119 1226 758 
Q 1494 397 1959 397 
Q 2419 397 2687 759 
Q 2956 1122 2956 1747 
Q 2956 2369 2687 2733 
Q 2419 3097 1959 3097 
z
M 1959 3584 
Q 2709 3584 3137 3096 
Q 3566 2609 3566 1747 
Q 3566 888 3137 398 
Q 2709 -91 1959 -91 
Q 1206 -91 779 398 
Q 353 888 353 1747 
Q 353 2609 779 3096 
Q 1206 3584 1959 3584 
z
" transform="scale(0.015625)"/>
      <path id="DejaVuSans-64" d="M 2906 2969 
L 2906 4863 
L 3481 4863 
L 3481 0 
L 2906 0 
L 2906 525 
Q 2725 213 2448 61 
Q 2172 -91 1784 -91 
Q 1150 -91 751 415 
Q 353 922 353 1747 
Q 353 2572 751 3078 
Q 1150 3584 1784 3584 
Q 2172 3584 2448 3432 
Q 2725 3281 2906 2969 
z
M 947 1747 
Q 947 1113 1208 752 
Q 1469 391 1925 391 
Q 2381 391 2643 752 
Q 2906 1113 2906 1747 
Q 2906 2381 2643 2742 
Q 2381 3103 1925 3103 
Q 1469 3103 1208 2742 
Q 947 2381 947 1747 
z
" transform="scale(0.015625)"/>
      <path id="DejaVuSans-61" d="M 2194 1759 
Q 1497 1759 1228 1600 
Q 959 1441 959 1056 
Q 959 750 1161 570 
Q 1363 391 1709 391 
Q 2188 391 2477 730 
Q 2766 1069 2766 1631 
L 2766 1759 
L 2194 1759 
z
M 3341 1997 
L 3341 0 
L 2766 0 
L 2766 531 
Q 2569 213 2275 61 
Q 1981 -91 1556 -91 
Q 1019 -91 701 211 
Q 384 513 384 1019 
Q 384 1609 779 1909 
Q 1175 2209 1959 2209 
L 2766 2209 
L 2766 2266 
Q 2766 2663 2505 2880 
Q 2244 3097 1772 3097 
Q 1472 3097 1187 3025 
Q 903 2953 641 2809 
L 641 3341 
Q 956 3463 1253 3523 
Q 1550 3584 1831 3584 
Q 2591 3584 2966 3190 
Q 3341 2797 3341 1997 
z
" transform="scale(0.015625)"/>
      <path id="DejaVuSans-27" d="M 1147 4666 
L 1147 2931 
L 616 2931 
L 616 4666 
L 1147 4666 
z
" transform="scale(0.015625)"/>
      <path id="DejaVuSans-73" d="M 2834 3397 
L 2834 2853 
Q 2591 2978 2328 3040 
Q 2066 3103 1784 3103 
Q 1356 3103 1142 2972 
Q 928 2841 928 2578 
Q 928 2378 1081 2264 
Q 1234 2150 1697 2047 
L 1894 2003 
Q 2506 1872 2764 1633 
Q 3022 1394 3022 966 
Q 3022 478 2636 193 
Q 2250 -91 1575 -91 
Q 1294 -91 989 -36 
Q 684 19 347 128 
L 347 722 
Q 666 556 975 473 
Q 1284 391 1588 391 
Q 1994 391 2212 530 
Q 2431 669 2431 922 
Q 2431 1156 2273 1281 
Q 2116 1406 1581 1522 
L 1381 1569 
Q 847 1681 609 1914 
Q 372 2147 372 2553 
Q 372 3047 722 3315 
Q 1072 3584 1716 3584 
Q 2034 3584 2315 3537 
Q 2597 3491 2834 3397 
z
" transform="scale(0.015625)"/>
      <path id="DejaVuSans-6c" d="M 603 4863 
L 1178 4863 
L 1178 0 
L 603 0 
L 603 4863 
z
" transform="scale(0.015625)"/>
      <path id="DejaVuSans-44" d="M 1259 4147 
L 1259 519 
L 2022 519 
Q 2988 519 3436 956 
Q 3884 1394 3884 2338 
Q 3884 3275 3436 3711 
Q 2988 4147 2022 4147 
L 1259 4147 
z
M 628 4666 
L 1925 4666 
Q 3281 4666 3915 4102 
Q 4550 3538 4550 2338 
Q 4550 1131 3912 565 
Q 3275 0 1925 0 
L 628 0 
L 628 4666 
z
" transform="scale(0.015625)"/>
      <path id="DejaVuSans-74" d="M 1172 4494 
L 1172 3500 
L 2356 3500 
L 2356 3053 
L 1172 3053 
L 1172 1153 
Q 1172 725 1289 603 
Q 1406 481 1766 481 
L 2356 481 
L 2356 0 
L 1766 0 
Q 1100 0 847 248 
Q 594 497 594 1153 
L 594 3053 
L 172 3053 
L 172 3500 
L 594 3500 
L 594 4494 
L 1172 4494 
z
" transform="scale(0.015625)"/>
      <path id="DejaVuSans-62" d="M 3116 1747 
Q 3116 2381 2855 2742 
Q 2594 3103 2138 3103 
Q 1681 3103 1420 2742 
Q 1159 2381 1159 1747 
Q 1159 1113 1420 752 
Q 1681 391 2138 391 
Q 2594 391 2855 752 
Q 3116 1113 3116 1747 
z
M 1159 2969 
Q 1341 3281 1617 3432 
Q 1894 3584 2278 3584 
Q 2916 3584 3314 3078 
Q 3713 2572 3713 1747 
Q 3713 922 3314 415 
Q 2916 -91 2278 -91 
Q 1894 -91 1617 61 
Q 1341 213 1159 525 
L 1159 0 
L 581 0 
L 581 4863 
L 1159 4863 
L 1159 2969 
z
" transform="scale(0.015625)"/>
     </defs>
     <use xlink:href="#DejaVuSans-54"/>
     <use xlink:href="#DejaVuSans-6f" transform="translate(44.083984 0)"/>
     <use xlink:href="#DejaVuSans-64" transform="translate(105.265625 0)"/>
     <use xlink:href="#DejaVuSans-61" transform="translate(168.742188 0)"/>
     <use xlink:href="#DejaVuSans-79" transform="translate(230.021484 0)"/>
     <use xlink:href="#DejaVuSans-27" transform="translate(289.201172 0)"/>
     <use xlink:href="#DejaVuSans-73" transform="translate(316.691406 0)"/>
     <use xlink:href="#DejaVuSans-20" transform="translate(368.791016 0)"/>
     <use xlink:href="#DejaVuSans-46" transform="translate(400.578125 0)"/>
     <use xlink:href="#DejaVuSans-75" transform="translate(452.597656 0)"/>
     <use xlink:href="#DejaVuSans-65" transform="translate(515.976562 0)"/>
     <use xlink:href="#DejaVuSans-6c" transform="translate(577.5 0)"/>
     <use xlink:href="#DejaVuSans-20" transform="translate(605.283203 0)"/>
     <use xlink:href="#DejaVuSans-50" transform="translate(637.070312 0)"/>
     <use xlink:href="#DejaVuSans-72" transform="translate(695.623047 0)"/>
     <use xlink:href="#DejaVuSans-69" transform="translate(736.736328 0)"/>
     <use xlink:href="#DejaVuSans-63" transform="translate(764.519531 0)"/>
     <use xlink:href="#DejaVuSans-65" transform="translate(819.5 0)"/>
     <use xlink:href="#DejaVuSans-20" transform="translate(881.023438 0)"/>
     <use xlink:href="#DejaVuSans-44" transform="translate(912.810547 0)"/>
     <use xlink:href="#DejaVuSans-69" transform="translate(989.8125 0)"/>
     <use xlink:href="#DejaVuSans-73" transform="translate(1017.595703 0)"/>
     <use xlink:href="#DejaVuSans-74" transform="translate(1069.695312 0)"/>
     <use xlink:href="#DejaVuSans-72" transform="translate(1108.904297 0)"/>
     <use xlink:href="#DejaVuSans-69" transform="translate(1150.017578 0)"/>
     <use xlink:href="#DejaVuSans-62" transform="translate(1177.800781 0)"/>
     <use xlink:href="#DejaVuSans-75" transform="translate(1241.277344 0)"/>
     <use xlink:href="#DejaVuSans-74" transform="translate(1304.65625 0)"/>
     <use xlink:href="#DejaVuSans-69" transform="translate(1343.865234 0)"/>
     <use xlink:href="#DejaVuSans-6f" transform="translate(1371.648438 0)"/>
     <use xlink:href="#DejaVuSans-6e" transform="translate(1432.830078 0)"/>
     <use xlink:href="#DejaVuSans-73" transform="translate(1496.208984 0)"/>
    </g>
   </g>
   <g id="legend_1">
    <g id="patch_7">
     <path d="M 54.45 94.378125 
L 192.15 94.378125 
Q 194.15 94.378125 194.15 92.378125 
L 194.15 34.6 
Q 194.15 32.6 192.15 32.6 
L 54.45 32.6 
Q 52.45 32.6 52.45 34.6 
L 52.45 92.378125 
Q 52.45 94.378125 54.45 94.378125 
z
" style="fill: #ffffff; opacity: 0.8; stroke: #cccccc; stroke-linejoin: miter"/>
    </g>
    <g id="text_17">
     <!-- Fuel Type -->
     <g transform="translate(99.992969 44.198437) scale(0.1 -0.1)">
      <defs>
       <path id="DejaVuSans-70" d="M 1159 525 
L 1159 -1331 
L 581 -1331 
L 581 3500 
L 1159 3500 
L 1159 2969 
Q 1341 3281 1617 3432 
Q 1894 3584 2278 3584 
Q 2916 3584 3314 3078 
Q 3713 2572 3713 1747 
Q 3713 922 3314 415 
Q 2916 -91 2278 -91 
Q 1894 -91 1617 61 
Q 1341 213 1159 525 
z
M 3116 1747 
Q 3116 2381 2855 2742 
Q 2594 3103 2138 3103 
Q 1681 3103 1420 2742 
Q 1159 2381 1159 1747 
Q 1159 1113 1420 752 
Q 1681 391 2138 391 
Q 2594 391 2855 752 
Q 3116 1113 3116 1747 
z
" transform="scale(0.015625)"/>
      </defs>
      <use xlink:href="#DejaVuSans-46"/>
      <use xlink:href="#DejaVuSans-75" transform="translate(52.019531 0)"/>
      <use xlink:href="#DejaVuSans-65" transform="translate(115.398438 0)"/>
      <use xlink:href="#DejaVuSans-6c" transform="translate(176.921875 0)"/>
      <use xlink:href="#DejaVuSans-20" transform="translate(204.705078 0)"/>
      <use xlink:href="#DejaVuSans-54" transform="translate(236.492188 0)"/>
      <use xlink:href="#DejaVuSans-79" transform="translate(281.951172 0)"/>
      <use xlink:href="#DejaVuSans-70" transform="translate(341.130859 0)"/>
      <use xlink:href="#DejaVuSans-65" transform="translate(404.607422 0)"/>
     </g>
    </g>
    <g id="patch_8">
     <path d="M 56.45 58.878125 
L 76.45 58.878125 
L 76.45 51.878125 
L 56.45 51.878125 
z
" style="fill: #1f77b4; fill-opacity: 0.4; stroke: #1f77b4; stroke-linejoin: miter"/>
    </g>
    <g id="text_18">
     <!-- Diesel ($\mu=\$3.21$) -->
     <g transform="translate(84.45 58.878125) scale(0.1 -0.1)">
      <defs>
       <path id="DejaVuSans-Oblique-3bc" d="M -84 -1331 
L 856 3500 
L 1434 3500 
L 1009 1322 
Q 997 1256 987 1175 
Q 978 1094 978 1013 
Q 978 722 1161 565 
Q 1344 409 1684 409 
Q 2147 409 2431 671 
Q 2716 934 2816 1459 
L 3213 3500 
L 3788 3500 
L 3266 809 
Q 3253 750 3248 706 
Q 3244 663 3244 628 
Q 3244 531 3283 486 
Q 3322 441 3406 441 
Q 3438 441 3492 456 
Q 3547 472 3647 513 
L 3559 50 
Q 3422 -19 3297 -55 
Q 3172 -91 3053 -91 
Q 2847 -91 2730 40 
Q 2613 172 2613 403 
Q 2438 153 2195 31 
Q 1953 -91 1625 -91 
Q 1334 -91 1117 43 
Q 900 178 831 397 
L 494 -1331 
L -84 -1331 
z
" transform="scale(0.015625)"/>
       <path id="DejaVuSans-3d" d="M 678 2906 
L 4684 2906 
L 4684 2381 
L 678 2381 
L 678 2906 
z
M 678 1631 
L 4684 1631 
L 4684 1100 
L 678 1100 
L 678 1631 
z
" transform="scale(0.015625)"/>
      </defs>
      <use xlink:href="#DejaVuSans-44" transform="translate(0 0.015625)"/>
      <use xlink:href="#DejaVuSans-69" transform="translate(77.001953 0.015625)"/>
      <use xlink:href="#DejaVuSans-65" transform="translate(104.785156 0.015625)"/>
      <use xlink:href="#DejaVuSans-73" transform="translate(166.308594 0.015625)"/>
      <use xlink:href="#DejaVuSans-65" transform="translate(218.408203 0.015625)"/>
      <use xlink:href="#DejaVuSans-6c" transform="translate(279.931641 0.015625)"/>
      <use xlink:href="#DejaVuSans-20" transform="translate(307.714844 0.015625)"/>
      <use xlink:href="#DejaVuSans-28" transform="translate(339.501953 0.015625)"/>
      <use xlink:href="#DejaVuSans-Oblique-3bc" transform="translate(378.515625 0.015625)"/>
      <use xlink:href="#DejaVuSans-3d" transform="translate(461.621094 0.015625)"/>
      <use xlink:href="#DejaVuSans-24" transform="translate(564.892578 0.015625)"/>
      <use xlink:href="#DejaVuSans-33" transform="translate(628.515625 0.015625)"/>
      <use xlink:href="#DejaVuSans-2e" transform="translate(692.138672 0.015625)"/>
      <use xlink:href="#DejaVuSans-32" transform="translate(718.425781 0.015625)"/>
      <use xlink:href="#DejaVuSans-31" transform="translate(782.048828 0.015625)"/>
      <use xlink:href="#DejaVuSans-29" transform="translate(845.671875 0.015625)"/>
     </g>
    </g>
    <g id="patch_9">
     <path d="M 56.45 73.578125 
L 76.45 73.578125 
L 76.45 66.578125 
L 56.45 66.578125 
z
" style="fill: #ff7f0e; fill-opacity: 0.4; stroke: #ff7f0e; stroke-linejoin: miter"/>
    </g>
    <g id="text_19">
     <!-- Unleaded ($\mu=\$2.58$) -->
     <g transform="translate(84.45 73.578125) scale(0.1 -0.1)">
      <defs>
       <path id="DejaVuSans-55" d="M 556 4666 
L 1191 4666 
L 1191 1831 
Q 1191 1081 1462 751 
Q 1734 422 2344 422 
Q 2950 422 3222 751 
Q 3494 1081 3494 1831 
L 3494 4666 
L 4128 4666 
L 4128 1753 
Q 4128 841 3676 375 
Q 3225 -91 2344 -91 
Q 1459 -91 1007 375 
Q 556 841 556 1753 
L 556 4666 
z
" transform="scale(0.015625)"/>
       <path id="DejaVuSans-38" d="M 2034 2216 
Q 1584 2216 1326 1975 
Q 1069 1734 1069 1313 
Q 1069 891 1326 650 
Q 1584 409 2034 409 
Q 2484 409 2743 651 
Q 3003 894 3003 1313 
Q 3003 1734 2745 1975 
Q 2488 2216 2034 2216 
z
M 1403 2484 
Q 997 2584 770 2862 
Q 544 3141 544 3541 
Q 544 4100 942 4425 
Q 1341 4750 2034 4750 
Q 2731 4750 3128 4425 
Q 3525 4100 3525 3541 
Q 3525 3141 3298 2862 
Q 3072 2584 2669 2484 
Q 3125 2378 3379 2068 
Q 3634 1759 3634 1313 
Q 3634 634 3220 271 
Q 2806 -91 2034 -91 
Q 1263 -91 848 271 
Q 434 634 434 1313 
Q 434 1759 690 2068 
Q 947 2378 1403 2484 
z
M 1172 3481 
Q 1172 3119 1398 2916 
Q 1625 2713 2034 2713 
Q 2441 2713 2670 2916 
Q 2900 3119 2900 3481 
Q 2900 3844 2670 4047 
Q 2441 4250 2034 4250 
Q 1625 4250 1398 4047 
Q 1172 3844 1172 3481 
z
" transform="scale(0.015625)"/>
      </defs>
      <use xlink:href="#DejaVuSans-55" transform="translate(0 0.015625)"/>
      <use xlink:href="#DejaVuSans-6e" transform="translate(73.193359 0.015625)"/>
      <use xlink:href="#DejaVuSans-6c" transform="translate(136.572266 0.015625)"/>
      <use xlink:href="#DejaVuSans-65" transform="translate(164.355469 0.015625)"/>
      <use xlink:href="#DejaVuSans-61" transform="translate(225.878906 0.015625)"/>
      <use xlink:href="#DejaVuSans-64" transform="translate(287.158203 0.015625)"/>
      <use xlink:href="#DejaVuSans-65" transform="translate(350.634766 0.015625)"/>
      <use xlink:href="#DejaVuSans-64" transform="translate(412.158203 0.015625)"/>
      <use xlink:href="#DejaVuSans-20" transform="translate(475.634766 0.015625)"/>
      <use xlink:href="#DejaVuSans-28" transform="translate(507.421875 0.015625)"/>
      <use xlink:href="#DejaVuSans-Oblique-3bc" transform="translate(546.435547 0.015625)"/>
      <use xlink:href="#DejaVuSans-3d" transform="translate(629.541016 0.015625)"/>
      <use xlink:href="#DejaVuSans-24" transform="translate(732.8125 0.015625)"/>
      <use xlink:href="#DejaVuSans-32" transform="translate(794.685547 0.015625)"/>
      <use xlink:href="#DejaVuSans-2e" transform="translate(858.308594 0.015625)"/>
      <use xlink:href="#DejaVuSans-35" transform="translate(890.095703 0.015625)"/>
      <use xlink:href="#DejaVuSans-38" transform="translate(953.71875 0.015625)"/>
      <use xlink:href="#DejaVuSans-29" transform="translate(1017.341797 0.015625)"/>
     </g>
    </g>
    <g id="patch_10">
     <path d="M 56.45 88.278125 
L 76.45 88.278125 
L 76.45 81.278125 
L 56.45 81.278125 
z
" style="fill: #2ca02c; fill-opacity: 0.4; stroke: #2ca02c; stroke-linejoin: miter"/>
    </g>
    <g id="text_20">
     <!-- e10 ($\mu=\$2.52$) -->
     <g transform="translate(84.45 88.278125) scale(0.1 -0.1)">
      <use xlink:href="#DejaVuSans-65" transform="translate(0 0.015625)"/>
      <use xlink:href="#DejaVuSans-31" transform="translate(61.523438 0.015625)"/>
      <use xlink:href="#DejaVuSans-30" transform="translate(125.146484 0.015625)"/>
      <use xlink:href="#DejaVuSans-20" transform="translate(188.769531 0.015625)"/>
      <use xlink:href="#DejaVuSans-28" transform="translate(220.556641 0.015625)"/>
      <use xlink:href="#DejaVuSans-Oblique-3bc" transform="translate(259.570312 0.015625)"/>
      <use xlink:href="#DejaVuSans-3d" transform="translate(342.675781 0.015625)"/>
      <use xlink:href="#DejaVuSans-24" transform="translate(445.947266 0.015625)"/>
      <use xlink:href="#DejaVuSans-32" transform="translate(507.820312 0.015625)"/>
      <use xlink:href="#DejaVuSans-2e" transform="translate(571.443359 0.015625)"/>
      <use xlink:href="#DejaVuSans-35" transform="translate(603.230469 0.015625)"/>
      <use xlink:href="#DejaVuSans-32" transform="translate(666.853516 0.015625)"/>
      <use xlink:href="#DejaVuSans-29" transform="translate(730.476562 0.015625)"/>
     </g>
    </g>
   </g>
  </g>
 </g>
 <defs>
  <clipPath id="pb0593b2719">
   <rect x="47.45" y="27.6" width="373.75" height="143.56"/>
  </clipPath>
 </defs>
</svg>
