<?xml version="1.0" encoding="utf-8" standalone="no"?>
<!DOCTYPE svg PUBLIC "-//W3C//DTD SVG 1.1//EN"
  "http://www.w3.org/Graphics/SVG/1.1/DTD/svg11.dtd">
<svg xmlns:xlink="http://www.w3.org/1999/xlink" width="432pt" height="216pt" viewBox="0 0 432 216" xmlns="http://www.w3.org/2000/svg" version="1.1">
 <metadata>
  <rdf:RDF xmlns:dc="http://purl.org/dc/elements/1.1/" xmlns:cc="http://creativecommons.org/ns#" xmlns:rdf="http://www.w3.org/1999/02/22-rdf-syntax-ns#">
   <cc:Work>
    <dc:type rdf:resource="http://purl.org/dc/dcmitype/StillImage"/>
    <dc:date>2026-07-24T00:06:52.551342</dc:date>
    <dc:format>image/svg+xml</dc:format>
    <dc:creator>
     <cc:Agent>
      <dc:title>Matplotlib v3.11.1, https://matplotlib.org/</dc:title>
     </cc:Agent>
    </dc:creator>
   </cc:Work>
  </rdf:RDF>
 </metadata>
 <defs>
  <style type="text/css">*{stroke-linejoin: round; stroke-linecap: butt}</style>
 </defs>
 <g id="figure_1">
  <g id="patch_1">
   <path d="M 0 216 
L 432 216 
L 432 0 
L 0 0 
z
" style="fill: #ffffff"/>
  </g>
  <g id="axes_1">
   <g id="patch_2">
    <path d="M 56.12 171.957188 
L 421.2 171.957188 
L 421.2 27.436719 
L 56.12 27.436719 
z
" style="fill: #ffffff"/>
   </g>
   <g id="FillBetweenPolyCollection_1">
    <defs>
     <path id="m64cda7fe0e" d="M 72.714545 -44.042812 
L 72.714545 -44.042812 
L 79.487829 -44.042812 
L 79.487829 -44.042812 
L 86.261113 -44.042812 
L 86.261113 -44.042812 
L 93.034397 -44.042812 
L 93.034397 -44.042812 
L 99.807681 -44.042812 
L 99.807681 -44.042812 
L 106.580965 -44.042812 
L 106.580965 -44.042812 
L 113.354249 -44.042812 
L 113.354249 -44.042812 
L 120.127532 -44.042812 
L 120.127532 -44.042812 
L 126.900816 -44.042812 
L 126.900816 -44.042812 
L 133.6741 -44.042812 
L 133.6741 -44.042812 
L 140.447384 -44.042812 
L 140.447384 -44.042812 
L 147.220668 -44.042812 
L 147.220668 -44.042812 
L 153.993952 -44.042812 
L 153.993952 -44.042812 
L 160.767236 -44.042812 
L 160.767236 -44.042812 
L 167.540519 -44.042812 
L 167.540519 -44.042812 
L 174.313803 -44.042812 
L 174.313803 -44.042812 
L 181.087087 -44.042812 
L 181.087087 -44.042812 
L 187.860371 -44.042812 
L 187.860371 -44.042812 
L 194.633655 -44.042812 
L 194.633655 -44.042812 
L 201.406939 -44.042812 
L 201.406939 -44.042812 
L 208.180223 -44.042812 
L 208.180223 -44.042812 
L 214.953506 -44.042812 
L 214.953506 -44.042812 
L 221.72679 -44.042812 
L 221.72679 -44.042812 
L 228.500074 -44.042812 
L 228.500074 -44.042812 
L 235.273358 -44.042812 
L 235.273358 -44.042812 
L 242.046642 -44.042812 
L 242.046642 -44.042812 
L 248.819926 -44.042812 
L 248.819926 -44.042812 
L 255.59321 -44.042812 
L 255.59321 -44.042812 
L 262.366494 -44.042812 
L 262.366494 -44.042812 
L 269.139777 -44.042812 
L 269.139777 -44.042812 
L 275.913061 -44.042812 
L 275.913061 -44.042812 
L 282.686345 -44.042812 
L 282.686345 -44.042812 
L 289.459629 -44.042812 
L 289.459629 -44.042812 
L 296.232913 -44.042812 
L 296.232913 -44.042812 
L 303.006197 -44.042812 
L 303.006197 -44.042812 
L 309.779481 -44.042812 
L 309.779481 -44.042812 
L 316.552764 -44.042812 
L 316.552764 -44.042812 
L 323.326048 -44.042812 
L 323.326048 -44.042812 
L 330.099332 -44.042812 
L 330.099332 -44.042812 
L 336.872616 -44.042812 
L 336.872616 -44.042812 
L 343.6459 -44.042812 
L 343.6459 -44.042812 
L 350.419184 -44.042812 
L 350.419184 -44.042812 
L 357.192468 -44.042812 
L 357.192468 -44.042812 
L 363.965751 -44.042812 
L 363.965751 -44.042812 
L 370.739035 -44.042812 
L 370.739035 -44.042812 
L 377.512319 -44.042812 
L 377.512319 -44.042812 
L 384.285603 -44.042812 
L 384.285603 -44.042812 
L 391.058887 -44.042812 
L 391.058887 -44.042812 
L 397.832171 -44.042812 
L 397.832171 -44.042812 
L 404.605455 -44.042812 
L 404.605455 -44.042812 
L 404.605455 -44.042812 
L 404.605455 -44.042812 
L 404.605455 -44.042812 
L 397.832171 -44.042812 
L 397.832171 -44.042812 
L 391.058887 -44.042812 
L 391.058887 -44.042812 
L 384.285603 -44.042812 
L 384.285603 -44.042812 
L 377.512319 -44.042812 
L 377.512319 -44.042812 
L 370.739035 -44.042812 
L 370.739035 -44.042812 
L 363.965751 -44.042812 
L 363.965751 -44.042812 
L 357.192468 -44.042812 
L 357.192468 -44.042812 
L 350.419184 -44.042812 
L 350.419184 -44.042812 
L 343.6459 -44.042812 
L 343.6459 -44.042812 
L 336.872616 -44.042812 
L 336.872616 -44.042812 
L 330.099332 -44.042812 
L 330.099332 -44.042812 
L 323.326048 -44.042812 
L 323.326048 -44.042812 
L 316.552764 -44.042812 
L 316.552764 -52.139197 
L 309.779481 -52.139197 
L 309.779481 -92.621121 
L 303.006197 -92.621121 
L 303.006197 -44.042812 
L 296.232913 -44.042812 
L 296.232913 -76.428352 
L 289.459629 -76.428352 
L 289.459629 -92.621121 
L 282.686345 -92.621121 
L 282.686345 -68.331967 
L 275.913061 -68.331967 
L 275.913061 -116.910276 
L 269.139777 -116.910276 
L 269.139777 -44.042812 
L 262.366494 -44.042812 
L 262.366494 -116.910276 
L 255.59321 -116.910276 
L 255.59321 -44.042812 
L 248.819926 -44.042812 
L 248.819926 -108.813891 
L 242.046642 -108.813891 
L 242.046642 -68.331967 
L 235.273358 -68.331967 
L 235.273358 -60.235582 
L 228.500074 -60.235582 
L 228.500074 -60.235582 
L 221.72679 -60.235582 
L 221.72679 -44.042812 
L 214.953506 -44.042812 
L 214.953506 -44.042812 
L 208.180223 -44.042812 
L 208.180223 -44.042812 
L 201.406939 -44.042812 
L 201.406939 -44.042812 
L 194.633655 -44.042812 
L 194.633655 -44.042812 
L 187.860371 -44.042812 
L 187.860371 -44.042812 
L 181.087087 -44.042812 
L 181.087087 -44.042812 
L 174.313803 -44.042812 
L 174.313803 -44.042812 
L 167.540519 -44.042812 
L 167.540519 -44.042812 
L 160.767236 -44.042812 
L 160.767236 -44.042812 
L 153.993952 -44.042812 
L 153.993952 -44.042812 
L 147.220668 -44.042812 
L 147.220668 -44.042812 
L 140.447384 -44.042812 
L 140.447384 -44.042812 
L 133.6741 -44.042812 
L 133.6741 -44.042812 
L 126.900816 -44.042812 
L 126.900816 -44.042812 
L 120.127532 -44.042812 
L 120.127532 -44.042812 
L 113.354249 -44.042812 
L 113.354249 -44.042812 
L 106.580965 -44.042812 
L 106.580965 -44.042812 
L 99.807681 -44.042812 
L 99.807681 -44.042812 
L 93.034397 -44.042812 
L 93.034397 -44.042812 
L 86.261113 -44.042812 
L 86.261113 -44.042812 
L 79.487829 -44.042812 
L 79.487829 -44.042812 
L 72.714545 -44.042812 
z
" style="stroke: #1f77b4"/>
    </defs>
    <g clip-path="url(#p07f56a7867)">
     <use xlink:href="#m64cda7fe0e" x="0" y="216" style="fill: #1f77b4; fill-opacity: 0.4; stroke: #1f77b4"/>
    </g>
   </g>
   <g id="FillBetweenPolyCollection_2">
    <defs>
     <path id="ma4e9d882e6" d="M 72.714545 -52.139197 
L 72.714545 -44.042812 
L 79.487829 -44.042812 
L 79.487829 -44.042812 
L 86.261113 -44.042812 
L 86.261113 -44.042812 
L 93.034397 -44.042812 
L 93.034397 -44.042812 
L 99.807681 -44.042812 
L 99.807681 -44.042812 
L 106.580965 -44.042812 
L 106.580965 -44.042812 
L 113.354249 -44.042812 
L 113.354249 -44.042812 
L 120.127532 -44.042812 
L 120.127532 -44.042812 
L 126.900816 -44.042812 
L 126.900816 -44.042812 
L 133.6741 -44.042812 
L 133.6741 -44.042812 
L 140.447384 -44.042812 
L 140.447384 -44.042812 
L 147.220668 -44.042812 
L 147.220668 -44.042812 
L 153.993952 -44.042812 
L 153.993952 -44.042812 
L 160.767236 -44.042812 
L 160.767236 -44.042812 
L 167.540519 -44.042812 
L 167.540519 -44.042812 
L 174.313803 -44.042812 
L 174.313803 -44.042812 
L 181.087087 -44.042812 
L 181.087087 -44.042812 
L 187.860371 -44.042812 
L 187.860371 -44.042812 
L 194.633655 -44.042812 
L 194.633655 -44.042812 
L 201.406939 -44.042812 
L 201.406939 -44.042812 
L 208.180223 -44.042812 
L 208.180223 -44.042812 
L 214.953506 -44.042812 
L 214.953506 -44.042812 
L 221.72679 -44.042812 
L 221.72679 -44.042812 
L 228.500074 -44.042812 
L 228.500074 -44.042812 
L 235.273358 -44.042812 
L 235.273358 -44.042812 
L 242.046642 -44.042812 
L 242.046642 -44.042812 
L 248.819926 -44.042812 
L 248.819926 -44.042812 
L 255.59321 -44.042812 
L 255.59321 -44.042812 
L 262.366494 -44.042812 
L 262.366494 -44.042812 
L 269.139777 -44.042812 
L 269.139777 -44.042812 
L 275.913061 -44.042812 
L 275.913061 -44.042812 
L 282.686345 -44.042812 
L 282.686345 -44.042812 
L 289.459629 -44.042812 
L 289.459629 -44.042812 
L 296.232913 -44.042812 
L 296.232913 -44.042812 
L 303.006197 -44.042812 
L 303.006197 -44.042812 
L 309.779481 -44.042812 
L 309.779481 -44.042812 
L 316.552764 -44.042812 
L 316.552764 -44.042812 
L 323.326048 -44.042812 
L 323.326048 -44.042812 
L 330.099332 -44.042812 
L 330.099332 -44.042812 
L 336.872616 -44.042812 
L 336.872616 -44.042812 
L 343.6459 -44.042812 
L 343.6459 -44.042812 
L 350.419184 -44.042812 
L 350.419184 -44.042812 
L 357.192468 -44.042812 
L 357.192468 -44.042812 
L 363.965751 -44.042812 
L 363.965751 -44.042812 
L 370.739035 -44.042812 
L 370.739035 -44.042812 
L 377.512319 -44.042812 
L 377.512319 -44.042812 
L 384.285603 -44.042812 
L 384.285603 -44.042812 
L 391.058887 -44.042812 
L 391.058887 -44.042812 
L 397.832171 -44.042812 
L 397.832171 -44.042812 
L 404.605455 -44.042812 
L 404.605455 -44.042812 
L 404.605455 -52.139197 
L 404.605455 -52.139197 
L 404.605455 -52.139197 
L 397.832171 -52.139197 
L 397.832171 -44.042812 
L 391.058887 -44.042812 
L 391.058887 -44.042812 
L 384.285603 -44.042812 
L 384.285603 -44.042812 
L 377.512319 -44.042812 
L 377.512319 -44.042812 
L 370.739035 -44.042812 
L 370.739035 -44.042812 
L 363.965751 -44.042812 
L 363.965751 -44.042812 
L 357.192468 -44.042812 
L 357.192468 -44.042812 
L 350.419184 -44.042812 
L 350.419184 -44.042812 
L 343.6459 -44.042812 
L 343.6459 -44.042812 
L 336.872616 -44.042812 
L 336.872616 -44.042812 
L 330.099332 -44.042812 
L 330.099332 -44.042812 
L 323.326048 -44.042812 
L 323.326048 -44.042812 
L 316.552764 -44.042812 
L 316.552764 -44.042812 
L 309.779481 -44.042812 
L 309.779481 -52.139197 
L 303.006197 -52.139197 
L 303.006197 -44.042812 
L 296.232913 -44.042812 
L 296.232913 -44.042812 
L 289.459629 -44.042812 
L 289.459629 -44.042812 
L 282.686345 -44.042812 
L 282.686345 -44.042812 
L 275.913061 -44.042812 
L 275.913061 -44.042812 
L 269.139777 -44.042812 
L 269.139777 -44.042812 
L 262.366494 -44.042812 
L 262.366494 -44.042812 
L 255.59321 -44.042812 
L 255.59321 -44.042812 
L 248.819926 -44.042812 
L 248.819926 -44.042812 
L 242.046642 -44.042812 
L 242.046642 -44.042812 
L 235.273358 -44.042812 
L 235.273358 -44.042812 
L 228.500074 -44.042812 
L 228.500074 -44.042812 
L 221.72679 -44.042812 
L 221.72679 -44.042812 
L 214.953506 -44.042812 
L 214.953506 -44.042812 
L 208.180223 -44.042812 
L 208.180223 -44.042812 
L 201.406939 -44.042812 
L 201.406939 -44.042812 
L 194.633655 -44.042812 
L 194.633655 -44.042812 
L 187.860371 -44.042812 
L 187.860371 -44.042812 
L 181.087087 -44.042812 
L 181.087087 -52.139197 
L 174.313803 -52.139197 
L 174.313803 -44.042812 
L 167.540519 -44.042812 
L 167.540519 -44.042812 
L 160.767236 -44.042812 
L 160.767236 -44.042812 
L 153.993952 -44.042812 
L 153.993952 -116.910276 
L 147.220668 -116.910276 
L 147.220668 -60.235582 
L 140.447384 -60.235582 
L 140.447384 -84.524737 
L 133.6741 -84.524737 
L 133.6741 -141.19943 
L 126.900816 -141.19943 
L 126.900816 -181.681354 
L 120.127532 -181.681354 
L 120.127532 -52.139197 
L 113.354249 -52.139197 
L 113.354249 -60.235582 
L 106.580965 -60.235582 
L 106.580965 -52.139197 
L 99.807681 -52.139197 
L 99.807681 -84.524737 
L 93.034397 -84.524737 
L 93.034397 -52.139197 
L 86.261113 -52.139197 
L 86.261113 -44.042812 
L 79.487829 -44.042812 
L 79.487829 -52.139197 
L 72.714545 -52.139197 
z
" style="stroke: #ff7f0e"/>
    </defs>
    <g clip-path="url(#p07f56a7867)">
     <use xlink:href="#ma4e9d882e6" x="0" y="216" style="fill: #ff7f0e; fill-opacity: 0.4; stroke: #ff7f0e"/>
    </g>
   </g>
   <g id="FillBetweenPolyCollection_3">
    <defs>
     <path id="m4fcee87d8e" d="M 72.714545 -44.042812 
L 72.714545 -44.042812 
L 79.487829 -44.042812 
L 79.487829 -44.042812 
L 86.261113 -44.042812 
L 86.261113 -44.042812 
L 93.034397 -44.042812 
L 93.034397 -44.042812 
L 99.807681 -44.042812 
L 99.807681 -44.042812 
L 106.580965 -44.042812 
L 106.580965 -44.042812 
L 113.354249 -44.042812 
L 113.354249 -44.042812 
L 120.127532 -44.042812 
L 120.127532 -44.042812 
L 126.900816 -44.042812 
L 126.900816 -44.042812 
L 133.6741 -44.042812 
L 133.6741 -44.042812 
L 140.447384 -44.042812 
L 140.447384 -44.042812 
L 147.220668 -44.042812 
L 147.220668 -44.042812 
L 153.993952 -44.042812 
L 153.993952 -44.042812 
L 160.767236 -44.042812 
L 160.767236 -44.042812 
L 167.540519 -44.042812 
L 167.540519 -44.042812 
L 174.313803 -44.042812 
L 174.313803 -44.042812 
L 181.087087 -44.042812 
L 181.087087 -44.042812 
L 187.860371 -44.042812 
L 187.860371 -44.042812 
L 194.633655 -44.042812 
L 194.633655 -44.042812 
L 201.406939 -44.042812 
L 201.406939 -44.042812 
L 208.180223 -44.042812 
L 208.180223 -44.042812 
L 214.953506 -44.042812 
L 214.953506 -44.042812 
L 221.72679 -44.042812 
L 221.72679 -44.042812 
L 228.500074 -44.042812 
L 228.500074 -44.042812 
L 235.273358 -44.042812 
L 235.273358 -44.042812 
L 242.046642 -44.042812 
L 242.046642 -44.042812 
L 248.819926 -44.042812 
L 248.819926 -44.042812 
L 255.59321 -44.042812 
L 255.59321 -44.042812 
L 262.366494 -44.042812 
L 262.366494 -44.042812 
L 269.139777 -44.042812 
L 269.139777 -44.042812 
L 275.913061 -44.042812 
L 275.913061 -44.042812 
L 282.686345 -44.042812 
L 282.686345 -44.042812 
L 289.459629 -44.042812 
L 289.459629 -44.042812 
L 296.232913 -44.042812 
L 296.232913 -44.042812 
L 303.006197 -44.042812 
L 303.006197 -44.042812 
L 309.779481 -44.042812 
L 309.779481 -44.042812 
L 316.552764 -44.042812 
L 316.552764 -44.042812 
L 323.326048 -44.042812 
L 323.326048 -44.042812 
L 330.099332 -44.042812 
L 330.099332 -44.042812 
L 336.872616 -44.042812 
L 336.872616 -44.042812 
L 343.6459 -44.042812 
L 343.6459 -44.042812 
L 350.419184 -44.042812 
L 350.419184 -44.042812 
L 357.192468 -44.042812 
L 357.192468 -44.042812 
L 363.965751 -44.042812 
L 363.965751 -44.042812 
L 370.739035 -44.042812 
L 370.739035 -44.042812 
L 377.512319 -44.042812 
L 377.512319 -44.042812 
L 384.285603 -44.042812 
L 384.285603 -44.042812 
L 391.058887 -44.042812 
L 391.058887 -44.042812 
L 397.832171 -44.042812 
L 397.832171 -44.042812 
L 404.605455 -44.042812 
L 404.605455 -44.042812 
L 404.605455 -44.042812 
L 404.605455 -44.042812 
L 404.605455 -44.042812 
L 397.832171 -44.042812 
L 397.832171 -44.042812 
L 391.058887 -44.042812 
L 391.058887 -44.042812 
L 384.285603 -44.042812 
L 384.285603 -44.042812 
L 377.512319 -44.042812 
L 377.512319 -44.042812 
L 370.739035 -44.042812 
L 370.739035 -44.042812 
L 363.965751 -44.042812 
L 363.965751 -44.042812 
L 357.192468 -44.042812 
L 357.192468 -44.042812 
L 350.419184 -44.042812 
L 350.419184 -44.042812 
L 343.6459 -44.042812 
L 343.6459 -44.042812 
L 336.872616 -44.042812 
L 336.872616 -44.042812 
L 330.099332 -44.042812 
L 330.099332 -44.042812 
L 323.326048 -44.042812 
L 323.326048 -44.042812 
L 316.552764 -44.042812 
L 316.552764 -44.042812 
L 309.779481 -44.042812 
L 309.779481 -44.042812 
L 303.006197 -44.042812 
L 303.006197 -44.042812 
L 296.232913 -44.042812 
L 296.232913 -44.042812 
L 289.459629 -44.042812 
L 289.459629 -44.042812 
L 282.686345 -44.042812 
L 282.686345 -44.042812 
L 275.913061 -44.042812 
L 275.913061 -44.042812 
L 269.139777 -44.042812 
L 269.139777 -44.042812 
L 262.366494 -44.042812 
L 262.366494 -44.042812 
L 255.59321 -44.042812 
L 255.59321 -44.042812 
L 248.819926 -44.042812 
L 248.819926 -44.042812 
L 242.046642 -44.042812 
L 242.046642 -44.042812 
L 235.273358 -44.042812 
L 235.273358 -44.042812 
L 228.500074 -44.042812 
L 228.500074 -44.042812 
L 221.72679 -44.042812 
L 221.72679 -44.042812 
L 214.953506 -44.042812 
L 214.953506 -44.042812 
L 208.180223 -44.042812 
L 208.180223 -44.042812 
L 201.406939 -44.042812 
L 201.406939 -44.042812 
L 194.633655 -44.042812 
L 194.633655 -44.042812 
L 187.860371 -44.042812 
L 187.860371 -44.042812 
L 181.087087 -44.042812 
L 181.087087 -44.042812 
L 174.313803 -44.042812 
L 174.313803 -44.042812 
L 167.540519 -44.042812 
L 167.540519 -44.042812 
L 160.767236 -44.042812 
L 160.767236 -44.042812 
L 153.993952 -44.042812 
L 153.993952 -44.042812 
L 147.220668 -44.042812 
L 147.220668 -44.042812 
L 140.447384 -44.042812 
L 140.447384 -44.042812 
L 133.6741 -44.042812 
L 133.6741 -44.042812 
L 126.900816 -44.042812 
L 126.900816 -92.621121 
L 120.127532 -92.621121 
L 120.127532 -125.006661 
L 113.354249 -125.006661 
L 113.354249 -44.042812 
L 106.580965 -44.042812 
L 106.580965 -44.042812 
L 99.807681 -44.042812 
L 99.807681 -52.139197 
L 93.034397 -52.139197 
L 93.034397 -60.235582 
L 86.261113 -60.235582 
L 86.261113 -68.331967 
L 79.487829 -68.331967 
L 79.487829 -44.042812 
L 72.714545 -44.042812 
z
" style="stroke: #2ca02c"/>
    </defs>
    <g clip-path="url(#p07f56a7867)">
     <use xlink:href="#m4fcee87d8e" x="0" y="216" style="fill: #2ca02c; fill-opacity: 0.4; stroke: #2ca02c"/>
    </g>
   </g>
   <g id="matplotlib.axis_1">
    <g id="xtick_1">
     <g id="line2d_1">
      <path d="M 101.451441 171.957188 
L 101.451441 27.436719 
" clip-path="url(#p07f56a7867)" style="fill: none; stroke: #b0b0b0; stroke-opacity: 0.3; stroke-width: 0.8; stroke-linecap: square"/>
     </g>
     <g id="line2d_2">
      <defs>
       <path id="m97eaf7ed8e" d="M 0 0 
L 0 3.5 
" style="stroke: #000000; stroke-width: 0.8"/>
      </defs>
      <g>
       <use xlink:href="#m97eaf7ed8e" x="101.451441" y="171.957188" style="stroke: #000000; stroke-width: 0.8"/>
      </g>
     </g>
     <g id="text_1">
      <!-- 1.8 -->
      <g transform="translate(93.499879 186.554844) scale(0.1 -0.1)">
       <defs>
        <path id="DejaVuSans-14" d="M 794 531 
L 1825 531 
L 1825 4091 
L 703 3866 
L 703 4441 
L 1819 4666 
L 2450 4666 
L 2450 531 
L 3481 531 
L 3481 0 
L 794 0 
L 794 531 
z
" transform="scale(0.015625)"/>
        <path id="DejaVuSans-11" d="M 684 794 
L 1344 794 
L 1344 0 
L 684 0 
L 684 794 
z
" transform="scale(0.015625)"/>
        <path id="DejaVuSans-1b" d="M 2034 2216 
Q 1584 2216 1326 1975 
Q 1069 1734 1069 1313 
Q 1069 891 1326 650 
Q 1584 409 2034 409 
Q 2484 409 2743 651 
Q 3003 894 3003 1313 
Q 3003 1734 2745 1975 
Q 2488 2216 2034 2216 
z
M 1403 2484 
Q 997 2584 770 2862 
Q 544 3141 544 3541 
Q 544 4100 942 4425 
Q 1341 4750 2034 4750 
Q 2731 4750 3128 4425 
Q 3525 4100 3525 3541 
Q 3525 3141 3298 2862 
Q 3072 2584 2669 2484 
Q 3125 2378 3379 2068 
Q 3634 1759 3634 1313 
Q 3634 634 3220 271 
Q 2806 -91 2034 -91 
Q 1263 -91 848 271 
Q 434 634 434 1313 
Q 434 1759 690 2068 
Q 947 2378 1403 2484 
z
M 1172 3481 
Q 1172 3119 1398 2916 
Q 1625 2713 2034 2713 
Q 2441 2713 2670 2916 
Q 2900 3119 2900 3481 
Q 2900 3844 2670 4047 
Q 2441 4250 2034 4250 
Q 1625 4250 1398 4047 
Q 1172 3844 1172 3481 
z
" transform="scale(0.015625)"/>
       </defs>
       <use xlink:href="#DejaVuSans-14"/>
       <use xlink:href="#DejaVuSans-11" transform="translate(63.625 0)"/>
       <use xlink:href="#DejaVuSans-1b" transform="translate(95.40625 0)"/>
      </g>
     </g>
    </g>
    <g id="xtick_2">
     <g id="line2d_3">
      <path d="M 182.400443 171.957188 
L 182.400443 27.436719 
" clip-path="url(#p07f56a7867)" style="fill: none; stroke: #b0b0b0; stroke-opacity: 0.3; stroke-width: 0.8; stroke-linecap: square"/>
     </g>
     <g id="line2d_4">
      <g>
       <use xlink:href="#m97eaf7ed8e" x="182.400443" y="171.957188" style="stroke: #000000; stroke-width: 0.8"/>
      </g>
     </g>
     <g id="text_2">
      <!-- 2.0 -->
      <g transform="translate(174.448881 186.554844) scale(0.1 -0.1)">
       <defs>
        <path id="DejaVuSans-15" d="M 1228 531 
L 3431 531 
L 3431 0 
L 469 0 
L 469 531 
Q 828 903 1448 1529 
Q 2069 2156 2228 2338 
Q 2531 2678 2651 2914 
Q 2772 3150 2772 3378 
Q 2772 3750 2511 3984 
Q 2250 4219 1831 4219 
Q 1534 4219 1204 4116 
Q 875 4013 500 3803 
L 500 4441 
Q 881 4594 1212 4672 
Q 1544 4750 1819 4750 
Q 2544 4750 2975 4387 
Q 3406 4025 3406 3419 
Q 3406 3131 3298 2873 
Q 3191 2616 2906 2266 
Q 2828 2175 2409 1742 
Q 1991 1309 1228 531 
z
" transform="scale(0.015625)"/>
        <path id="DejaVuSans-13" d="M 2034 4250 
Q 1547 4250 1301 3770 
Q 1056 3291 1056 2328 
Q 1056 1369 1301 889 
Q 1547 409 2034 409 
Q 2525 409 2770 889 
Q 3016 1369 3016 2328 
Q 3016 3291 2770 3770 
Q 2525 4250 2034 4250 
z
M 2034 4750 
Q 2819 4750 3233 4129 
Q 3647 3509 3647 2328 
Q 3647 1150 3233 529 
Q 2819 -91 2034 -91 
Q 1250 -91 836 529 
Q 422 1150 422 2328 
Q 422 3509 836 4129 
Q 1250 4750 2034 4750 
z
" transform="scale(0.015625)"/>
       </defs>
       <use xlink:href="#DejaVuSans-15"/>
       <use xlink:href="#DejaVuSans-11" transform="translate(63.625 0)"/>
       <use xlink:href="#DejaVuSans-13" transform="translate(95.40625 0)"/>
      </g>
     </g>
    </g>
    <g id="xtick_3">
     <g id="line2d_5">
      <path d="M 263.349446 171.957188 
L 263.349446 27.436719 
" clip-path="url(#p07f56a7867)" style="fill: none; stroke: #b0b0b0; stroke-opacity: 0.3; stroke-width: 0.8; stroke-linecap: square"/>
     </g>
     <g id="line2d_6">
      <g>
       <use xlink:href="#m97eaf7ed8e" x="263.349446" y="171.957188" style="stroke: #000000; stroke-width: 0.8"/>
      </g>
     </g>
     <g id="text_3">
      <!-- 2.2 -->
      <g transform="translate(255.397883 186.554844) scale(0.1 -0.1)">
       <use xlink:href="#DejaVuSans-15"/>
       <use xlink:href="#DejaVuSans-11" transform="translate(63.625 0)"/>
       <use xlink:href="#DejaVuSans-15" transform="translate(95.40625 0)"/>
      </g>
     </g>
    </g>
    <g id="xtick_4">
     <g id="line2d_7">
      <path d="M 344.298448 171.957188 
L 344.298448 27.436719 
" clip-path="url(#p07f56a7867)" style="fill: none; stroke: #b0b0b0; stroke-opacity: 0.3; stroke-width: 0.8; stroke-linecap: square"/>
     </g>
     <g id="line2d_8">
      <g>
       <use xlink:href="#m97eaf7ed8e" x="344.298448" y="171.957188" style="stroke: #000000; stroke-width: 0.8"/>
      </g>
     </g>
     <g id="text_4">
      <!-- 2.4 -->
      <g transform="translate(336.346885 186.554844) scale(0.1 -0.1)">
       <defs>
        <path id="DejaVuSans-17" d="M 2419 4116 
L 825 1625 
L 2419 1625 
L 2419 4116 
z
M 2253 4666 
L 3047 4666 
L 3047 1625 
L 3713 1625 
L 3713 1100 
L 3047 1100 
L 3047 0 
L 2419 0 
L 2419 1100 
L 313 1100 
L 313 1709 
L 2253 4666 
z
" transform="scale(0.015625)"/>
       </defs>
       <use xlink:href="#DejaVuSans-15"/>
       <use xlink:href="#DejaVuSans-11" transform="translate(63.625 0)"/>
       <use xlink:href="#DejaVuSans-17" transform="translate(95.40625 0)"/>
      </g>
     </g>
    </g>
    <g id="text_5">
     <!-- Price ($/L) -->
     <g transform="translate(208.252187 202.075312) scale(0.12 -0.12)">
      <defs>
       <path id="DejaVuSans-33" d="M 1259 4147 
L 1259 2394 
L 2053 2394 
Q 2494 2394 2734 2622 
Q 2975 2850 2975 3272 
Q 2975 3691 2734 3919 
Q 2494 4147 2053 4147 
L 1259 4147 
z
M 628 4666 
L 2053 4666 
Q 2838 4666 3239 4311 
Q 3641 3956 3641 3272 
Q 3641 2581 3239 2228 
Q 2838 1875 2053 1875 
L 1259 1875 
L 1259 0 
L 628 0 
L 628 4666 
z
" transform="scale(0.015625)"/>
       <path id="DejaVuSans-55" d="M 2631 2963 
Q 2534 3019 2420 3045 
Q 2306 3072 2169 3072 
Q 1681 3072 1420 2755 
Q 1159 2438 1159 1844 
L 1159 0 
L 581 0 
L 581 3500 
L 1159 3500 
L 1159 2956 
Q 1341 3275 1631 3429 
Q 1922 3584 2338 3584 
Q 2397 3584 2469 3576 
Q 2541 3569 2628 3553 
L 2631 2963 
z
" transform="scale(0.015625)"/>
       <path id="DejaVuSans-4c" d="M 603 3500 
L 1178 3500 
L 1178 0 
L 603 0 
L 603 3500 
z
M 603 4863 
L 1178 4863 
L 1178 4134 
L 603 4134 
L 603 4863 
z
" transform="scale(0.015625)"/>
       <path id="DejaVuSans-46" d="M 3122 3366 
L 3122 2828 
Q 2878 2963 2633 3030 
Q 2388 3097 2138 3097 
Q 1578 3097 1268 2742 
Q 959 2388 959 1747 
Q 959 1106 1268 751 
Q 1578 397 2138 397 
Q 2388 397 2633 464 
Q 2878 531 3122 666 
L 3122 134 
Q 2881 22 2623 -34 
Q 2366 -91 2075 -91 
Q 1284 -91 818 406 
Q 353 903 353 1747 
Q 353 2603 823 3093 
Q 1294 3584 2113 3584 
Q 2378 3584 2631 3529 
Q 2884 3475 3122 3366 
z
" transform="scale(0.015625)"/>
       <path id="DejaVuSans-48" d="M 3597 1894 
L 3597 1613 
L 953 1613 
Q 991 1019 1311 708 
Q 1631 397 2203 397 
Q 2534 397 2845 478 
Q 3156 559 3463 722 
L 3463 178 
Q 3153 47 2828 -22 
Q 2503 -91 2169 -91 
Q 1331 -91 842 396 
Q 353 884 353 1716 
Q 353 2575 817 3079 
Q 1281 3584 2069 3584 
Q 2775 3584 3186 3129 
Q 3597 2675 3597 1894 
z
M 3022 2063 
Q 3016 2534 2758 2815 
Q 2500 3097 2075 3097 
Q 1594 3097 1305 2825 
Q 1016 2553 972 2059 
L 3022 2063 
z
" transform="scale(0.015625)"/>
       <path id="DejaVuSans-3" transform="scale(0.015625)"/>
       <path id="DejaVuSans-b" d="M 1984 4856 
Q 1566 4138 1362 3434 
Q 1159 2731 1159 2009 
Q 1159 1288 1364 580 
Q 1569 -128 1984 -844 
L 1484 -844 
Q 1016 -109 783 600 
Q 550 1309 550 2009 
Q 550 2706 781 3412 
Q 1013 4119 1484 4856 
L 1984 4856 
z
" transform="scale(0.015625)"/>
       <path id="DejaVuSans-7" d="M 2163 -941 
L 1850 -941 
L 1847 0 
Q 1519 6 1191 76 
Q 863 147 531 288 
L 531 850 
Q 850 650 1176 548 
Q 1503 447 1850 444 
L 1850 1869 
Q 1159 1981 845 2250 
Q 531 2519 531 2988 
Q 531 3497 872 3790 
Q 1213 4084 1850 4128 
L 1850 4863 
L 2163 4863 
L 2163 4138 
Q 2453 4125 2725 4076 
Q 2997 4028 3256 3944 
L 3256 3397 
Q 2997 3528 2723 3600 
Q 2450 3672 2163 3684 
L 2163 2350 
Q 2872 2241 3206 1959 
Q 3541 1678 3541 1191 
Q 3541 663 3186 358 
Q 2831 53 2163 6 
L 2163 -941 
z
M 1850 2406 
L 1850 3688 
Q 1488 3647 1297 3481 
Q 1106 3316 1106 3041 
Q 1106 2772 1282 2622 
Q 1459 2472 1850 2406 
z
M 2163 1806 
L 2163 453 
Q 2559 506 2761 678 
Q 2963 850 2963 1131 
Q 2963 1406 2770 1568 
Q 2578 1731 2163 1806 
z
" transform="scale(0.015625)"/>
       <path id="DejaVuSans-12" d="M 1625 4666 
L 2156 4666 
L 531 -594 
L 0 -594 
L 1625 4666 
z
" transform="scale(0.015625)"/>
       <path id="DejaVuSans-2f" d="M 628 4666 
L 1259 4666 
L 1259 531 
L 3531 531 
L 3531 0 
L 628 0 
L 628 4666 
z
" transform="scale(0.015625)"/>
       <path id="DejaVuSans-c" d="M 513 4856 
L 1013 4856 
Q 1481 4119 1714 3412 
Q 1947 2706 1947 2009 
Q 1947 1309 1714 600 
Q 1481 -109 1013 -844 
L 513 -844 
Q 928 -128 1133 580 
Q 1338 1288 1338 2009 
Q 1338 2731 1133 3434 
Q 928 4138 513 4856 
z
" transform="scale(0.015625)"/>
      </defs>
      <use xlink:href="#DejaVuSans-33"/>
      <use xlink:href="#DejaVuSans-55" transform="translate(58.546875 0)"/>
      <use xlink:href="#DejaVuSans-4c" transform="translate(99.65625 0)"/>
      <use xlink:href="#DejaVuSans-46" transform="translate(127.4375 0)"/>
      <use xlink:href="#DejaVuSans-48" transform="translate(182.421875 0)"/>
      <use xlink:href="#DejaVuSans-3" transform="translate(243.953125 0)"/>
      <use xlink:href="#DejaVuSans-b" transform="translate(275.734375 0)"/>
      <use xlink:href="#DejaVuSans-7" transform="translate(314.75 0)"/>
      <use xlink:href="#DejaVuSans-12" transform="translate(378.375 0)"/>
      <use xlink:href="#DejaVuSans-2f" transform="translate(412.0625 0)"/>
      <use xlink:href="#DejaVuSans-c" transform="translate(467.78125 0)"/>
     </g>
    </g>
   </g>
   <g id="matplotlib.axis_2">
    <g id="ytick_1">
     <g id="line2d_9">
      <path d="M 56.12 171.957188 
L 421.2 171.957188 
" clip-path="url(#p07f56a7867)" style="fill: none; stroke: #b0b0b0; stroke-opacity: 0.3; stroke-width: 0.8; stroke-linecap: square"/>
     </g>
     <g id="line2d_10">
      <defs>
       <path id="mf6950619ad" d="M 0 0 
L -3.5 0 
" style="stroke: #000000; stroke-width: 0.8"/>
      </defs>
      <g>
       <use xlink:href="#mf6950619ad" x="56.12" y="171.957188" style="stroke: #000000; stroke-width: 0.8"/>
      </g>
     </g>
     <g id="text_6">
      <!-- 0 -->
      <g transform="translate(42.7575 175.756016) scale(0.1 -0.1)">
       <use xlink:href="#DejaVuSans-13"/>
      </g>
     </g>
    </g>
    <g id="ytick_2">
     <g id="line2d_11">
      <path d="M 56.12 131.475263 
L 421.2 131.475263 
" clip-path="url(#p07f56a7867)" style="fill: none; stroke: #b0b0b0; stroke-opacity: 0.3; stroke-width: 0.8; stroke-linecap: square"/>
     </g>
     <g id="line2d_12">
      <g>
       <use xlink:href="#mf6950619ad" x="56.12" y="131.475263" style="stroke: #000000; stroke-width: 0.8"/>
      </g>
     </g>
     <g id="text_7">
      <!-- 5 -->
      <g transform="translate(42.7575 135.274092) scale(0.1 -0.1)">
       <defs>
        <path id="DejaVuSans-18" d="M 691 4666 
L 3169 4666 
L 3169 4134 
L 1269 4134 
L 1269 2991 
Q 1406 3038 1543 3061 
Q 1681 3084 1819 3084 
Q 2600 3084 3056 2656 
Q 3513 2228 3513 1497 
Q 3513 744 3044 326 
Q 2575 -91 1722 -91 
Q 1428 -91 1123 -41 
Q 819 9 494 109 
L 494 744 
Q 775 591 1075 516 
Q 1375 441 1709 441 
Q 2250 441 2565 725 
Q 2881 1009 2881 1497 
Q 2881 1984 2565 2268 
Q 2250 2553 1709 2553 
Q 1456 2553 1204 2497 
Q 953 2441 691 2322 
L 691 4666 
z
" transform="scale(0.015625)"/>
       </defs>
       <use xlink:href="#DejaVuSans-18"/>
      </g>
     </g>
    </g>
    <g id="ytick_3">
     <g id="line2d_13">
      <path d="M 56.12 90.993339 
L 421.2 90.993339 
" clip-path="url(#p07f56a7867)" style="fill: none; stroke: #b0b0b0; stroke-opacity: 0.3; stroke-width: 0.8; stroke-linecap: square"/>
     </g>
     <g id="line2d_14">
      <g>
       <use xlink:href="#mf6950619ad" x="56.12" y="90.993339" style="stroke: #000000; stroke-width: 0.8"/>
      </g>
     </g>
     <g id="text_8">
      <!-- 10 -->
      <g transform="translate(36.395 94.792168) scale(0.1 -0.1)">
       <use xlink:href="#DejaVuSans-14"/>
       <use xlink:href="#DejaVuSans-13" transform="translate(63.625 0)"/>
      </g>
     </g>
    </g>
    <g id="ytick_4">
     <g id="line2d_15">
      <path d="M 56.12 50.511415 
L 421.2 50.511415 
" clip-path="url(#p07f56a7867)" style="fill: none; stroke: #b0b0b0; stroke-opacity: 0.3; stroke-width: 0.8; stroke-linecap: square"/>
     </g>
     <g id="line2d_16">
      <g>
       <use xlink:href="#mf6950619ad" x="56.12" y="50.511415" style="stroke: #000000; stroke-width: 0.8"/>
      </g>
     </g>
     <g id="text_9">
      <!-- 15 -->
      <g transform="translate(36.395 54.310244) scale(0.1 -0.1)">
       <use xlink:href="#DejaVuSans-14"/>
       <use xlink:href="#DejaVuSans-18" transform="translate(63.625 0)"/>
      </g>
     </g>
    </g>
    <g id="text_10">
     <!-- Frequency -->
     <g transform="translate(29.512188 130.693516) rotate(-90) scale(0.12 -0.12)">
      <defs>
       <path id="DejaVuSans-29" d="M 628 4666 
L 3309 4666 
L 3309 4134 
L 1259 4134 
L 1259 2759 
L 3109 2759 
L 3109 2228 
L 1259 2228 
L 1259 0 
L 628 0 
L 628 4666 
z
" transform="scale(0.015625)"/>
       <path id="DejaVuSans-54" d="M 947 1747 
Q 947 1113 1208 752 
Q 1469 391 1925 391 
Q 2381 391 2643 752 
Q 2906 1113 2906 1747 
Q 2906 2381 2643 2742 
Q 2381 3103 1925 3103 
Q 1469 3103 1208 2742 
Q 947 2381 947 1747 
z
M 2906 525 
Q 2725 213 2448 61 
Q 2172 -91 1784 -91 
Q 1150 -91 751 415 
Q 353 922 353 1747 
Q 353 2572 751 3078 
Q 1150 3584 1784 3584 
Q 2172 3584 2448 3432 
Q 2725 3281 2906 2969 
L 2906 3500 
L 3481 3500 
L 3481 -1331 
L 2906 -1331 
L 2906 525 
z
" transform="scale(0.015625)"/>
       <path id="DejaVuSans-58" d="M 544 1381 
L 544 3500 
L 1119 3500 
L 1119 1403 
Q 1119 906 1312 657 
Q 1506 409 1894 409 
Q 2359 409 2629 706 
Q 2900 1003 2900 1516 
L 2900 3500 
L 3475 3500 
L 3475 0 
L 2900 0 
L 2900 538 
Q 2691 219 2414 64 
Q 2138 -91 1772 -91 
Q 1169 -91 856 284 
Q 544 659 544 1381 
z
M 1991 3584 
L 1991 3584 
z
" transform="scale(0.015625)"/>
       <path id="DejaVuSans-51" d="M 3513 2113 
L 3513 0 
L 2938 0 
L 2938 2094 
Q 2938 2591 2744 2837 
Q 2550 3084 2163 3084 
Q 1697 3084 1428 2787 
Q 1159 2491 1159 1978 
L 1159 0 
L 581 0 
L 581 3500 
L 1159 3500 
L 1159 2956 
Q 1366 3272 1645 3428 
Q 1925 3584 2291 3584 
Q 2894 3584 3203 3211 
Q 3513 2838 3513 2113 
z
" transform="scale(0.015625)"/>
       <path id="DejaVuSans-5c" d="M 2059 -325 
Q 1816 -950 1584 -1140 
Q 1353 -1331 966 -1331 
L 506 -1331 
L 506 -850 
L 844 -850 
Q 1081 -850 1212 -737 
Q 1344 -625 1503 -206 
L 1606 56 
L 191 3500 
L 800 3500 
L 1894 763 
L 2988 3500 
L 3597 3500 
L 2059 -325 
z
" transform="scale(0.015625)"/>
      </defs>
      <use xlink:href="#DejaVuSans-29"/>
      <use xlink:href="#DejaVuSans-55" transform="translate(50.234375 0)"/>
      <use xlink:href="#DejaVuSans-48" transform="translate(89.140625 0)"/>
      <use xlink:href="#DejaVuSans-54" transform="translate(150.671875 0)"/>
      <use xlink:href="#DejaVuSans-58" transform="translate(214.15625 0)"/>
      <use xlink:href="#DejaVuSans-48" transform="translate(277.53125 0)"/>
      <use xlink:href="#DejaVuSans-51" transform="translate(339.0625 0)"/>
      <use xlink:href="#DejaVuSans-46" transform="translate(402.4375 0)"/>
      <use xlink:href="#DejaVuSans-5c" transform="translate(457.421875 0)"/>
     </g>
    </g>
   </g>
   <g id="line2d_17">
    <path d="M 222.4702 160.845607 
L 225.602397 158.019322 
L 229.182051 154.492356 
L 233.656619 149.755153 
L 239.921015 143.123035 
L 242.605755 140.601962 
L 244.843039 138.781974 
L 247.080323 137.276332 
L 248.870151 136.31862 
L 250.659978 135.581652 
L 252.449805 135.052132 
L 254.687089 134.640714 
L 257.37183 134.41338 
L 267.215879 133.894779 
L 273.927731 133.245296 
L 276.165015 133.292807 
L 278.402299 133.59563 
L 280.192126 134.045444 
L 282.42941 134.866304 
L 284.666694 135.942534 
L 287.351435 137.490153 
L 291.378546 140.112474 
L 296.748028 143.885151 
L 300.327682 146.679491 
L 303.012423 149.044712 
L 305.697164 151.683395 
L 309.276818 155.550962 
L 311.514102 158.056158 
L 311.514102 158.056158 
" clip-path="url(#p07f56a7867)" style="fill: none; stroke: #1f77b4; stroke-width: 1.5; stroke-linecap: square"/>
   </g>
   <g id="line2d_18">
    <path d="M 267.946738 171.957188 
L 267.946738 27.436719 
" clip-path="url(#p07f56a7867)" style="fill: none; stroke-dasharray: 5.55,2.4; stroke-dashoffset: 0; stroke: #1f77b4; stroke-width: 1.5"/>
   </g>
   <g id="line2d_19">
    <path d="M 72.714545 165.992224 
L 76.050132 164.661626 
L 79.38572 163.107362 
L 82.721307 161.307846 
L 86.056894 159.244791 
L 89.392481 156.906162 
L 92.728068 154.289942 
L 96.063655 151.408487 
L 99.399242 148.292992 
L 104.402622 143.305528 
L 112.74159 134.936957 
L 116.077177 131.934739 
L 119.412764 129.342179 
L 121.080557 128.242684 
L 122.748351 127.29533 
L 124.416144 126.51385 
L 126.083938 125.90997 
L 127.751731 125.493106 
L 129.419525 125.270113 
L 131.087318 125.24511 
L 132.755112 125.419374 
L 134.422905 125.791309 
L 136.090699 126.356493 
L 137.758492 127.107797 
L 139.426286 128.035578 
L 141.094079 129.127922 
L 144.429667 131.749117 
L 147.765254 134.842816 
L 151.100841 138.265988 
L 164.443189 152.497194 
L 167.778776 155.640284 
L 171.114363 158.477999 
L 174.44995 160.98263 
L 177.785537 163.147015 
L 181.121124 164.980651 
L 184.456711 166.505414 
L 187.792298 167.751358 
L 191.127885 168.752918 
L 194.463472 169.54576 
L 197.799059 170.164398 
L 202.802439 170.834154 
L 207.80582 171.273644 
L 214.476994 171.621278 
L 224.483755 171.853985 
L 239.493897 171.936859 
L 259.507419 171.851627 
L 274.517561 171.564624 
L 301.202257 170.889566 
L 311.209018 170.958918 
L 324.551366 171.32965 
L 341.229301 171.756862 
L 354.571649 171.858683 
L 367.913997 171.737945 
L 382.924139 171.347111 
L 399.602074 170.915122 
L 404.605455 170.883223 
L 404.605455 170.883223 
" clip-path="url(#p07f56a7867)" style="fill: none; stroke: #ff7f0e; stroke-width: 1.5; stroke-linecap: square"/>
   </g>
   <g id="line2d_20">
    <path d="M 136.437874 171.957188 
L 136.437874 27.436719 
" clip-path="url(#p07f56a7867)" style="fill: none; stroke-dasharray: 5.55,2.4; stroke-dashoffset: 0; stroke: #ff7f0e; stroke-width: 1.5"/>
   </g>
   <g id="line2d_21">
    <path d="M 83.237916 159.94756 
L 84.718591 159.159769 
L 86.199266 158.634085 
L 87.468416 158.407127 
L 88.737567 158.385808 
L 90.218242 158.601548 
L 91.910442 159.109972 
L 94.448742 160.173469 
L 96.775518 161.099383 
L 98.256193 161.454365 
L 99.525343 161.503757 
L 100.582968 161.310232 
L 101.640593 160.864864 
L 102.698219 160.139738 
L 103.755844 159.11748 
L 104.813469 157.793649 
L 106.082619 155.822678 
L 107.563294 153.060298 
L 109.46702 148.988612 
L 113.27447 140.702203 
L 114.755145 138.079202 
L 115.812771 136.589879 
L 116.870396 135.48311 
L 117.716496 134.899089 
L 118.562596 134.595945 
L 119.408696 134.578204 
L 120.254796 134.843618 
L 121.100896 135.383629 
L 121.946996 136.184004 
L 123.004622 137.521044 
L 124.273772 139.557102 
L 125.331397 141.550089 
L 125.331397 141.550089 
" clip-path="url(#p07f56a7867)" style="fill: none; stroke: #2ca02c; stroke-width: 1.5; stroke-linecap: square"/>
   </g>
   <g id="line2d_22">
    <path d="M 111.091732 171.957188 
L 111.091732 27.436719 
" clip-path="url(#p07f56a7867)" style="fill: none; stroke-dasharray: 5.55,2.4; stroke-dashoffset: 0; stroke: #2ca02c; stroke-width: 1.5"/>
   </g>
   <g id="patch_3">
    <path d="M 56.12 171.957188 
L 56.12 27.436719 
" style="fill: none; stroke: #000000; stroke-width: 0.8; stroke-linejoin: miter; stroke-linecap: square"/>
   </g>
   <g id="patch_4">
    <path d="M 421.2 171.957188 
L 421.2 27.436719 
" style="fill: none; stroke: #000000; stroke-width: 0.8; stroke-linejoin: miter; stroke-linecap: square"/>
   </g>
   <g id="patch_5">
    <path d="M 56.12 171.957188 
L 421.2 171.957188 
" style="fill: none; stroke: #000000; stroke-width: 0.8; stroke-linejoin: miter; stroke-linecap: square"/>
   </g>
   <g id="patch_6">
    <path d="M 56.12 27.436719 
L 421.2 27.436719 
" style="fill: none; stroke: #000000; stroke-width: 0.8; stroke-linejoin: miter; stroke-linecap: square"/>
   </g>
   <g id="text_11">
    <!-- Today's Fuel Price Distributions -->
    <g transform="translate(130.278125 21.436719) scale(0.14 -0.14)">
     <defs>
      <path id="DejaVuSans-37" d="M -19 4666 
L 3928 4666 
L 3928 4134 
L 2272 4134 
L 2272 0 
L 1638 0 
L 1638 4134 
L -19 4134 
L -19 4666 
z
" transform="scale(0.015625)"/>
      <path id="DejaVuSans-52" d="M 1959 3097 
Q 1497 3097 1228 2736 
Q 959 2375 959 1747 
Q 959 1119 1226 758 
Q 1494 397 1959 397 
Q 2419 397 2687 759 
Q 2956 1122 2956 1747 
Q 2956 2369 2687 2733 
Q 2419 3097 1959 3097 
z
M 1959 3584 
Q 2709 3584 3137 3096 
Q 3566 2609 3566 1747 
Q 3566 888 3137 398 
Q 2709 -91 1959 -91 
Q 1206 -91 779 398 
Q 353 888 353 1747 
Q 353 2609 779 3096 
Q 1206 3584 1959 3584 
z
" transform="scale(0.015625)"/>
      <path id="DejaVuSans-47" d="M 2906 2969 
L 2906 4863 
L 3481 4863 
L 3481 0 
L 2906 0 
L 2906 525 
Q 2725 213 2448 61 
Q 2172 -91 1784 -91 
Q 1150 -91 751 415 
Q 353 922 353 1747 
Q 353 2572 751 3078 
Q 1150 3584 1784 3584 
Q 2172 3584 2448 3432 
Q 2725 3281 2906 2969 
z
M 947 1747 
Q 947 1113 1208 752 
Q 1469 391 1925 391 
Q 2381 391 2643 752 
Q 2906 1113 2906 1747 
Q 2906 2381 2643 2742 
Q 2381 3103 1925 3103 
Q 1469 3103 1208 2742 
Q 947 2381 947 1747 
z
" transform="scale(0.015625)"/>
      <path id="DejaVuSans-44" d="M 2194 1759 
Q 1497 1759 1228 1600 
Q 959 1441 959 1056 
Q 959 750 1161 570 
Q 1363 391 1709 391 
Q 2188 391 2477 730 
Q 2766 1069 2766 1631 
L 2766 1759 
L 2194 1759 
z
M 3341 1997 
L 3341 0 
L 2766 0 
L 2766 531 
Q 2569 213 2275 61 
Q 1981 -91 1556 -91 
Q 1019 -91 701 211 
Q 384 513 384 1019 
Q 384 1609 779 1909 
Q 1175 2209 1959 2209 
L 2766 2209 
L 2766 2266 
Q 2766 2663 2505 2880 
Q 2244 3097 1772 3097 
Q 1472 3097 1187 3025 
Q 903 2953 641 2809 
L 641 3341 
Q 956 3463 1253 3523 
Q 1550 3584 1831 3584 
Q 2591 3584 2966 3190 
Q 3341 2797 3341 1997 
z
" transform="scale(0.015625)"/>
      <path id="DejaVuSans-a" d="M 1147 4666 
L 1147 2931 
L 616 2931 
L 616 4666 
L 1147 4666 
z
" transform="scale(0.015625)"/>
      <path id="DejaVuSans-56" d="M 2834 3397 
L 2834 2853 
Q 2591 2978 2328 3040 
Q 2066 3103 1784 3103 
Q 1356 3103 1142 2972 
Q 928 2841 928 2578 
Q 928 2378 1081 2264 
Q 1234 2150 1697 2047 
L 1894 2003 
Q 2506 1872 2764 1633 
Q 3022 1394 3022 966 
Q 3022 478 2636 193 
Q 2250 -91 1575 -91 
Q 1294 -91 989 -36 
Q 684 19 347 128 
L 347 722 
Q 666 556 975 473 
Q 1284 391 1588 391 
Q 1994 391 2212 530 
Q 2431 669 2431 922 
Q 2431 1156 2273 1281 
Q 2116 1406 1581 1522 
L 1381 1569 
Q 847 1681 609 1914 
Q 372 2147 372 2553 
Q 372 3047 722 3315 
Q 1072 3584 1716 3584 
Q 2034 3584 2315 3537 
Q 2597 3491 2834 3397 
z
" transform="scale(0.015625)"/>
      <path id="DejaVuSans-4f" d="M 603 4863 
L 1178 4863 
L 1178 0 
L 603 0 
L 603 4863 
z
" transform="scale(0.015625)"/>
      <path id="DejaVuSans-27" d="M 1259 4147 
L 1259 519 
L 2022 519 
Q 2988 519 3436 956 
Q 3884 1394 3884 2338 
Q 3884 3275 3436 3711 
Q 2988 4147 2022 4147 
L 1259 4147 
z
M 628 4666 
L 1925 4666 
Q 3281 4666 3915 4102 
Q 4550 3538 4550 2338 
Q 4550 1131 3912 565 
Q 3275 0 1925 0 
L 628 0 
L 628 4666 
z
" transform="scale(0.015625)"/>
      <path id="DejaVuSans-57" d="M 1172 4494 
L 1172 3500 
L 2356 3500 
L 2356 3053 
L 1172 3053 
L 1172 1153 
Q 1172 725 1289 603 
Q 1406 481 1766 481 
L 2356 481 
L 2356 0 
L 1766 0 
Q 1100 0 847 248 
Q 594 497 594 1153 
L 594 3053 
L 172 3053 
L 172 3500 
L 594 3500 
L 594 4494 
L 1172 4494 
z
" transform="scale(0.015625)"/>
      <path id="DejaVuSans-45" d="M 3116 1747 
Q 3116 2381 2855 2742 
Q 2594 3103 2138 3103 
Q 1681 3103 1420 2742 
Q 1159 2381 1159 1747 
Q 1159 1113 1420 752 
Q 1681 391 2138 391 
Q 2594 391 2855 752 
Q 3116 1113 3116 1747 
z
M 1159 2969 
Q 1341 3281 1617 3432 
Q 1894 3584 2278 3584 
Q 2916 3584 3314 3078 
Q 3713 2572 3713 1747 
Q 3713 922 3314 415 
Q 2916 -91 2278 -91 
Q 1894 -91 1617 61 
Q 1341 213 1159 525 
L 1159 0 
L 581 0 
L 581 4863 
L 1159 4863 
L 1159 2969 
z
" transform="scale(0.015625)"/>
     </defs>
     <use xlink:href="#DejaVuSans-37"/>
     <use xlink:href="#DejaVuSans-52" transform="translate(44.09375 0)"/>
     <use xlink:href="#DejaVuSans-47" transform="translate(105.28125 0)"/>
     <use xlink:href="#DejaVuSans-44" transform="translate(168.765625 0)"/>
     <use xlink:href="#DejaVuSans-5c" transform="translate(230.046875 0)"/>
     <use xlink:href="#DejaVuSans-a" transform="translate(289.234375 0)"/>
     <use xlink:href="#DejaVuSans-56" transform="translate(316.71875 0)"/>
     <use xlink:href="#DejaVuSans-3" transform="translate(368.8125 0)"/>
     <use xlink:href="#DejaVuSans-29" transform="translate(400.59375 0)"/>
     <use xlink:href="#DejaVuSans-58" transform="translate(452.640625 0)"/>
     <use xlink:href="#DejaVuSans-48" transform="translate(516.015625 0)"/>
     <use xlink:href="#DejaVuSans-4f" transform="translate(577.546875 0)"/>
     <use xlink:href="#DejaVuSans-3" transform="translate(605.328125 0)"/>
     <use xlink:href="#DejaVuSans-33" transform="translate(637.109375 0)"/>
     <use xlink:href="#DejaVuSans-55" transform="translate(695.65625 0)"/>
     <use xlink:href="#DejaVuSans-4c" transform="translate(736.765625 0)"/>
     <use xlink:href="#DejaVuSans-46" transform="translate(764.546875 0)"/>
     <use xlink:href="#DejaVuSans-48" transform="translate(819.53125 0)"/>
     <use xlink:href="#DejaVuSans-3" transform="translate(881.0625 0)"/>
     <use xlink:href="#DejaVuSans-27" transform="translate(912.84375 0)"/>
     <use xlink:href="#DejaVuSans-4c" transform="translate(989.84375 0)"/>
     <use xlink:href="#DejaVuSans-56" transform="translate(1017.625 0)"/>
     <use xlink:href="#DejaVuSans-57" transform="translate(1069.71875 0)"/>
     <use xlink:href="#DejaVuSans-55" transform="translate(1108.921875 0)"/>
     <use xlink:href="#DejaVuSans-4c" transform="translate(1150.03125 0)"/>
     <use xlink:href="#DejaVuSans-45" transform="translate(1177.8125 0)"/>
     <use xlink:href="#DejaVuSans-58" transform="translate(1241.296875 0)"/>
     <use xlink:href="#DejaVuSans-57" transform="translate(1304.671875 0)"/>
     <use xlink:href="#DejaVuSans-4c" transform="translate(1343.875 0)"/>
     <use xlink:href="#DejaVuSans-52" transform="translate(1371.65625 0)"/>
     <use xlink:href="#DejaVuSans-51" transform="translate(1432.84375 0)"/>
     <use xlink:href="#DejaVuSans-56" transform="translate(1496.21875 0)"/>
    </g>
   </g>
   <g id="legend_1">
    <g id="patch_7">
     <path d="M 276.3 95.444531 
L 414.2 95.444531 
Q 416.2 95.444531 416.2 93.444531 
L 416.2 34.436719 
Q 416.2 32.436719 414.2 32.436719 
L 276.3 32.436719 
Q 274.3 32.436719 274.3 34.436719 
L 274.3 93.444531 
Q 274.3 95.444531 276.3 95.444531 
z
" style="fill: #ffffff; opacity: 0.8; stroke: #cccccc; stroke-linejoin: miter"/>
    </g>
    <g id="text_12">
     <!-- Fuel Type -->
     <g transform="translate(321.939062 44.035156) scale(0.1 -0.1)">
      <defs>
       <path id="DejaVuSans-53" d="M 1159 525 
L 1159 -1331 
L 581 -1331 
L 581 3500 
L 1159 3500 
L 1159 2969 
Q 1341 3281 1617 3432 
Q 1894 3584 2278 3584 
Q 2916 3584 3314 3078 
Q 3713 2572 3713 1747 
Q 3713 922 3314 415 
Q 2916 -91 2278 -91 
Q 1894 -91 1617 61 
Q 1341 213 1159 525 
z
M 3116 1747 
Q 3116 2381 2855 2742 
Q 2594 3103 2138 3103 
Q 1681 3103 1420 2742 
Q 1159 2381 1159 1747 
Q 1159 1113 1420 752 
Q 1681 391 2138 391 
Q 2594 391 2855 752 
Q 3116 1113 3116 1747 
z
" transform="scale(0.015625)"/>
      </defs>
      <use xlink:href="#DejaVuSans-29"/>
      <use xlink:href="#DejaVuSans-58" transform="translate(52.046875 0)"/>
      <use xlink:href="#DejaVuSans-48" transform="translate(115.421875 0)"/>
      <use xlink:href="#DejaVuSans-4f" transform="translate(176.953125 0)"/>
      <use xlink:href="#DejaVuSans-3" transform="translate(204.734375 0)"/>
      <use xlink:href="#DejaVuSans-37" transform="translate(236.515625 0)"/>
      <use xlink:href="#DejaVuSans-5c" transform="translate(282.015625 0)"/>
      <use xlink:href="#DejaVuSans-53" transform="translate(341.203125 0)"/>
      <use xlink:href="#DejaVuSans-48" transform="translate(404.6875 0)"/>
     </g>
    </g>
    <g id="patch_8">
     <path d="M 278.3 59.0375 
L 298.3 59.0375 
L 298.3 52.0375 
L 278.3 52.0375 
z
" style="fill: #1f77b4; fill-opacity: 0.4; stroke: #1f77b4; stroke-linejoin: miter"/>
    </g>
    <g id="text_13">
     <!-- Diesel ($\mu=\$2.21$) -->
     <g transform="translate(306.3 59.0375) scale(0.1 -0.1)">
      <defs>
       <path id="DejaVuSans-Oblique-350" d="M -84 -1331 
L 856 3500 
L 1434 3500 
L 1009 1322 
Q 997 1256 987 1175 
Q 978 1094 978 1013 
Q 978 722 1161 565 
Q 1344 409 1684 409 
Q 2147 409 2431 671 
Q 2716 934 2816 1459 
L 3213 3500 
L 3788 3500 
L 3266 809 
Q 3253 750 3248 706 
Q 3244 663 3244 628 
Q 3244 531 3283 486 
Q 3322 441 3406 441 
Q 3438 441 3492 456 
Q 3547 472 3647 513 
L 3559 50 
Q 3422 -19 3297 -55 
Q 3172 -91 3053 -91 
Q 2847 -91 2730 40 
Q 2613 172 2613 403 
Q 2438 153 2195 31 
Q 1953 -91 1625 -91 
Q 1334 -91 1117 43 
Q 900 178 831 397 
L 494 -1331 
L -84 -1331 
z
" transform="scale(0.015625)"/>
       <path id="DejaVuSans-20" d="M 678 2906 
L 4684 2906 
L 4684 2381 
L 678 2381 
L 678 2906 
z
M 678 1631 
L 4684 1631 
L 4684 1100 
L 678 1100 
L 678 1631 
z
" transform="scale(0.015625)"/>
      </defs>
      <use xlink:href="#DejaVuSans-27" transform="translate(0 0.015625)"/>
      <use xlink:href="#DejaVuSans-4c" transform="translate(77.001953 0.015625)"/>
      <use xlink:href="#DejaVuSans-48" transform="translate(104.785156 0.015625)"/>
      <use xlink:href="#DejaVuSans-56" transform="translate(166.308594 0.015625)"/>
      <use xlink:href="#DejaVuSans-48" transform="translate(218.408203 0.015625)"/>
      <use xlink:href="#DejaVuSans-4f" transform="translate(279.931641 0.015625)"/>
      <use xlink:href="#DejaVuSans-3" transform="translate(307.714844 0.015625)"/>
      <use xlink:href="#DejaVuSans-b" transform="translate(339.501953 0.015625)"/>
      <use xlink:href="#DejaVuSans-Oblique-350" transform="translate(378.515625 0.015625)"/>
      <use xlink:href="#DejaVuSans-20" transform="translate(461.621094 0.015625)"/>
      <use xlink:href="#DejaVuSans-7" transform="translate(564.892578 0.015625)"/>
      <use xlink:href="#DejaVuSans-15" transform="translate(628.515625 0.015625)"/>
      <use xlink:href="#DejaVuSans-11" transform="translate(692.138672 0.015625)"/>
      <use xlink:href="#DejaVuSans-15" transform="translate(723.925781 0.015625)"/>
      <use xlink:href="#DejaVuSans-14" transform="translate(787.548828 0.015625)"/>
      <use xlink:href="#DejaVuSans-c" transform="translate(851.171875 0.015625)"/>
     </g>
    </g>
    <g id="patch_9">
     <path d="M 278.3 74.039844 
L 298.3 74.039844 
L 298.3 67.039844 
L 278.3 67.039844 
z
" style="fill: #ff7f0e; fill-opacity: 0.4; stroke: #ff7f0e; stroke-linejoin: miter"/>
    </g>
    <g id="text_14">
     <!-- Unleaded ($\mu=\$1.89$) -->
     <g transform="translate(306.3 74.039844) scale(0.1 -0.1)">
      <defs>
       <path id="DejaVuSans-38" d="M 556 4666 
L 1191 4666 
L 1191 1831 
Q 1191 1081 1462 751 
Q 1734 422 2344 422 
Q 2950 422 3222 751 
Q 3494 1081 3494 1831 
L 3494 4666 
L 4128 4666 
L 4128 1753 
Q 4128 841 3676 375 
Q 3225 -91 2344 -91 
Q 1459 -91 1007 375 
Q 556 841 556 1753 
L 556 4666 
z
" transform="scale(0.015625)"/>
       <path id="DejaVuSans-1c" d="M 703 97 
L 703 672 
Q 941 559 1184 500 
Q 1428 441 1663 441 
Q 2288 441 2617 861 
Q 2947 1281 2994 2138 
Q 2813 1869 2534 1725 
Q 2256 1581 1919 1581 
Q 1219 1581 811 2004 
Q 403 2428 403 3163 
Q 403 3881 828 4315 
Q 1253 4750 1959 4750 
Q 2769 4750 3195 4129 
Q 3622 3509 3622 2328 
Q 3622 1225 3098 567 
Q 2575 -91 1691 -91 
Q 1453 -91 1209 -44 
Q 966 3 703 97 
z
M 1959 2075 
Q 2384 2075 2632 2365 
Q 2881 2656 2881 3163 
Q 2881 3666 2632 3958 
Q 2384 4250 1959 4250 
Q 1534 4250 1286 3958 
Q 1038 3666 1038 3163 
Q 1038 2656 1286 2365 
Q 1534 2075 1959 2075 
z
" transform="scale(0.015625)"/>
      </defs>
      <use xlink:href="#DejaVuSans-38" transform="translate(0 0.015625)"/>
      <use xlink:href="#DejaVuSans-51" transform="translate(73.193359 0.015625)"/>
      <use xlink:href="#DejaVuSans-4f" transform="translate(136.572266 0.015625)"/>
      <use xlink:href="#DejaVuSans-48" transform="translate(164.355469 0.015625)"/>
      <use xlink:href="#DejaVuSans-44" transform="translate(225.878906 0.015625)"/>
      <use xlink:href="#DejaVuSans-47" transform="translate(287.158203 0.015625)"/>
      <use xlink:href="#DejaVuSans-48" transform="translate(350.634766 0.015625)"/>
      <use xlink:href="#DejaVuSans-47" transform="translate(412.158203 0.015625)"/>
      <use xlink:href="#DejaVuSans-3" transform="translate(475.634766 0.015625)"/>
      <use xlink:href="#DejaVuSans-b" transform="translate(507.421875 0.015625)"/>
      <use xlink:href="#DejaVuSans-Oblique-350" transform="translate(546.435547 0.015625)"/>
      <use xlink:href="#DejaVuSans-20" transform="translate(629.541016 0.015625)"/>
      <use xlink:href="#DejaVuSans-7" transform="translate(732.8125 0.015625)"/>
      <use xlink:href="#DejaVuSans-14" transform="translate(796.435547 0.015625)"/>
      <use xlink:href="#DejaVuSans-11" transform="translate(860.058594 0.015625)"/>
      <use xlink:href="#DejaVuSans-1b" transform="translate(891.845703 0.015625)"/>
      <use xlink:href="#DejaVuSans-1c" transform="translate(955.46875 0.015625)"/>
      <use xlink:href="#DejaVuSans-c" transform="translate(1019.091797 0.015625)"/>
     </g>
    </g>
    <g id="patch_10">
     <path d="M 278.3 89.042187 
L 298.3 89.042187 
L 298.3 82.042187 
L 278.3 82.042187 
z
" style="fill: #2ca02c; fill-opacity: 0.4; stroke: #2ca02c; stroke-linejoin: miter"/>
    </g>
    <g id="text_15">
     <!-- e10 ($\mu=\$1.82$) -->
     <g transform="translate(306.3 89.042187) scale(0.1 -0.1)">
      <use xlink:href="#DejaVuSans-48" transform="translate(0 0.015625)"/>
      <use xlink:href="#DejaVuSans-14" transform="translate(61.523438 0.015625)"/>
      <use xlink:href="#DejaVuSans-13" transform="translate(125.146484 0.015625)"/>
      <use xlink:href="#DejaVuSans-3" transform="translate(188.769531 0.015625)"/>
      <use xlink:href="#DejaVuSans-b" transform="translate(220.556641 0.015625)"/>
      <use xlink:href="#DejaVuSans-Oblique-350" transform="translate(259.570312 0.015625)"/>
      <use xlink:href="#DejaVuSans-20" transform="translate(342.675781 0.015625)"/>
      <use xlink:href="#DejaVuSans-7" transform="translate(445.947266 0.015625)"/>
      <use xlink:href="#DejaVuSans-14" transform="translate(509.570312 0.015625)"/>
      <use xlink:href="#DejaVuSans-11" transform="translate(573.193359 0.015625)"/>
      <use xlink:href="#DejaVuSans-1b" transform="translate(604.980469 0.015625)"/>
      <use xlink:href="#DejaVuSans-15" transform="translate(668.603516 0.015625)"/>
      <use xlink:href="#DejaVuSans-c" transform="translate(732.226562 0.015625)"/>
     </g>
    </g>
   </g>
  </g>
 </g>
 <defs>
  <clipPath id="p07f56a7867">
   <rect x="56.12" y="27.436719" width="365.08" height="144.520469"/>
  </clipPath>
 </defs>
</svg>
